<?xml version="1.0" encoding="UTF-8" standalone="no"?>
<!-- Created with Inkscape (http://www.inkscape.org/) -->

<svg
   xmlns:dc="http://purl.org/dc/elements/1.1/"
   xmlns:cc="http://creativecommons.org/ns#"
   xmlns:rdf="http://www.w3.org/1999/02/22-rdf-syntax-ns#"
   xmlns:svg="http://www.w3.org/2000/svg"
   xmlns="http://www.w3.org/2000/svg"
   xmlns:xlink="http://www.w3.org/1999/xlink"
   xmlns:sodipodi="http://sodipodi.sourceforge.net/DTD/sodipodi-0.dtd"
   xmlns:inkscape="http://www.inkscape.org/namespaces/inkscape"
   version="1.0"
   width="96"
   height="96"
   id="svg2408"
   style="display:inline"
   inkscape:version="0.48.1 r9760"
   sodipodi:docname="cmyktool.svg">
  <sodipodi:namedview
     pagecolor="#ffffff"
     bordercolor="#666666"
     borderopacity="1"
     objecttolerance="10"
     gridtolerance="10"
     guidetolerance="10"
     inkscape:pageopacity="0"
     inkscape:pageshadow="2"
     inkscape:window-width="1600"
     inkscape:window-height="826"
     id="namedview62"
     showgrid="false"
     inkscape:zoom="0.7578125"
     inkscape:cx="-437.73221"
     inkscape:cy="65.283503"
     inkscape:window-x="0"
     inkscape:window-y="25"
     inkscape:window-maximized="1"
     inkscape:current-layer="svg2408" />
  <defs
     id="defs2410">
    <linearGradient
       id="linearGradient3869">
      <stop
         style="stop-color:#000000;stop-opacity:1;"
         offset="0"
         id="stop3871" />
      <stop
         style="stop-color:#000000;stop-opacity:0;"
         offset="1"
         id="stop3873" />
    </linearGradient>
    <linearGradient
       id="linearGradient3863">
      <stop
         style="stop-color:#d10074;stop-opacity:1;"
         offset="0"
         id="stop3865" />
      <stop
         style="stop-color:#950656;stop-opacity:1;"
         offset="1"
         id="stop3867" />
    </linearGradient>
    <linearGradient
       id="linearGradient3997">
      <stop
         id="stop3999"
         style="stop-color:#ffffff;stop-opacity:1"
         offset="0" />
      <stop
         id="stop4001"
         style="stop-color:#ffffff;stop-opacity:0"
         offset="1" />
    </linearGradient>
    <linearGradient
       id="linearGradient3977">
      <stop
         id="stop3979"
         style="stop-color:#f9e300;stop-opacity:1;"
         offset="0" />
      <stop
         id="stop3981"
         style="stop-color:#877b00;stop-opacity:1;"
         offset="1" />
    </linearGradient>
    <linearGradient
       id="linearGradient4941">
      <stop
         id="stop4943"
         style="stop-color:#009fda;stop-opacity:1;"
         offset="0" />
      <stop
         id="stop4945"
         style="stop-color:#006b93;stop-opacity:1;"
         offset="1" />
    </linearGradient>
    <linearGradient
       x1="45.447727"
       y1="92.539597"
       x2="45.447727"
       y2="7.0165396"
       id="ButtonShadow"
       gradientUnits="userSpaceOnUse"
       gradientTransform="scale(1.0058652,0.994169)">
      <stop
         id="stop3750"
         style="stop-color:#000000;stop-opacity:1"
         offset="0" />
      <stop
         id="stop3752"
         style="stop-color:#000000;stop-opacity:0.58823532"
         offset="1" />
    </linearGradient>
    <linearGradient
       id="linearGradient3737">
      <stop
         id="stop3739"
         style="stop-color:#ffffff;stop-opacity:1"
         offset="0" />
      <stop
         id="stop3741"
         style="stop-color:#ffffff;stop-opacity:0"
         offset="1" />
    </linearGradient>
    <linearGradient
       id="linearGradient3700">
      <stop
         id="stop3702"
         style="stop-color:#2276c5;stop-opacity:1"
         offset="0" />
      <stop
         id="stop3704"
         style="stop-color:#69a9e6;stop-opacity:1"
         offset="1" />
    </linearGradient>
    <linearGradient
       x1="48"
       y1="90"
       x2="48"
       y2="5.9877172"
       id="linearGradient3706"
       xlink:href="#linearGradient3700"
       gradientUnits="userSpaceOnUse" />
    <linearGradient
       x1="36.357143"
       y1="6"
       x2="36.357143"
       y2="63.893143"
       id="linearGradient3188"
       xlink:href="#linearGradient3737"
       gradientUnits="userSpaceOnUse" />
    <filter
       color-interpolation-filters="sRGB"
       id="filter7725">
      <feGaussianBlur
         id="feGaussianBlur7727"
         stdDeviation="1.71" />
    </filter>
    <linearGradient
       x1="-34.399559"
       y1="92.08268"
       x2="-34.399559"
       y2="7"
       id="linearGradient7959"
       xlink:href="#ButtonShadow"
       gradientUnits="userSpaceOnUse"
       gradientTransform="translate(100,0)" />
    <linearGradient
       x1="48"
       y1="90"
       x2="48"
       y2="5.9877172"
       id="linearGradient8096"
       xlink:href="#linearGradient3977"
       gradientUnits="userSpaceOnUse"
       gradientTransform="matrix(0.5,0,0,0.5,45.000008,-50.999998)" />
    <linearGradient
       x1="32"
       y1="91"
       x2="32"
       y2="7.9458008"
       id="linearGradient3197"
       xlink:href="#ButtonShadow"
       gradientUnits="userSpaceOnUse" />
    <linearGradient
       x1="48"
       y1="90"
       x2="48"
       y2="5.9877172"
       id="linearGradient3975"
       xlink:href="#linearGradient4941"
       gradientUnits="userSpaceOnUse"
       gradientTransform="matrix(0.5,0,0,0.5,45.000008,-93)" />
    <linearGradient
       x1="48"
       y1="90"
       x2="48"
       y2="5.9877172"
       id="linearGradient3987"
       xlink:href="#linearGradient3977"
       gradientUnits="userSpaceOnUse"
       gradientTransform="matrix(0.5,0,0,0.5,3.000008,-92.999998)" />
    <linearGradient
       x1="48"
       y1="90"
       x2="48"
       y2="5.9877172"
       id="linearGradient3993"
       xlink:href="#linearGradient4941"
       gradientUnits="userSpaceOnUse"
       gradientTransform="matrix(0.5,0,0,0.5,3.000008,-51)" />
    <linearGradient
       x1="24"
       y1="48"
       x2="24"
       y2="88"
       id="linearGradient4003"
       xlink:href="#linearGradient3997"
       gradientUnits="userSpaceOnUse" />
    <linearGradient
       x1="24"
       y1="48"
       x2="24"
       y2="88"
       id="linearGradient4007"
       xlink:href="#linearGradient3997"
       gradientUnits="userSpaceOnUse"
       gradientTransform="translate(42,-42)" />
    <linearGradient
       x1="24"
       y1="48"
       x2="24"
       y2="88"
       id="linearGradient4011"
       xlink:href="#linearGradient3997"
       gradientUnits="userSpaceOnUse"
       gradientTransform="translate(0,-42)" />
    <linearGradient
       x1="24"
       y1="48"
       x2="24"
       y2="88"
       id="linearGradient4015"
       xlink:href="#linearGradient3997"
       gradientUnits="userSpaceOnUse"
       gradientTransform="translate(42,0)" />
    <linearGradient
       inkscape:collect="always"
       xlink:href="#linearGradient3997"
       id="linearGradient3040"
       gradientUnits="userSpaceOnUse"
       gradientTransform="translate(42,0)"
       x1="24"
       y1="48"
       x2="24"
       y2="88" />
    <linearGradient
       inkscape:collect="always"
       xlink:href="#linearGradient3997"
       id="linearGradient3043"
       gradientUnits="userSpaceOnUse"
       gradientTransform="translate(0,-42)"
       x1="24"
       y1="48"
       x2="24"
       y2="88" />
    <linearGradient
       inkscape:collect="always"
       xlink:href="#linearGradient3997"
       id="linearGradient3046"
       gradientUnits="userSpaceOnUse"
       gradientTransform="translate(42,-42)"
       x1="24"
       y1="48"
       x2="24"
       y2="88" />
    <linearGradient
       inkscape:collect="always"
       xlink:href="#linearGradient3997"
       id="linearGradient3049"
       gradientUnits="userSpaceOnUse"
       x1="24"
       y1="48"
       x2="24"
       y2="88" />
    <linearGradient
       inkscape:collect="always"
       xlink:href="#linearGradient4941"
       id="linearGradient3053"
       gradientUnits="userSpaceOnUse"
       gradientTransform="matrix(0.5,0,0,0.5,3.000008,-51)"
       x1="48"
       y1="90"
       x2="48"
       y2="5.9877172" />
    <linearGradient
       inkscape:collect="always"
       xlink:href="#linearGradient3977"
       id="linearGradient3057"
       gradientUnits="userSpaceOnUse"
       gradientTransform="matrix(0.5,0,0,0.5,3.000008,-92.999998)"
       x1="48"
       y1="90"
       x2="48"
       y2="5.9877172" />
    <linearGradient
       inkscape:collect="always"
       xlink:href="#linearGradient4941"
       id="linearGradient3838"
       gradientUnits="userSpaceOnUse"
       gradientTransform="matrix(0.5,0,0,0.5,-14.711332,134.62887)"
       x1="48"
       y1="90"
       x2="48"
       y2="5.9877172" />
    <linearGradient
       inkscape:collect="always"
       xlink:href="#linearGradient3977"
       id="linearGradient3842"
       gradientUnits="userSpaceOnUse"
       gradientTransform="matrix(0.5,0,0,0.5,-42.195868,76.237115)"
       x1="48"
       y1="90"
       x2="48"
       y2="5.9877172" />
    <linearGradient
       inkscape:collect="always"
       xlink:href="#linearGradient3863"
       id="linearGradient3861"
       x1="68.948456"
       y1="-8.5759096"
       x2="68.948456"
       y2="-47.175259"
       gradientUnits="userSpaceOnUse" />
    <linearGradient
       inkscape:collect="always"
       xlink:href="#linearGradient3869"
       id="linearGradient3875"
       x1="69.32959"
       y1="-48.329582"
       x2="69.32959"
       y2="-89.798172"
       gradientUnits="userSpaceOnUse" />
    <linearGradient
       gradientTransform="matrix(1.0238095,0,0,1.0119048,-1.1428571,-98.071429)"
       gradientUnits="userSpaceOnUse"
       xlink:href="#ButtonShadow-0"
       id="linearGradient2969"
       y2="90.238609"
       x2="32.251034"
       y1="6.1317081"
       x1="32.251034" />
    <linearGradient
       gradientTransform="translate(0,-97)"
       gradientUnits="userSpaceOnUse"
       xlink:href="#ButtonShadow-0"
       id="linearGradient3721"
       y2="90.238609"
       x2="32.251034"
       y1="6.1317081"
       x1="32.251034" />
    <linearGradient
       gradientTransform="matrix(1.0238095,0,0,1.0119048,-1.1428571,-98.071429)"
       gradientUnits="userSpaceOnUse"
       xlink:href="#ButtonShadow-0"
       id="linearGradient3725"
       y2="90.238609"
       x2="32.251034"
       y1="6.1317081"
       x1="32.251034" />
    <linearGradient
       gradientTransform="matrix(1.0238095,0,0,1.0119048,-1.1428571,-98.071429)"
       gradientUnits="userSpaceOnUse"
       xlink:href="#ButtonShadow-0"
       id="linearGradient3772"
       y2="90.238609"
       x2="32.251034"
       y1="6.1317081"
       x1="32.251034" />
    <linearGradient
       gradientTransform="matrix(1.0238095,0,0,1.0119048,-1.1428571,-98.071429)"
       gradientUnits="userSpaceOnUse"
       xlink:href="#ButtonShadow-0"
       id="linearGradient3780"
       y2="90.238609"
       x2="32.251034"
       y1="6.1317081"
       x1="32.251034" />
    <linearGradient
       gradientTransform="matrix(1.0058652,0,0,0.994169,100,0)"
       gradientUnits="userSpaceOnUse"
       id="ButtonShadow-0"
       y2="7.0165396"
       x2="45.447727"
       y1="92.539597"
       x1="45.447727">
      <stop
         offset="0"
         style="stop-color:#000000;stop-opacity:1"
         id="stop3750-8" />
      <stop
         offset="1"
         style="stop-color:#000000;stop-opacity:0.58823532"
         id="stop3752-5" />
    </linearGradient>
    <linearGradient
       gradientUnits="userSpaceOnUse"
       xlink:href="#ButtonColor"
       id="linearGradient3708"
       y2="5.9877172"
       x2="48"
       y1="90"
       x1="48" />
    <linearGradient
       gradientTransform="matrix(1.0172414,0,0,1.0172414,-1.1034483,-1.1034483)"
       gradientUnits="userSpaceOnUse"
       id="ButtonColor"
       y2="5.4252338"
       x2="58.650177"
       y1="122"
       x1="58.650177">
      <stop
         offset="0"
         style="stop-color:#623b6b;stop-opacity:1"
         id="stop3189" />
      <stop
         offset="1"
         style="stop-color:#ad7fa8;stop-opacity:1"
         id="stop3191" />
    </linearGradient>
    <linearGradient
       gradientUnits="userSpaceOnUse"
       xlink:href="#linearGradient3700-4"
       id="linearGradient2977"
       y2="5.9877172"
       x2="48"
       y1="90"
       x1="48" />
    <clipPath
       id="clipPath2973">
      <rect
         style="fill:url(#linearGradient2977);fill-opacity:1;fill-rule:nonzero;stroke:none"
         id="rect2975"
         y="6"
         x="6"
         ry="6"
         rx="6"
         height="84"
         width="84" />
    </clipPath>
    <linearGradient
       id="linearGradient3700-4">
      <stop
         offset="0"
         style="stop-color:#70a83e;stop-opacity:1"
         id="stop3702-4" />
      <stop
         offset="1"
         style="stop-color:#9fd058;stop-opacity:1"
         id="stop3704-4" />
    </linearGradient>
    <linearGradient
       gradientUnits="userSpaceOnUse"
       xlink:href="#linearGradient3700-6"
       id="linearGradient3878"
       y2="5.9877172"
       x2="48"
       y1="90"
       x1="48" />
    <linearGradient
       gradientTransform="matrix(1.2790652,0,0,1.2790652,17.302433,18.5815)"
       gradientUnits="userSpaceOnUse"
       xlink:href="#linearGradient3397"
       id="linearGradient3806"
       y2="45"
       x2="37.201294"
       y1="1"
       x1="37.201294" />
    <linearGradient
       gradientTransform="matrix(1.2790652,0,0,1.2790652,17.302433,18.5815)"
       gradientUnits="userSpaceOnUse"
       xlink:href="#linearGradient3309"
       id="linearGradient3804"
       y2="45.017357"
       x2="20.758585"
       y1="1"
       x1="20.758585" />
    <linearGradient
       gradientTransform="matrix(0.41503146,0,0,0.41503146,21.437996,21.853023)"
       gradientUnits="userSpaceOnUse"
       xlink:href="#linearGradient5128"
       id="linearGradient3801"
       y2="20.895"
       x2="84.63858"
       y1="105.105"
       x1="86.132919" />
    <linearGradient
       id="linearGradient3397">
      <stop
         offset="0"
         style="stop-color:#aaaaaa;stop-opacity:1"
         id="stop3399" />
      <stop
         offset="1"
         style="stop-color:#8c8c8c;stop-opacity:1"
         id="stop3401" />
    </linearGradient>
    <linearGradient
       gradientUnits="userSpaceOnUse"
       id="linearGradient3309"
       y2="122.8994"
       x2="63.9995"
       y1="3.1001"
       x1="63.9995">
      <stop
         offset="0"
         style="stop-color:#f6f6f6;stop-opacity:1"
         id="stop3311" />
      <stop
         offset="1"
         style="stop-color:#d2d2d2;stop-opacity:1"
         id="stop3313" />
    </linearGradient>
    <linearGradient
       id="linearGradient5128">
      <stop
         offset="0"
         style="stop-color:#e5e5e5;stop-opacity:1"
         id="stop5130" />
      <stop
         offset="1"
         style="stop-color:#ababab;stop-opacity:1"
         id="stop5132" />
    </linearGradient>
    <linearGradient
       gradientUnits="userSpaceOnUse"
       xlink:href="#linearGradient3700-6"
       id="linearGradient3617"
       y2="5.9877172"
       x2="48"
       y1="90"
       x1="48" />
    <clipPath
       id="clipPath3613">
      <rect
         style="fill:#ffffff;fill-opacity:1;fill-rule:nonzero;stroke:none"
         id="rect3615"
         y="6"
         x="6"
         ry="6"
         rx="6"
         height="84"
         width="84" />
    </clipPath>
    <radialGradient
       gradientTransform="matrix(1.1573129,0,0,0.99590774,-7.5510206,0.19713193)"
       gradientUnits="userSpaceOnUse"
       xlink:href="#linearGradient3737-9"
       id="radialGradient3619"
       fy="90.171875"
       fx="48"
       r="42"
       cy="90.171875"
       cx="48" />
    <linearGradient
       gradientUnits="userSpaceOnUse"
       xlink:href="#linearGradient3737-9"
       id="linearGradient3613"
       y2="138.66119"
       x2="48"
       y1="20.220806"
       x1="48" />
    <filter
       id="filter3794"
       color-interpolation-filters="sRGB"
       height="1.3839999"
       width="1.3839999"
       y="-0.192"
       x="-0.192">
      <feGaussianBlur
         stdDeviation="5.28"
         id="feGaussianBlur3796" />
    </filter>
    <linearGradient
       gradientUnits="userSpaceOnUse"
       xlink:href="#linearGradient3737-9"
       id="linearGradient3188-9"
       y2="63.893143"
       x2="36.357143"
       y1="6"
       x1="36.357143" />
    <filter
       id="filter3174"
       color-interpolation-filters="sRGB">
      <feGaussianBlur
         stdDeviation="1.71"
         id="feGaussianBlur3176" />
    </filter>
    <linearGradient
       id="linearGradient3700-6">
      <stop
         offset="0"
         style="stop-color:#70a83e;stop-opacity:1"
         id="stop3702-7" />
      <stop
         offset="1"
         style="stop-color:#9fd058;stop-opacity:1"
         id="stop3704-5" />
    </linearGradient>
    <linearGradient
       id="linearGradient3737-9">
      <stop
         offset="0"
         style="stop-color:#ffffff;stop-opacity:1"
         id="stop3739-8" />
      <stop
         offset="1"
         style="stop-color:#ffffff;stop-opacity:0"
         id="stop3741-2" />
    </linearGradient>
    <linearGradient
       gradientTransform="scale(1.0058652,0.994169)"
       gradientUnits="userSpaceOnUse"
       id="ButtonShadow-01"
       y2="7.0165396"
       x2="45.447727"
       y1="92.539597"
       x1="45.447727">
      <stop
         offset="0"
         style="stop-color:#000000;stop-opacity:1"
         id="stop3750-7" />
      <stop
         offset="1"
         style="stop-color:#000000;stop-opacity:0.58823532"
         id="stop3752-1" />
    </linearGradient>
    <linearGradient
       inkscape:collect="always"
       xlink:href="#linearGradient5128"
       id="linearGradient4118"
       gradientUnits="userSpaceOnUse"
       gradientTransform="matrix(0.41503146,0,0,0.41503146,-329.81604,166.3274)"
       x1="86.132919"
       y1="105.105"
       x2="84.63858"
       y2="20.895" />
    <linearGradient
       inkscape:collect="always"
       xlink:href="#linearGradient3309"
       id="linearGradient4121"
       gradientUnits="userSpaceOnUse"
       gradientTransform="matrix(1.2790652,0,0,1.2790652,-333.95161,163.05588)"
       x1="20.758585"
       y1="1"
       x2="20.758585"
       y2="45.017357" />
    <linearGradient
       inkscape:collect="always"
       xlink:href="#linearGradient3397"
       id="linearGradient4123"
       gradientUnits="userSpaceOnUse"
       gradientTransform="matrix(1.2790652,0,0,1.2790652,-333.95161,163.05588)"
       x1="37.201294"
       y1="1"
       x2="37.201294"
       y2="45" />
    <linearGradient
       inkscape:collect="always"
       xlink:href="#linearGradient3737-9"
       id="linearGradient4129"
       gradientUnits="userSpaceOnUse"
       x1="48"
       y1="20.220806"
       x2="48"
       y2="138.66119" />
    <linearGradient
       inkscape:collect="always"
       xlink:href="#linearGradient3700-6"
       id="linearGradient4137"
       gradientUnits="userSpaceOnUse"
       x1="48"
       y1="90"
       x2="48"
       y2="5.9877172"
       gradientTransform="translate(-351.25404,144.47438)" />
    <linearGradient
       inkscape:collect="always"
       xlink:href="#linearGradient3700-6"
       id="linearGradient4140"
       gradientUnits="userSpaceOnUse"
       x1="48"
       y1="90"
       x2="48"
       y2="5.9877172"
       gradientTransform="translate(-351.25404,144.47438)" />
    <radialGradient
       inkscape:collect="always"
       xlink:href="#linearGradient3737-9"
       id="radialGradient4166"
       gradientUnits="userSpaceOnUse"
       gradientTransform="matrix(1.1573129,0,0,0.99590774,-358.80506,144.67151)"
       cx="48"
       cy="90.171875"
       fx="48"
       fy="90.171875"
       r="42" />
    <linearGradient
       inkscape:collect="always"
       xlink:href="#linearGradient3737-9"
       id="linearGradient4169"
       gradientUnits="userSpaceOnUse"
       x1="36.357143"
       y1="6"
       x2="36.357143"
       y2="63.893143"
       gradientTransform="translate(-351.25404,144.47438)" />
    <linearGradient
       inkscape:collect="always"
       xlink:href="#ButtonColor"
       id="linearGradient4172"
       gradientUnits="userSpaceOnUse"
       x1="48"
       y1="90"
       x2="48"
       y2="5.9877172"
       gradientTransform="translate(-351.25404,144.47438)" />
    <linearGradient
       inkscape:collect="always"
       xlink:href="#ButtonShadow-0"
       id="linearGradient4185"
       gradientUnits="userSpaceOnUse"
       gradientTransform="translate(-351.25404,-241.47438)"
       x1="32.251034"
       y1="6.1317081"
       x2="32.251034"
       y2="90.238609" />
    <linearGradient
       inkscape:collect="always"
       xlink:href="#ButtonShadow-0"
       id="linearGradient4188"
       gradientUnits="userSpaceOnUse"
       gradientTransform="matrix(1.0238095,0,0,1.0119048,-352.3969,-242.54581)"
       x1="32.251034"
       y1="6.1317081"
       x2="32.251034"
       y2="90.238609" />
    <linearGradient
       inkscape:collect="always"
       xlink:href="#ButtonShadow-0"
       id="linearGradient4191"
       gradientUnits="userSpaceOnUse"
       gradientTransform="matrix(1.0238095,0,0,-1.0119048,-352.3969,242.54581)"
       x1="32.251034"
       y1="6.1317081"
       x2="32.251034"
       y2="90.238609" />
    <linearGradient
       inkscape:collect="always"
       xlink:href="#ButtonShadow-0"
       id="linearGradient4194"
       gradientUnits="userSpaceOnUse"
       gradientTransform="matrix(1.0238095,0,0,-1.0119048,-352.3969,242.54581)"
       x1="32.251034"
       y1="6.1317081"
       x2="32.251034"
       y2="90.238609" />
    <linearGradient
       inkscape:collect="always"
       xlink:href="#ButtonShadow-0"
       id="linearGradient4197"
       gradientUnits="userSpaceOnUse"
       gradientTransform="matrix(1.0238095,0,0,-1.0119048,-352.3969,242.54581)"
       x1="32.251034"
       y1="6.1317081"
       x2="32.251034"
       y2="90.238609" />
    <linearGradient
       inkscape:collect="always"
       xlink:href="#ButtonShadow-01"
       id="linearGradient4202"
       gradientUnits="userSpaceOnUse"
       gradientTransform="matrix(1.0058652,0,0,0.994169,-351.25404,144.47438)"
       x1="45.447727"
       y1="92.539597"
       x2="45.447727"
       y2="7.0165396" />
  </defs>
  <metadata
     id="metadata2413">
    <rdf:RDF>
      <cc:Work
         rdf:about="">
        <dc:format>image/svg+xml</dc:format>
        <dc:type
           rdf:resource="http://purl.org/dc/dcmitype/StillImage" />
        <dc:title />
      </cc:Work>
    </rdf:RDF>
  </metadata>
  <g
     id="layer5"
     style="display:none">
    <path
       d="M 11.28125,7 C 7.7989644,7 5,9.7531077 5,13.15625 l 0,30.6875 C 5,46.372474 6.5571633,48.555702 8.78125,49.5 6.5571633,50.444298 5,52.627526 5,55.15625 l 0,30.6875 C 5,89.246893 7.7989644,92 11.28125,92 l 31.4375,0 C 44.936751,92 46.881799,90.87394 48,89.1875 49.118201,90.873939 51.06325,92 53.28125,92 l 31.4375,0 C 88.201036,92 91,89.246896 91,85.84375 l 0,-30.6875 C 91,51.753107 88.201035,49 84.71875,49 l -31.4375,0 C 51.063249,49 49.118201,50.126061 48,51.8125 47.332888,50.80638 46.356133,49.982908 45.21875,49.5 47.442837,48.555702 49,46.372474 49,43.84375 l 0,-30.6875 C 49,9.7531072 46.201035,7 42.71875,7 l -31.4375,0 z"
       inkscape:connector-curvature="0"
       id="rect7705"
       style="opacity:0.9;fill:url(#linearGradient7959);fill-opacity:1;fill-rule:nonzero;stroke:none;filter:url(#filter7725)" />
  </g>
  <g
     id="layer2"
     style="display:inline">
    <path
       d="M 12,4 C 6.511945,4 2,8.5119452 2,14 l 0,29 c 0,2.498542 1.137525,4.586599 2.65625,6.25 C 3.228832,50.799061 2.288351,52.771646 2.0625,54.96875 2.019497,55.302973 2,55.649272 2,56 l 0,29 c 0,5.488055 4.511945,10 10,10 l 30,0 c 2.37739,0 4.366863,-1.047966 6,-2.40625 0.204142,0.169786 0.409661,0.341353 0.625,0.5 C 50.132375,94.204281 51.919784,95 54,95 l 30,0 c 0.686007,0 1.351403,-0.08466 2,-0.21875 1.945793,-0.402277 3.702005,-1.358255 5.0625,-2.71875 C 92.876493,90.248507 94,87.744028 94,85 L 94,56 C 94,55.649272 93.9805,55.302973 93.9375,54.96875 93.711649,52.771646 92.771168,50.799061 91.34375,49.25 92.862475,47.586599 94,45.498542 94,43 L 94,14 C 94,8.5119452 89.488055,4 84,4 L 54,4 C 51.750418,4 49.678041,4.75856 48,6.03125 46.321959,4.75856 44.249582,4 42,4 L 12,4 z"
       inkscape:connector-curvature="0"
       id="path3846"
       style="opacity:0.07999998;fill:#000000;fill-opacity:1;fill-rule:nonzero;stroke:none;display:inline" />
    <path
       d="M 12,5 C 7.049025,5 3,9.0490253 3,14 l 0,29 c 0,2.572445 1.256929,4.731671 3,6.34375 C 4.171957,50.993853 3,53.357799 3,56 l 0,29 c 0,4.950975 4.049025,9 9,9 l 30,0 c 2.388675,0 4.414304,-1.080788 6,-2.59375 0.198212,0.18912 0.41319,0.356902 0.625,0.53125 C 50.107668,93.157936 51.909909,94 54,94 l 30,0 c 0.309436,0 0.604629,-3.85e-4 0.90625,-0.03125 0.301621,-0.03087 0.61398,-0.09606 0.90625,-0.15625 1.169079,-0.240771 2.260761,-0.695197 3.21875,-1.34375 0.239497,-0.162138 0.465038,-0.347467 0.6875,-0.53125 C 91.720912,90.283454 93,87.784923 93,85 L 93,56 C 93,53.357799 91.828043,50.993853 90,49.34375 91.743071,47.731671 93,45.572445 93,43 L 93,14 C 93,9.0490253 88.950975,5 84,5 L 54,5 C 51.691226,5 49.597358,5.901878 48,7.34375 46.402642,5.901878 44.308774,5 42,5 L 12,5 z m 36,44.3125 c 0.0434,0.04032 0.08101,0.08533 0.125,0.125 -0.04357,0.03986 -0.08363,0.08311 -0.125,0.125 -0.04137,-0.04189 -0.08143,-0.08514 -0.125,-0.125 0.04399,-0.03967 0.0816,-0.08468 0.125,-0.125 z"
       inkscape:connector-curvature="0"
       id="path3842"
       style="opacity:0.1;fill:#000000;fill-opacity:1;fill-rule:nonzero;stroke:none;display:inline" />
    <path
       d="M 12,6 C 7.593306,6 4,9.593306 4,14 l 0,29 c 0,2.689622 1.365461,5.027239 3.40625,6.46875 C 6.125989,50.371093 5.139494,51.645521 4.5625,53.125 4.4696,53.363215 4.382538,53.595206 4.3125,53.84375 4.28239,53.947689 4.24457,54.050525 4.21875,54.15625 4.152592,54.433155 4.098882,54.712918 4.0625,55 4.020613,55.330518 4,55.658412 4,56 l 0,29 c 0,4.406694 3.593306,8 8,8 l 30,0 c 2.422034,0 4.538346,-1.140945 6,-2.84375 0.182707,0.212851 0.391267,0.430839 0.59375,0.625 C 50.011133,92.14038 51.88072,93 54,93 l 30,0 c 0.275418,0 0.544115,-0.0039 0.8125,-0.03125 2.147081,-0.219152 4.037725,-1.293557 5.34375,-2.875 C 91.299022,88.709987 92,86.927929 92,85 L 92,56 C 92,55.658412 91.97939,55.330518 91.9375,55 91.90112,54.712918 91.84741,54.433155 91.78125,54.15625 91.75656,54.052898 91.71618,53.945522 91.6875,53.84375 91.61648,53.598588 91.531404,53.359471 91.4375,53.125 90.860506,51.645521 89.874011,50.371093 88.59375,49.46875 90.634539,48.027239 92,45.689622 92,43 L 92,14 C 92,9.593306 88.406694,6 84,6 L 54,6 C 51.610508,6 49.467967,7.0489117 48,8.71875 46.532033,7.0489117 44.389492,6 42,6 L 12,6 z M 48,48.21875 C 48.431235,48.701176 48.935293,49.129678 49.46875,49.5 48.929507,49.890594 48.432856,50.339005 48,50.84375 47.567144,50.339005 47.070493,49.890594 46.53125,49.5 47.064707,49.129678 47.568765,48.701176 48,48.21875 z"
       inkscape:connector-curvature="0"
       id="path3184"
       style="opacity:0.2;fill:#000000;fill-opacity:1;fill-rule:nonzero;stroke:none;display:inline" />
    <path
       d="M 12,7 C 8.122,7 5,10.122 5,14 l 0,29 c 0,2.969094 1.839232,5.479063 4.4375,6.5 -0.332335,0.130584 -0.663773,0.259894 -0.96875,0.4375 -0.887064,0.51659 -1.636611,1.252826 -2.21875,2.09375 -0.01606,0.0232 -0.04671,0.03909 -0.0625,0.0625 -0.156349,0.231807 -0.278093,0.468149 -0.40625,0.71875 -0.01741,0.03377 -0.04563,0.05966 -0.0625,0.09375 -0.05915,0.120321 -0.103919,0.250863 -0.15625,0.375 -0.08328,0.19619 -0.184678,0.388674 -0.25,0.59375 -0.003,0.0094 0.0029,0.02179 0,0.03125 -0.0446,0.142202 -0.05816,0.291439 -0.09375,0.4375 -0.02992,0.123715 -0.07046,0.248773 -0.09375,0.375 -0.01537,0.08324 -0.01885,0.16572 -0.03125,0.25 C 5.043826,55.307344 5,55.647102 5,56 l 0,29 c 0,3.878 3.122,7 7,7 l 30,0 c 2.557737,0 4.77882,-1.368894 6,-3.40625 0.152648,0.25467 0.317401,0.486338 0.5,0.71875 C 49.778193,90.939384 51.76198,92 54,92 l 30,0 c 0.242375,0 0.482859,-0.0074 0.71875,-0.03125 2.358911,-0.23813 4.362378,-1.640972 5.4375,-3.625 C 90.693811,87.351736 91,86.211875 91,85 l 0,-29 c 0,-0.352898 -0.04383,-0.692656 -0.09375,-1.03125 -0.01234,-0.08372 -0.01599,-0.167292 -0.03125,-0.25 -0.02378,-0.128765 -0.06303,-0.248898 -0.09375,-0.375 C 90.651126,53.805756 90.464631,53.2933 90.21875,52.8125 90.090593,52.561899 89.968849,52.325557 89.8125,52.09375 89.79671,52.07034 89.76606,52.05445 89.75,52.03125 89.167861,51.190326 88.418314,50.45409 87.53125,49.9375 87.52385,49.9332 87.5074,49.9418 87.5,49.9375 87.202153,49.765607 86.886256,49.627213 86.5625,49.5 89.160768,48.479063 91,45.969094 91,43 L 91,14 C 91,10.122 87.878,7 84,7 L 54,7 C 51.442263,7 49.22118,8.3688935 48,10.40625 46.77882,8.3688935 44.557737,7 42,7 L 12,7 z m 36,39.5625 c 0.78946,1.318846 1.987022,2.367564 3.4375,2.9375 -0.319429,0.127033 -0.643482,0.266722 -0.9375,0.4375 -0.03211,0.01865 -0.06197,0.04335 -0.09375,0.0625 -0.333179,0.200712 -0.643646,0.435798 -0.9375,0.6875 -0.219536,0.188044 -0.430255,0.380248 -0.625,0.59375 -0.111162,0.120925 -0.210045,0.246348 -0.3125,0.375 -0.192914,0.242484 -0.371196,0.482974 -0.53125,0.75 -0.160054,-0.267026 -0.338336,-0.507516 -0.53125,-0.75 -0.102455,-0.128652 -0.201338,-0.254075 -0.3125,-0.375 -0.194745,-0.213502 -0.405464,-0.405706 -0.625,-0.59375 C 46.237396,50.435798 45.926929,50.200712 45.59375,50 45.56177,49.98087 45.53232,49.95614 45.5,49.9375 45.205982,49.766722 44.881929,49.627033 44.5625,49.5 46.012978,48.930064 47.21054,47.881346 48,46.5625 z"
       inkscape:connector-curvature="0"
       id="rect3816"
       style="opacity:0.3;fill:#000000;fill-opacity:1;fill-rule:nonzero;stroke:none;display:inline" />
    <path
       d="M 12,7 C 8.676,7 6,9.676 6,13 l 0,30 c 0,3.324 2.676,6 6,6 -3.324,0 -6,2.676 -6,6 l 0,30 c 0,3.324 2.676,6 6,6 l 30,0 c 3.324,0 6,-2.676 6,-6 0,0.20775 0.01084,0.422808 0.03125,0.625 C 48.337417,88.657886 50.88375,91 54,91 l 30,0 c 3.324,0 6,-2.676 6,-6 l 0,-30 c 0,-3.324 -2.676,-6 -6,-6 3.324,0 6,-2.676 6,-6 L 90,13 C 90,9.676 87.324,7 84,7 L 54,7 C 50.676,7 48,9.676 48,13 48,9.676 45.324,7 42,7 L 12,7 z m 36,36 c 0,3.324 2.676,6 6,6 -3.11625,0 -5.662583,2.342114 -5.96875,5.375 C 48.010839,54.577192 48,54.79225 48,55 c 0,-3.324 -2.676,-6 -6,-6 3.324,0 6,-2.676 6,-6 z"
       inkscape:connector-curvature="0"
       id="rect3037"
       style="opacity:0.45;fill:url(#linearGradient3197);fill-opacity:1;fill-rule:nonzero;stroke:none;display:inline" />
  </g>
  <g
     id="layer1"
     style="display:none">
    <rect
       width="84"
       height="84"
       rx="6"
       ry="6"
       x="6"
       y="6"
       id="rect2419"
       style="fill:url(#linearGradient3706);fill-opacity:1;fill-rule:nonzero;stroke:none" />
    <path
       d="M 12,6 C 8.676,6 6,8.676 6,12 l 0,2 0,68 0,2 c 0,0.334721 0.04135,0.6507 0.09375,0.96875 0.0487,0.295596 0.09704,0.596915 0.1875,0.875 0.00988,0.03038 0.020892,0.0636 0.03125,0.09375 0.098865,0.287771 0.2348802,0.547452 0.375,0.8125 0.1445918,0.273507 0.3156161,0.535615 0.5,0.78125 0.1843839,0.245635 0.3737765,0.473472 0.59375,0.6875 0.439947,0.428056 0.94291,0.814526 1.5,1.09375 0.278545,0.139612 0.5734731,0.246947 0.875,0.34375 -0.2562018,-0.100222 -0.4867109,-0.236272 -0.71875,-0.375 -0.00741,-0.0044 -0.023866,0.0045 -0.03125,0 -0.031933,-0.0193 -0.062293,-0.04251 -0.09375,-0.0625 -0.120395,-0.0767 -0.2310226,-0.163513 -0.34375,-0.25 -0.1061728,-0.0808 -0.2132809,-0.161112 -0.3125,-0.25 C 8.4783201,88.557317 8.3087904,88.373362 8.15625,88.1875 8.0486711,88.057245 7.9378561,87.922215 7.84375,87.78125 7.818661,87.74287 7.805304,87.69538 7.78125,87.65625 7.716487,87.553218 7.6510225,87.451733 7.59375,87.34375 7.4927417,87.149044 7.3880752,86.928049 7.3125,86.71875 7.30454,86.69694 7.288911,86.6782 7.28125,86.65625 7.2494249,86.5643 7.2454455,86.469419 7.21875,86.375 7.1884177,86.268382 7.1483606,86.171969 7.125,86.0625 7.0521214,85.720988 7,85.364295 7,85 L 7,83 7,15 7,13 C 7,10.218152 9.2181517,8 12,8 l 2,0 68,0 2,0 c 2.781848,0 5,2.218152 5,5 l 0,2 0,68 0,2 c 0,0.364295 -0.05212,0.720988 -0.125,1.0625 -0.04415,0.206893 -0.08838,0.397658 -0.15625,0.59375 -0.0077,0.02195 -0.0233,0.04069 -0.03125,0.0625 -0.06274,0.173739 -0.138383,0.367449 -0.21875,0.53125 -0.04158,0.0828 -0.07904,0.169954 -0.125,0.25 -0.0546,0.09721 -0.126774,0.18835 -0.1875,0.28125 -0.09411,0.140965 -0.204921,0.275995 -0.3125,0.40625 -0.143174,0.17445 -0.303141,0.346998 -0.46875,0.5 -0.01117,0.0102 -0.01998,0.02115 -0.03125,0.03125 -0.138386,0.125556 -0.285091,0.234436 -0.4375,0.34375 -0.102571,0.07315 -0.204318,0.153364 -0.3125,0.21875 -0.0074,0.0045 -0.02384,-0.0044 -0.03125,0 -0.232039,0.138728 -0.462548,0.274778 -0.71875,0.375 0.301527,-0.0968 0.596455,-0.204138 0.875,-0.34375 0.55709,-0.279224 1.060053,-0.665694 1.5,-1.09375 0.219973,-0.214028 0.409366,-0.441865 0.59375,-0.6875 0.184384,-0.245635 0.355408,-0.507743 0.5,-0.78125 0.14012,-0.265048 0.276135,-0.524729 0.375,-0.8125 0.01041,-0.03078 0.02133,-0.06274 0.03125,-0.09375 0.09046,-0.278085 0.1388,-0.579404 0.1875,-0.875 C 89.95865,84.6507 90,84.334721 90,84 l 0,-2 0,-68 0,-2 C 90,8.676 87.324,6 84,6 L 12,6 z"
       inkscape:connector-curvature="0"
       id="rect3728"
       style="opacity:0.5;fill:url(#linearGradient3188);fill-opacity:1;fill-rule:nonzero;stroke:none" />
  </g>
  <rect
     style="fill:url(#linearGradient3861);fill-opacity:1;fill-rule:nonzero;stroke:none"
     id="rect8039"
     transform="matrix(0,1,-1,0,0,0)"
     y="-47.999996"
     x="48.000004"
     ry="6"
     rx="6"
     height="42"
     width="42" />
  <path
     style="opacity:0.3;fill:#ffffff;fill-opacity:1;fill-rule:nonzero;stroke:none"
     id="rect8166"
     inkscape:connector-curvature="0"
     d="m 12,48 c -3.324,0 -6,2.676 -6,6 l 0,30 c 0,3.324 2.676,6.000004 6,6 l 30,0 c 3.324,0 6,-2.675996 6,-6 l 0,-30 c 0,-3.324 -2.676,-6 -6,-6 l -30,0 z m 0,1 30,0 c 2.778924,0 5,2.221076 5,5 l 0,30 c 0,2.778929 -2.221075,5 -5,5 l -30,0 c -2.778922,3e-6 -5,-2.221076 -5,-5 L 7,54 c 0,-2.778924 2.221076,-5 5,-5 z" />
  <rect
     style="fill:url(#linearGradient3875);fill-opacity:1;fill-rule:nonzero;stroke:none"
     id="rect3971"
     transform="matrix(0,1,-1,0,0,0)"
     y="-90"
     x="48.000004"
     ry="6"
     rx="6"
     height="42"
     width="42" />
  <path
     style="opacity:0.2;fill:#ffffff;fill-opacity:1;fill-rule:nonzero;stroke:none"
     id="path3973"
     inkscape:connector-curvature="0"
     d="m 54,48 c -3.324,0 -6,2.676 -6,6 l 0,30 c 0,3.324 2.676,6.000004 6,6 l 30,0 c 3.324,0 6,-2.675996 6,-6 l 0,-30 c 0,-3.324 -2.676,-6 -6,-6 l -30,0 z m 0,1 30,0 c 2.778924,0 5,2.221076 5,5 l 0,30 c 0,2.778929 -2.221075,5 -5,5 l -30,0 c -2.778922,3e-6 -5,-2.221076 -5,-5 l 0,-30 c 0,-2.778924 2.221076,-5 5,-5 z" />
  <rect
     style="fill:url(#linearGradient3057);fill-opacity:1;fill-rule:nonzero;stroke:none"
     id="rect3983"
     transform="matrix(0,1,-1,0,0,0)"
     y="-90"
     x="6.0000038"
     ry="6"
     rx="6"
     height="42"
     width="42" />
  <path
     style="opacity:0.3;fill:#ffffff;fill-opacity:1;fill-rule:nonzero;stroke:none"
     id="path3985"
     inkscape:connector-curvature="0"
     d="m 54,6 c -3.324,0 -6,2.676 -6,6 l 0,30 c 0,3.324 2.676,6.000004 6,6 l 30,0 c 3.324,0 6,-2.675996 6,-6 L 90,12 C 90,8.676 87.324,6 84,6 L 54,6 z m 0,1 30,0 c 2.778924,0 5,2.221076 5,5 l 0,30 c 0,2.778929 -2.221075,5 -5,5 l -30,0 c -2.778922,3e-6 -5,-2.221076 -5,-5 l 0,-30 c 0,-2.778924 2.221076,-5 5,-5 z" />
  <rect
     style="fill:url(#linearGradient3053);fill-opacity:1;fill-rule:nonzero;stroke:none"
     id="rect3989"
     transform="matrix(0,1,-1,0,0,0)"
     y="-48"
     x="6.0000038"
     ry="6"
     rx="6"
     height="42"
     width="42" />
  <path
     style="opacity:0.2;fill:#ffffff;fill-opacity:1;fill-rule:nonzero;stroke:none"
     id="path3991"
     inkscape:connector-curvature="0"
     d="M 12,6 C 8.676,6 6,8.676 6,12 l 0,30 c 0,3.324 2.676,6.000004 6,6 l 30,0 c 3.324,0 6,-2.675996 6,-6 L 48,12 C 48,8.676 45.324,6 42,6 L 12,6 z m 0,1 30,0 c 2.778924,0 5,2.221076 5,5 l 0,30 c 0,2.778929 -2.221075,5 -5,5 l -30,0 c -2.778922,3e-6 -5,-2.221076 -5,-5 L 7,12 C 7,9.221076 9.221076,7 12,7 z" />
  <path
     style="opacity:0.1;fill:url(#linearGradient3049);fill-opacity:1;fill-rule:nonzero;stroke:none"
     id="path3995"
     inkscape:connector-curvature="0"
     d="m 12,48 c -3.324,0 -6,2.676 -6,6 l 0,30 c 0,2.984862 2.152831,5.434872 5,5.90625 C 8.713211,89.443131 7,87.431559 7,85 L 7,55 c 0,-2.778924 2.221076,-5 5,-5 l 30,0 c 2.778924,0 5,2.221076 5,5 l 0,30 c 0,2.431563 -1.71321,4.44313 -4,4.90625 C 45.847169,89.43487 48,86.984866 48,84 l 0,-30 c 0,-3.324 -2.676,-6 -6,-6 l -30,0 z" />
  <path
     style="opacity:0.1;fill:url(#linearGradient3046);fill-opacity:1;fill-rule:nonzero;stroke:none"
     id="path4005"
     inkscape:connector-curvature="0"
     d="m 54,6 c -3.324,0 -6,2.676 -6,6 l 0,30 c 0,2.984862 2.152831,5.434872 5,5.90625 C 50.713211,47.443131 49,45.431559 49,43 l 0,-30 c 0,-2.778924 2.221076,-5 5,-5 l 30,0 c 2.778924,0 5,2.221076 5,5 l 0,30 c 0,2.431563 -1.71321,4.44313 -4,4.90625 C 87.847169,47.43487 90,44.984866 90,42 L 90,12 C 90,8.676 87.324,6 84,6 L 54,6 z" />
  <path
     style="opacity:0.1;fill:url(#linearGradient3043);fill-opacity:1;fill-rule:nonzero;stroke:none"
     id="path4009"
     inkscape:connector-curvature="0"
     d="M 12,6 C 8.676,6 6,8.676 6,12 l 0,30 c 0,2.984862 2.152831,5.434872 5,5.90625 C 8.713211,47.443131 7,45.431559 7,43 L 7,13 C 7,10.221076 9.221076,8 12,8 l 30,0 c 2.778924,0 5,2.221076 5,5 l 0,30 c 0,2.431563 -1.71321,4.44313 -4,4.90625 C 45.847169,47.43487 48,44.984866 48,42 L 48,12 C 48,8.676 45.324,6 42,6 L 12,6 z" />
  <path
     style="opacity:0.1;fill:url(#linearGradient3040);fill-opacity:1;fill-rule:nonzero;stroke:none"
     id="path4013"
     inkscape:connector-curvature="0"
     d="m 54,48 c -3.324,0 -6,2.676 -6,6 l 0,30 c 0,2.984862 2.152831,5.434872 5,5.90625 C 50.713211,89.443131 49,87.431559 49,85 l 0,-30 c 0,-2.778924 2.221076,-5 5,-5 l 30,0 c 2.778924,0 5,2.221076 5,5 l 0,30 c 0,2.431563 -1.71321,4.44313 -4,4.90625 C 87.847169,89.43487 90,86.984866 90,84 l 0,-30 c 0,-3.324 -2.676,-6 -6,-6 l -30,0 z" />
  <rect
     style="opacity:0.9;fill:url(#linearGradient4202);fill-opacity:1;fill-rule:nonzero;stroke:none;display:none;filter:url(#filter3174)"
     id="rect3745"
     y="151.47438"
     x="-346.25403"
     ry="6"
     rx="6"
     height="85"
     width="86" />
  <rect
     style="fill:url(#linearGradient4140);fill-opacity:1;fill-rule:nonzero;stroke:none;display:none"
     id="rect3873"
     y="150.47438"
     x="-345.25403"
     ry="6"
     rx="6"
     height="84"
     width="84" />
  <rect
     style="fill:url(#linearGradient4137);fill-opacity:1;fill-rule:nonzero;stroke:none;display:none"
     id="rect3880"
     y="150.47438"
     x="-345.25403"
     ry="6"
     rx="6"
     height="84"
     width="84" />
  <g
     id="g4220"
     transform="matrix(0.53345532,0,0,0.53345532,239.68544,-24.972092)">
    <path
       inkscape:connector-curvature="0"
       d="m -307.06654,162.47438 c -3.03156,0 -5.4375,2.54173 -5.4375,5.5 l 0,1.5 c -0.40375,0.15655 -0.79124,0.35424 -1.1875,0.53125 l -1.09375,-1.09375 c -0.885,-0.885 -2.21163,-1.64268 -3.8125,-1.65625 -1.39814,-0.0119 -2.80684,0.52558 -3.875,1.59375 l -5.40625,5.40625 c -2.14781,2.14783 -2.00429,5.62048 0.0625,7.6875 l 1.09375,1.09375 c -0.17701,0.39626 -0.3747,0.78375 -0.53125,1.1875 l -1.5,0 c -2.95828,0 -5.5,2.40594 -5.5,5.4375 l 0,7.625 c 0,3.03156 2.54172,5.4375 5.5,5.4375 l 1.5,0 c 0.15655,0.40375 0.35424,0.79124 0.53125,1.1875 l -1.09375,1.09375 c -2.06699,2.06699 -2.2105,5.53971 -0.0625,7.6875 l 5.40625,5.40625 c 2.14776,2.14778 5.62044,2.00455 7.6875,-0.0625 l 1.09375,-1.09375 c 0.39626,0.17701 0.78375,0.3747 1.1875,0.53125 l 0,1.5 c 0,2.95827 2.40594,5.5 5.4375,5.5 l 7.625,0 c 3.03156,0 5.4375,-2.54172 5.4375,-5.5 l 0,-1.5 c 0.40375,-0.15655 0.79124,-0.35424 1.1875,-0.53125 l 1.09375,1.09375 c 2.06706,2.06707 5.53974,2.21026 7.6875,0.0625 l 5.40625,-5.40625 c 2.14781,-2.14783 2.0043,-5.62048 -0.0625,-7.6875 l -1.09375,-1.09375 c 0.17701,-0.39626 0.3747,-0.78375 0.53125,-1.1875 l 1.5,0 c 2.95827,0 5.5,-2.40593 5.5,-5.4375 l 0,-7.625 c 0,-3.03157 -2.54173,-5.4375 -5.5,-5.4375 l -1.5,0 c -0.15655,-0.40375 -0.35424,-0.79124 -0.53125,-1.1875 l 1.09375,-1.09375 c 2.06698,-2.06699 2.21053,-5.5397 0.0625,-7.6875 l -5.40625,-5.40625 c -2.14776,-2.14775 -5.62044,-2.00456 -7.6875,0.0625 l -1.09375,1.09375 c -0.39626,-0.17701 -0.78375,-0.3747 -1.1875,-0.53125 l 0,-1.5 c 0,-2.95828 -2.40594,-5.5 -5.4375,-5.5 l -7.625,0 z m 3.8125,26.1875 c 2.71709,0 4.8125,2.09542 4.8125,4.8125 0,2.71708 -2.09541,4.8125 -4.8125,4.8125 -2.71707,0 -4.8125,-2.09543 -4.8125,-4.8125 0,-2.71707 2.09543,-4.8125 4.8125,-4.8125 z"
       id="path3706"
       style="opacity:0.05;fill:#000000;fill-opacity:1;stroke:none;stroke-width:1;marker:none;visibility:visible;display:block;overflow:visible;enable-background:accumulate" />
    <path
       inkscape:connector-curvature="0"
       d="m -307.06654,163.50563 c -2.46546,0 -4.40625,2.05651 -4.40625,4.46875 l 0,2.1875 c -0.84674,0.30617 -1.67303,0.6425 -2.46875,1.03125 l -1.5625,-1.5625 c -0.72926,-0.72926 -1.80618,-1.33284 -3.09375,-1.34375 -1.14047,-0.01 -2.28851,0.41351 -3.15625,1.28125 l -5.40625,5.40625 c -1.74114,1.74116 -1.61817,4.56915 0.0625,6.25 l 1.5625,1.5625 c -0.38875,0.79571 -0.72507,1.62201 -1.03125,2.46875 l -2.1875,0 c -2.41224,0 -4.46875,1.94079 -4.46875,4.40625 l 0,7.625 c 0,2.46546 2.05651,4.40625 4.46875,4.40625 l 2.1875,0 c 0.30618,0.84674 0.6425,1.67303 1.03125,2.46875 l -1.5625,1.5625 c -1.68083,1.68083 -1.80379,4.50887 -0.0625,6.25 l 5.40625,5.40625 c 1.74111,1.74113 4.56912,1.61837 6.25,-0.0625 l 1.5625,-1.5625 c 0.79572,0.38875 1.62201,0.72508 2.46875,1.03125 l 0,2.1875 c 0,2.41224 1.94079,4.46875 4.40625,4.46875 l 7.625,0 c 2.46545,0 4.40625,-2.05651 4.40625,-4.46875 l 0,-2.1875 c 0.84674,-0.30617 1.67304,-0.6425 2.46875,-1.03125 l 1.5625,1.5625 c 1.68088,1.68088 4.50889,1.80361 6.25,0.0625 l 5.40625,-5.40625 c 1.74114,-1.74116 1.61817,-4.56915 -0.0625,-6.25 l -1.5625,-1.5625 c 0.38875,-0.79571 0.72508,-1.62201 1.03125,-2.46875 l 2.1875,0 c 2.41224,0 4.46875,-1.94079 4.46875,-4.40625 l 0,-7.625 c 0,-2.46546 -2.05651,-4.40625 -4.46875,-4.40625 l -2.1875,0 c -0.30617,-0.84674 -0.6425,-1.67304 -1.03125,-2.46875 l 1.5625,-1.5625 c 1.68082,-1.68082 1.80382,-4.50887 0.0625,-6.25 l -5.40625,-5.40625 c -1.74111,-1.7411 -4.56912,-1.61838 -6.25,0.0625 l -1.5625,1.5625 c -0.79571,-0.38875 -1.62201,-0.72508 -2.46875,-1.03125 l 0,-2.1875 c 0,-2.41225 -1.9408,-4.46875 -4.40625,-4.46875 l -7.625,0 z m 3.8125,24.125 c 3.25635,0 5.84375,2.58741 5.84375,5.84375 0,3.25634 -2.5874,5.84375 -5.84375,5.84375 -3.25633,0 -5.84375,-2.58741 -5.84375,-5.84375 0,-3.25634 2.58742,-5.84375 5.84375,-5.84375 z"
       id="path3702"
       style="opacity:0.07999998;fill:#000000;fill-opacity:1;stroke:none;stroke-width:1;marker:none;visibility:visible;display:block;overflow:visible;enable-background:accumulate" />
    <path
       inkscape:connector-curvature="0"
       d="m -307.06654,164.50563 c -1.8975,0 -3.40625,1.6003 -3.40625,3.46875 l 0,2.875 c -1.28277,0.41908 -2.5201,0.94925 -3.6875,1.5625 l -2.0625,-2.0625 c -0.58342,-0.58342 -1.41171,-1.05434 -2.375,-1.0625 -0.87648,-0.007 -1.76605,0.32854 -2.4375,1 l -5.40625,5.40625 c -1.33566,1.33568 -1.23757,3.51228 0.0625,4.8125 l 2.0625,2.0625 c -0.61325,1.1674 -1.14342,2.40473 -1.5625,3.6875 l -2.875,0 c -1.86845,0 -3.46875,1.50875 -3.46875,3.40625 l 0,7.625 c 0,1.8975 1.6003,3.40625 3.46875,3.40625 l 2.875,0 c 0.41908,1.28277 0.94925,2.5201 1.5625,3.6875 l -2.0625,2.0625 c -1.30019,1.3002 -1.39828,3.47685 -0.0625,4.8125 l 5.40625,5.40625 c 1.33564,1.33565 3.51227,1.23773 4.8125,-0.0625 l 2.0625,-2.0625 c 1.1674,0.61325 2.40473,1.14342 3.6875,1.5625 l 0,2.875 c 0,1.86845 1.50875,3.46875 3.40625,3.46875 l 7.625,0 c 1.8975,0 3.40625,-1.6003 3.40625,-3.46875 l 0,-2.875 c 1.28278,-0.41908 2.5201,-0.94925 3.6875,-1.5625 l 2.0625,2.0625 c 1.30023,1.30023 3.47686,1.39814 4.8125,0.0625 l 5.40625,-5.40625 c 1.33566,-1.33568 1.23758,-3.51229 -0.0625,-4.8125 l -2.0625,-2.0625 c 0.61325,-1.1674 1.14342,-2.40472 1.5625,-3.6875 l 2.875,0 c 1.86845,0 3.46875,-1.50874 3.46875,-3.40625 l 0,-7.625 c 0,-1.89751 -1.6003,-3.40625 -3.46875,-3.40625 l -2.875,0 c -0.41908,-1.28278 -0.94925,-2.5201 -1.5625,-3.6875 l 2.0625,-2.0625 c 1.30019,-1.30019 1.3983,-3.47685 0.0625,-4.8125 l -5.40625,-5.40625 c -1.33564,-1.33564 -3.51227,-1.23773 -4.8125,0.0625 l -2.0625,2.0625 c -1.1674,-0.61325 -2.40472,-1.14342 -3.6875,-1.5625 l 0,-2.875 c 0,-1.86846 -1.50875,-3.46875 -3.40625,-3.46875 l -7.625,0 z m 3.8125,22.125 c 3.79679,0 6.84375,3.04697 6.84375,6.84375 0,3.79678 -3.04696,6.84375 -6.84375,6.84375 -3.79677,0 -6.84375,-3.04697 -6.84375,-6.84375 0,-3.79678 3.04698,-6.84375 6.84375,-6.84375 z"
       id="path3698"
       style="opacity:0.2;fill:#000000;fill-opacity:1;stroke:none;stroke-width:1;marker:none;visibility:visible;display:block;overflow:visible;enable-background:accumulate" />
    <path
       inkscape:connector-curvature="0"
       d="m -307.06654,165.47438 c -1.36204,0 -2.4375,1.13763 -2.4375,2.5 l 0,3.5 c -1.71787,0.49094 -3.34906,1.20755 -4.875,2.0625 l -2.53125,-2.5 c -0.45629,-0.45628 -1.03162,-0.77569 -1.6875,-0.78125 -0.62972,-0.005 -1.26289,0.23163 -1.75,0.71875 l -5.40625,5.40625 c -0.96063,0.96064 -0.8927,2.4822 0.0625,3.4375 l 2.5,2.53125 c -0.85494,1.52593 -1.57155,3.15713 -2.0625,4.875 l -3.5,0 c -1.36237,0 -2.5,1.07546 -2.5,2.4375 l 0,7.625 c 0,1.36203 1.13763,2.4375 2.5,2.4375 l 3.5,0 c 0.49095,1.71787 1.20756,3.34906 2.0625,4.875 l -2.5,2.53125 c -0.95529,0.95529 -1.02322,2.47687 -0.0625,3.4375 l 5.40625,5.40625 c 0.96062,0.96063 2.4822,0.8928 3.4375,-0.0625 l 2.53125,-2.5 c 1.52594,0.85495 3.15713,1.57155 4.875,2.0625 l 0,3.5 c 0,1.36237 1.07546,2.5 2.4375,2.5 l 7.625,0 c 1.36203,0 2.4375,-1.13763 2.4375,-2.5 l 0,-3.5 c 1.71787,-0.49095 3.34906,-1.20755 4.875,-2.0625 l 2.53125,2.5 c 0.9553,0.95531 2.47687,1.02313 3.4375,0.0625 l 5.40625,-5.40625 c 0.96063,-0.96064 0.8927,-2.4822 -0.0625,-3.4375 l -2.5,-2.53125 c 0.85494,-1.52593 1.57155,-3.15712 2.0625,-4.875 l 3.5,0 c 1.36236,0 2.5,-1.07546 2.5,-2.4375 l 0,-7.625 c 0,-1.36204 -1.13764,-2.4375 -2.5,-2.4375 l -3.5,0 c -0.49094,-1.71788 -1.20756,-3.34907 -2.0625,-4.875 l 2.5,-2.53125 c 0.95529,-0.95529 1.02323,-2.47687 0.0625,-3.4375 l -5.40625,-5.40625 c -0.96063,-0.96063 -2.4822,-0.89281 -3.4375,0.0625 l -2.53125,2.5 c -1.52594,-0.85495 -3.15713,-1.57156 -4.875,-2.0625 l 0,-3.5 c 0,-1.36237 -1.07547,-2.5 -2.4375,-2.5 l -7.625,0 z m 3.8125,20.1875 c 4.31612,0 7.8125,3.49639 7.8125,7.8125 0,4.31611 -3.49638,7.8125 -7.8125,7.8125 -4.31611,0 -7.8125,-3.49639 -7.8125,-7.8125 0,-4.31611 3.49639,-7.8125 7.8125,-7.8125 z"
       id="path3694"
       style="opacity:0.3;fill:#000000;fill-opacity:1;stroke:none;stroke-width:1;marker:none;visibility:visible;display:block;overflow:visible;enable-background:accumulate" />
    <path
       d="m -307.05126,164.97448 c -1.08226,0 -1.95858,0.89778 -1.95858,1.99854 l 0,3.87716 c -1.93515,0.5156 -3.78418,1.2944 -5.47599,2.27834 l -2.75799,-2.75799 c -0.38918,-0.38917 -0.85537,-0.59529 -1.359,-0.59956 -0.50364,-0.004 -1.01635,0.17696 -1.39898,0.55959 l -5.39606,5.39606 c -0.76526,0.76527 -0.73838,1.97963 0.0399,2.75798 l 2.75799,2.75799 c -0.98394,1.6918 -1.76273,3.54084 -2.27834,5.476 l -3.87716,0 c -1.10076,0 -1.99854,0.87631 -1.99854,1.95856 l 0,7.59445 c 0,1.08226 0.89778,1.95857 1.99854,1.95857 l 3.87716,0 c 0.51561,1.93516 1.2944,3.7842 2.27834,5.476 l -2.75799,2.75799 c -0.77835,0.77835 -0.80523,1.99271 -0.0399,2.75798 l 5.39606,5.39606 c 0.76526,0.76527 1.97963,0.73837 2.75798,-0.04 l 2.75799,-2.75799 c 1.69181,0.98394 3.54084,1.76274 5.47599,2.27834 l 0,3.87716 c 0,1.10076 0.87632,1.99854 1.95858,1.99854 l 7.59445,0 c 1.08225,0 1.95856,-0.89778 1.95856,-1.99854 l 0,-3.87716 c 1.93515,-0.5156 3.78419,-1.2944 5.476,-2.27834 l 2.75799,2.75799 c 0.77834,0.77835 1.99271,0.80524 2.75798,0.04 l 5.39605,-5.39606 c 0.76527,-0.76527 0.73838,-1.97963 -0.0399,-2.75798 l -2.75797,-2.75799 c 0.98393,-1.6918 1.76273,-3.54084 2.27833,-5.476 l 3.87717,0 c 1.10074,0 1.99854,-0.87631 1.99854,-1.95857 l 0,-7.59445 c 0,-1.08225 -0.8978,-1.95856 -1.99854,-1.95856 l -3.87717,0 c -0.5156,-1.93516 -1.2944,-3.7842 -2.27833,-5.476 l 2.75798,-2.75799 c 0.77835,-0.77835 0.80524,-1.99271 0.0399,-2.75798 l -5.39605,-5.39606 c -0.76528,-0.76527 -1.97964,-0.73838 -2.75799,0.04 l -2.75799,2.75799 c -1.69181,-0.98394 -3.54085,-1.76274 -5.47599,-2.27834 l 0,-3.87716 c 0,-1.10076 -0.87632,-1.99854 -1.95857,-1.99854 l -7.59445,0 z m 3.79722,19.18598 c 4.58929,0 8.31392,3.72463 8.31392,8.31392 0,4.58929 -3.72463,8.31392 -8.31392,8.31392 -4.58928,0 -8.31393,-3.72463 -8.31393,-8.31392 0,-4.58929 3.72465,-8.31392 8.31393,-8.31392 z"
       inkscape:connector-curvature="0"
       id="rect3267"
       style="fill:url(#linearGradient4121);fill-opacity:1;fill-rule:nonzero;stroke:url(#linearGradient4123);stroke-width:1;stroke-linecap:butt;stroke-linejoin:round;stroke-miterlimit:4;stroke-opacity:1;stroke-dasharray:none;stroke-dashoffset:0;marker:none;visibility:visible;display:block;overflow:visible;enable-background:accumulate" />
    <path
       d="m -303.25404,175.207 c -9.52124,0 -17.26738,7.74614 -17.26738,17.26738 0,9.52123 7.74614,17.26738 17.26738,17.26738 9.52123,0 17.26738,-7.74615 17.26738,-17.26738 0,-9.52124 -7.74615,-17.26738 -17.26738,-17.26738 z"
       inkscape:connector-curvature="0"
       id="path28"
       style="fill:none;stroke:url(#linearGradient4118);stroke-width:2;stroke-miterlimit:4;stroke-dasharray:none" />
    <path
       d="m -303.25404,175.84653 c -9.16875,0 -16.62785,7.4591 -16.62785,16.62785 0,9.16875 7.4591,16.62785 16.62785,16.62785 9.16875,0 16.62785,-7.4591 16.62785,-16.62785 0,-9.16875 -7.4591,-16.62785 -16.62785,-16.62785 z m 0,7.67439 c 4.9423,0 8.95346,4.01115 8.95346,8.95346 0,4.94231 -4.01116,8.95346 -8.95346,8.95346 -4.94231,0 -8.95346,-4.01115 -8.95346,-8.95346 0,-4.94231 4.01115,-8.95346 8.95346,-8.95346 z"
       inkscape:connector-curvature="0"
       id="path3315"
       style="opacity:0.05;fill:#000000;fill-opacity:1;stroke:none" />
  </g>
</svg>
