<?xml version="1.0" encoding="UTF-8" standalone="no"?>
<!-- Created with Inkscape (http://www.inkscape.org/) -->

<svg
   xmlns:dc="http://purl.org/dc/elements/1.1/"
   xmlns:cc="http://creativecommons.org/ns#"
   xmlns:rdf="http://www.w3.org/1999/02/22-rdf-syntax-ns#"
   xmlns:svg="http://www.w3.org/2000/svg"
   xmlns="http://www.w3.org/2000/svg"
   xmlns:xlink="http://www.w3.org/1999/xlink"
   xmlns:sodipodi="http://sodipodi.sourceforge.net/DTD/sodipodi-0.dtd"
   xmlns:inkscape="http://www.inkscape.org/namespaces/inkscape"
   version="1.0"
   width="96"
   height="96"
   id="svg2408"
   inkscape:version="0.48.1 r9760"
   sodipodi:docname="evoluspencil.svg">
  <sodipodi:namedview
     pagecolor="#ffffff"
     bordercolor="#666666"
     borderopacity="1"
     objecttolerance="10"
     gridtolerance="10"
     guidetolerance="10"
     inkscape:pageopacity="0"
     inkscape:pageshadow="2"
     inkscape:window-width="1600"
     inkscape:window-height="826"
     id="namedview53"
     showgrid="false"
     inkscape:zoom="2.1434175"
     inkscape:cx="-13.39769"
     inkscape:cy="21.366821"
     inkscape:window-x="0"
     inkscape:window-y="25"
     inkscape:window-maximized="1"
     inkscape:current-layer="svg2408" />
  <defs
     id="defs2410">
    <linearGradient
       id="linearGradient3867">
      <stop
         style="stop-color:#e7e7e7;stop-opacity:1;"
         offset="0"
         id="stop3869" />
      <stop
         id="stop3875"
         offset="0.5"
         style="stop-color:#ffffff;stop-opacity:1;" />
      <stop
         style="stop-color:#e7e7e7;stop-opacity:1;"
         offset="1"
         id="stop3871" />
    </linearGradient>
    <linearGradient
       id="linearGradient3859">
      <stop
         style="stop-color:#1e1e1e;stop-opacity:1;"
         offset="0"
         id="stop3861" />
      <stop
         style="stop-color:#000000;stop-opacity:1;"
         offset="1"
         id="stop3863" />
    </linearGradient>
    <linearGradient
       id="linearGradient3851">
      <stop
         style="stop-color:#c0aa8b;stop-opacity:1;"
         offset="0"
         id="stop3853" />
      <stop
         style="stop-color:#9e7546;stop-opacity:0.99215686;"
         offset="1"
         id="stop3855" />
    </linearGradient>
    <linearGradient
       id="linearGradient3833">
      <stop
         style="stop-color:#ffbf00;stop-opacity:1;"
         offset="0"
         id="stop3835" />
      <stop
         style="stop-color:#ff8c00;stop-opacity:1;"
         offset="1"
         id="stop3837" />
    </linearGradient>
    <linearGradient
       id="linearGradient3825">
      <stop
         style="stop-color:#dcdce5;stop-opacity:1;"
         offset="0"
         id="stop3827" />
      <stop
         style="stop-color:#808080;stop-opacity:1;"
         offset="1"
         id="stop3829" />
    </linearGradient>
    <linearGradient
       id="linearGradient3817">
      <stop
         style="stop-color:#f9738b;stop-opacity:1;"
         offset="0"
         id="stop3819" />
      <stop
         style="stop-color:#803251;stop-opacity:1;"
         offset="1"
         id="stop3821" />
    </linearGradient>
    <linearGradient
       x1="45.447727"
       y1="92.539597"
       x2="45.447727"
       y2="7.0165396"
       id="ButtonShadow"
       gradientUnits="userSpaceOnUse"
       gradientTransform="scale(1.0058652,0.994169)">
      <stop
         id="stop3750"
         style="stop-color:#000000;stop-opacity:1"
         offset="0" />
      <stop
         id="stop3752"
         style="stop-color:#000000;stop-opacity:0.58823532"
         offset="1" />
    </linearGradient>
    <linearGradient
       id="linearGradient3737">
      <stop
         id="stop3739"
         style="stop-color:#fffac8;stop-opacity:1"
         offset="0" />
      <stop
         id="stop3741"
         style="stop-color:#feff67;stop-opacity:0"
         offset="1" />
    </linearGradient>
    <linearGradient
       id="linearGradient3700">
      <stop
         id="stop3702"
         style="stop-color:#da4714;stop-opacity:1"
         offset="0" />
      <stop
         id="stop3704"
         style="stop-color:#ee743e;stop-opacity:1"
         offset="1" />
    </linearGradient>
    <filter
       color-interpolation-filters="sRGB"
       id="filter3174">
      <feGaussianBlur
         id="feGaussianBlur3176"
         stdDeviation="1.71" />
    </filter>
    <linearGradient
       x1="36.357143"
       y1="6"
       x2="36.357143"
       y2="63.893143"
       id="linearGradient3188"
       xlink:href="#linearGradient3737"
       gradientUnits="userSpaceOnUse" />
    <filter
       x="-0.192"
       y="-0.192"
       width="1.3839999"
       height="1.3839999"
       color-interpolation-filters="sRGB"
       id="filter3794">
      <feGaussianBlur
         id="feGaussianBlur3796"
         stdDeviation="5.28" />
    </filter>
    <linearGradient
       x1="48"
       y1="20.220806"
       x2="48"
       y2="138.66119"
       id="linearGradient3613"
       xlink:href="#linearGradient3737"
       gradientUnits="userSpaceOnUse" />
    <radialGradient
       cx="48"
       cy="90.171875"
       r="42"
       fx="48"
       fy="90.171875"
       id="radialGradient3619"
       xlink:href="#linearGradient3737"
       gradientUnits="userSpaceOnUse"
       gradientTransform="matrix(1.1573129,0,0,0.99590774,-7.5510206,0.19713193)" />
    <clipPath
       id="clipPath3613">
      <rect
         width="84"
         height="84"
         rx="6"
         ry="6"
         x="6"
         y="6"
         id="rect3615"
         style="fill:#ffffff;fill-opacity:1;fill-rule:nonzero;stroke:none" />
    </clipPath>
    <linearGradient
       x1="48"
       y1="90"
       x2="48"
       y2="5.9877172"
       id="linearGradient3617"
       xlink:href="#linearGradient3700"
       gradientUnits="userSpaceOnUse" />
    <linearGradient
       x1="45.447727"
       y1="92.539597"
       x2="45.447727"
       y2="7.0165396"
       id="ButtonShadow-0"
       gradientUnits="userSpaceOnUse"
       gradientTransform="matrix(1.0058652,0,0,0.994169,100,0)">
      <stop
         id="stop3750-8"
         style="stop-color:#000000;stop-opacity:1"
         offset="0" />
      <stop
         id="stop3752-5"
         style="stop-color:#000000;stop-opacity:0.58823532"
         offset="1" />
    </linearGradient>
    <linearGradient
       x1="32.251034"
       y1="6.1317081"
       x2="32.251034"
       y2="90.238609"
       id="linearGradient3780"
       xlink:href="#ButtonShadow-0"
       gradientUnits="userSpaceOnUse"
       gradientTransform="matrix(1.0238095,0,0,1.0119048,-1.1428571,-98.071429)" />
    <linearGradient
       x1="32.251034"
       y1="6.1317081"
       x2="32.251034"
       y2="90.238609"
       id="linearGradient3772"
       xlink:href="#ButtonShadow-0"
       gradientUnits="userSpaceOnUse"
       gradientTransform="matrix(1.0238095,0,0,1.0119048,-1.1428571,-98.071429)" />
    <linearGradient
       x1="32.251034"
       y1="6.1317081"
       x2="32.251034"
       y2="90.238609"
       id="linearGradient3725"
       xlink:href="#ButtonShadow-0"
       gradientUnits="userSpaceOnUse"
       gradientTransform="matrix(1.0238095,0,0,1.0119048,-1.1428571,-98.071429)" />
    <linearGradient
       x1="32.251034"
       y1="6.1317081"
       x2="32.251034"
       y2="90.238609"
       id="linearGradient3721"
       xlink:href="#ButtonShadow-0"
       gradientUnits="userSpaceOnUse"
       gradientTransform="translate(0,-97)" />
    <linearGradient
       x1="32.251034"
       y1="6.1317081"
       x2="32.251034"
       y2="90.238609"
       id="linearGradient3026"
       xlink:href="#ButtonShadow-0"
       gradientUnits="userSpaceOnUse"
       gradientTransform="matrix(1.0238095,0,0,1.0119048,-1.1428571,-98.071429)" />
    <linearGradient
       inkscape:collect="always"
       xlink:href="#linearGradient3737"
       id="linearGradient3039"
       gradientUnits="userSpaceOnUse"
       x1="36.357143"
       y1="6"
       x2="36.357143"
       y2="63.893143" />
    <linearGradient
       inkscape:collect="always"
       xlink:href="#linearGradient3737-7"
       id="linearGradient3332"
       gradientUnits="userSpaceOnUse"
       x1="48"
       y1="20.220806"
       x2="48"
       y2="138.66119" />
    <linearGradient
       id="linearGradient3737-7">
      <stop
         offset="0"
         style="stop-color:#ffffff;stop-opacity:1"
         id="stop3739-7" />
      <stop
         offset="1"
         style="stop-color:#ffffff;stop-opacity:0"
         id="stop3741-6" />
    </linearGradient>
    <clipPath
       id="clipPath3613-7">
      <rect
         style="fill:#ffffff;fill-opacity:1;fill-rule:nonzero;stroke:none"
         id="rect3615-3"
         y="6"
         x="6"
         ry="6"
         rx="6"
         height="84"
         width="84" />
    </clipPath>
    <filter
       id="filter3794-6"
       color-interpolation-filters="sRGB"
       height="1.3839999"
       width="1.3839999"
       y="-0.192"
       x="-0.192">
      <feGaussianBlur
         stdDeviation="5.28"
         id="feGaussianBlur3796-5" />
    </filter>
    <linearGradient
       y2="138.66119"
       x2="48"
       y1="20.220806"
       x1="48"
       gradientUnits="userSpaceOnUse"
       id="linearGradient18538"
       xlink:href="#linearGradient3737-7"
       inkscape:collect="always" />
    <linearGradient
       inkscape:collect="always"
       xlink:href="#linearGradient3700"
       id="linearGradient7551"
       gradientUnits="userSpaceOnUse"
       gradientTransform="translate(20.453608,114.14433)"
       x1="48"
       y1="90"
       x2="48"
       y2="5.9877172" />
    <linearGradient
       inkscape:collect="always"
       xlink:href="#linearGradient3700"
       id="linearGradient7553"
       gradientUnits="userSpaceOnUse"
       gradientTransform="translate(20.453608,114.14433)"
       x1="48"
       y1="90"
       x2="48"
       y2="5.9877172" />
    <linearGradient
       inkscape:collect="always"
       xlink:href="#ButtonShadow-0"
       id="linearGradient7688"
       gradientUnits="userSpaceOnUse"
       gradientTransform="matrix(1,0,0,-1,0,97)"
       x1="32.251034"
       y1="6.1317081"
       x2="32.251034"
       y2="90.238609" />
    <linearGradient
       inkscape:collect="always"
       xlink:href="#ButtonShadow-0"
       id="linearGradient7694"
       gradientUnits="userSpaceOnUse"
       gradientTransform="matrix(1.0238095,0,0,-1.0119048,-1.1428571,98.071429)"
       x1="32.251034"
       y1="6.1317081"
       x2="32.251034"
       y2="90.238609" />
    <linearGradient
       inkscape:collect="always"
       xlink:href="#ButtonShadow-0"
       id="linearGradient7697"
       gradientUnits="userSpaceOnUse"
       gradientTransform="matrix(1.0238095,0,0,-1.0119048,-1.1428571,98.071429)"
       x1="32.251034"
       y1="6.1317081"
       x2="32.251034"
       y2="90.238609" />
    <linearGradient
       inkscape:collect="always"
       xlink:href="#ButtonShadow-0"
       id="linearGradient7700"
       gradientUnits="userSpaceOnUse"
       gradientTransform="matrix(1.0238095,0,0,-1.0119048,-1.1428571,98.071429)"
       x1="32.251034"
       y1="6.1317081"
       x2="32.251034"
       y2="90.238609" />
    <linearGradient
       inkscape:collect="always"
       xlink:href="#ButtonShadow-0"
       id="linearGradient7712"
       gradientUnits="userSpaceOnUse"
       gradientTransform="matrix(1.0238095,0,0,-1.0119048,-1.1428571,98.071429)"
       x1="32.251034"
       y1="6.1317081"
       x2="32.251034"
       y2="90.238609" />
    <linearGradient
       inkscape:collect="always"
       xlink:href="#linearGradient3700"
       id="linearGradient7765"
       gradientUnits="userSpaceOnUse"
       gradientTransform="translate(-244.48455,-30.33732)"
       x1="48"
       y1="90"
       x2="48"
       y2="5.9877172" />
    <linearGradient
       inkscape:collect="always"
       xlink:href="#linearGradient3700"
       id="linearGradient7768"
       gradientUnits="userSpaceOnUse"
       gradientTransform="translate(-244.48455,-30.33732)"
       x1="48"
       y1="90"
       x2="48"
       y2="5.9877172" />
    <linearGradient
       inkscape:collect="always"
       xlink:href="#linearGradient3817"
       id="linearGradient3823"
       x1="6"
       y1="11.234375"
       x2="90"
       y2="11.234375"
       gradientUnits="userSpaceOnUse" />
    <linearGradient
       inkscape:collect="always"
       xlink:href="#linearGradient3825"
       id="linearGradient3831"
       x1="6"
       y1="20.109375"
       x2="90"
       y2="20.109375"
       gradientUnits="userSpaceOnUse" />
    <linearGradient
       inkscape:collect="always"
       xlink:href="#linearGradient3833"
       id="linearGradient3839"
       x1="6"
       y1="34.3125"
       x2="90"
       y2="34.3125"
       gradientUnits="userSpaceOnUse" />
    <linearGradient
       inkscape:collect="always"
       xlink:href="#linearGradient3851"
       id="linearGradient3857"
       x1="6"
       y1="71.890625"
       x2="90"
       y2="71.890625"
       gradientUnits="userSpaceOnUse" />
    <linearGradient
       inkscape:collect="always"
       xlink:href="#linearGradient3859"
       id="linearGradient3865"
       x1="34.4375"
       y1="85.578125"
       x2="61.5625"
       y2="85.578125"
       gradientUnits="userSpaceOnUse" />
    <linearGradient
       inkscape:collect="always"
       xlink:href="#linearGradient3867"
       id="linearGradient3873"
       x1="15.56417"
       y1="20.109375"
       x2="24.917021"
       y2="20.109375"
       gradientUnits="userSpaceOnUse" />
  </defs>
  <metadata
     id="metadata2413">
    <rdf:RDF>
      <cc:Work
         rdf:about="">
        <dc:format>image/svg+xml</dc:format>
        <dc:type
           rdf:resource="http://purl.org/dc/dcmitype/StillImage" />
        <dc:title />
      </cc:Work>
    </rdf:RDF>
  </metadata>
  <g
     id="layer2"
     style="display:none">
    <rect
       width="86"
       height="85"
       rx="6"
       ry="6"
       x="5"
       y="7"
       id="rect3745"
       style="opacity:0.9;fill:url(#ButtonShadow);fill-opacity:1;fill-rule:nonzero;stroke:none;filter:url(#filter3174)" />
  </g>
  <path
     style="opacity:0.07999998000000000;fill:url(#linearGradient7700);fill-opacity:1;fill-rule:nonzero;stroke:none;display:inline"
     d="M 12 3.96875 C 7.4335241 3.96875 3.5730264 7.0821579 2.375 11.28125 L 2.375 13.75 L 2.375 21.65625 L 2.375 63.875 L 33.28125 84.03125 L 48 93.625 L 62.71875 84.03125 L 93.625 63.875 L 93.625 21.65625 L 93.625 13.75 L 93.625 11.28125 C 92.426974 7.0821579 88.566476 3.96875 84 3.96875 L 12 3.96875 z "
     id="path3786" />
  <path
     style="opacity:0.10000000000000001;fill:url(#linearGradient7697);fill-opacity:1;fill-rule:nonzero;stroke:none;display:inline"
     d="M 2.96875 63.90625 L 41.375 88.90625 L 45.5625 91.6875 L 48 93.28125 L 62.625 83.75 L 93.03125 63.90625 L 93.03125 14 C 93.03125 9.028367 88.971633 4.96875 84 4.96875 L 12 4.96875 C 7.0283671 4.96875 2.96875 9.0283671 2.96875 14 L 2.96875 63.90625 z "
     id="path3778" />
  <path
     style="opacity:0.20000000000000001;fill:url(#linearGradient7694);fill-opacity:1;fill-rule:nonzero;stroke:none;display:inline"
     d="M 4 64.34375 L 41.40625 88.71875 L 45.59375 91.46875 L 47.9375 93 L 48.0625 93 L 62.53125 83.5625 L 92 64.375 L 92 14 C 92 9.5908667 88.409133 6 84 6 L 12 6 C 7.5908667 6 4 9.5908667 4 14 L 4 64.34375 z "
     id="path3770" />
  <path
     style="opacity:0.3;fill:url(#linearGradient7712);fill-opacity:1;fill-rule:nonzero;stroke:none;display:inline"
     d="M 5,64.78125 41.4375,88.5 45.59375,91.21875 46.78125,92 47.995784,92.641499 49.25,92 62.46875,83.375 91,64.78125 91,14 C 91,10.122 87.878,7 84,7 L 12,7 C 8.122,7 5,10.122 5,14 z"
     id="rect3723"
     inkscape:connector-curvature="0"
     sodipodi:nodetypes="ccccccccssssc" />
  <path
     style="opacity:0.45000000000000001;fill:url(#linearGradient7688);fill-opacity:1;fill-rule:nonzero;stroke:none;display:inline"
     d="M 6 13 L 6 62.625 L 41.84375 85.96875 L 45.75 88.53125 L 48 90 L 61.5625 81.15625 L 90 62.625 L 90 13 C 90 9.676 87.324 7 84 7 L 12 7 C 8.676 7 6 9.676 6 13 z "
     id="rect3716" />
  <path
     style="fill:#1e1e1e;fill-opacity:1;fill-rule:nonzero;stroke:none"
     d="M 12 6 C 8.676 6 6 8.676 6 12 L 6 62.625 L 41.84375 85.96875 L 45.75 88.53125 L 48 90 L 61.5625 81.15625 L 90 62.625 L 90 12 C 90 8.676 87.324 6 84 6 L 12 6 z "
     id="rect2419" />
  <path
     style="opacity:0.35;fill:url(#linearGradient3039);fill-opacity:1;fill-rule:nonzero;stroke:none"
     id="rect3728"
     inkscape:connector-curvature="0"
     d="M 12,6 C 8.676,6 6,8.676 6,12 l 0,2 0,68 0,2 c 0,0.334721 0.04135,0.6507 0.09375,0.96875 0.0487,0.295596 0.09704,0.596915 0.1875,0.875 0.00988,0.03038 0.020892,0.0636 0.03125,0.09375 0.098865,0.287771 0.2348802,0.547452 0.375,0.8125 0.1445918,0.273507 0.3156161,0.535615 0.5,0.78125 0.1843839,0.245635 0.3737765,0.473472 0.59375,0.6875 0.439947,0.428056 0.94291,0.814526 1.5,1.09375 0.278545,0.139612 0.5734731,0.246947 0.875,0.34375 -0.2562018,-0.100222 -0.4867109,-0.236272 -0.71875,-0.375 -0.00741,-0.0044 -0.023866,0.0045 -0.03125,0 -0.031933,-0.0193 -0.062293,-0.04251 -0.09375,-0.0625 -0.120395,-0.0767 -0.2310226,-0.163513 -0.34375,-0.25 -0.1061728,-0.0808 -0.2132809,-0.161112 -0.3125,-0.25 C 8.4783201,88.557317 8.3087904,88.373362 8.15625,88.1875 8.0486711,88.057245 7.9378561,87.922215 7.84375,87.78125 7.818661,87.74287 7.805304,87.69538 7.78125,87.65625 7.716487,87.553218 7.6510225,87.451733 7.59375,87.34375 7.4927417,87.149044 7.3880752,86.928049 7.3125,86.71875 7.30454,86.69694 7.288911,86.6782 7.28125,86.65625 7.2494249,86.5643 7.2454455,86.469419 7.21875,86.375 7.1884177,86.268382 7.1483606,86.171969 7.125,86.0625 7.0521214,85.720988 7,85.364295 7,85 L 7,83 7,15 7,13 C 7,10.218152 9.2181517,8 12,8 l 2,0 68,0 2,0 c 2.781848,0 5,2.218152 5,5 l 0,2 0,68 0,2 c 0,0.364295 -0.05212,0.720988 -0.125,1.0625 -0.04415,0.206893 -0.08838,0.397658 -0.15625,0.59375 -0.0077,0.02195 -0.0233,0.04069 -0.03125,0.0625 -0.06274,0.173739 -0.138383,0.367449 -0.21875,0.53125 -0.04158,0.0828 -0.07904,0.169954 -0.125,0.25 -0.0546,0.09721 -0.126774,0.18835 -0.1875,0.28125 -0.09411,0.140965 -0.204921,0.275995 -0.3125,0.40625 -0.143174,0.17445 -0.303141,0.346998 -0.46875,0.5 -0.01117,0.0102 -0.01998,0.02115 -0.03125,0.03125 -0.138386,0.125556 -0.285091,0.234436 -0.4375,0.34375 -0.102571,0.07315 -0.204318,0.153364 -0.3125,0.21875 -0.0074,0.0045 -0.02384,-0.0044 -0.03125,0 -0.232039,0.138728 -0.462548,0.274778 -0.71875,0.375 0.301527,-0.0968 0.596455,-0.204138 0.875,-0.34375 0.55709,-0.279224 1.060053,-0.665694 1.5,-1.09375 0.219973,-0.214028 0.409366,-0.441865 0.59375,-0.6875 0.184384,-0.245635 0.355408,-0.507743 0.5,-0.78125 0.14012,-0.265048 0.276135,-0.524729 0.375,-0.8125 0.01041,-0.03078 0.02133,-0.06274 0.03125,-0.09375 0.09046,-0.278085 0.1388,-0.579404 0.1875,-0.875 C 89.95865,84.6507 90,84.334721 90,84 l 0,-2 0,-68 0,-2 C 90,8.676 87.324,6 84,6 L 12,6 z" />
  <path
     inkscape:connector-curvature="0"
     style="fill:url(#linearGradient3865);fill-opacity:1;fill-rule:nonzero;stroke:none"
     d="m 61.5625,81.15625 -27.125,0 L 48,90 61.5625,81.15625 z"
     id="path7443" />
  <path
     inkscape:connector-curvature="0"
     style="fill:url(#linearGradient3857);fill-opacity:1;fill-rule:nonzero;stroke:none"
     d="m 6,62.625 28.4375,18.53125 27.125,0 L 90,62.625 l -84,0 z"
     id="path7432" />
  <path
     inkscape:connector-curvature="0"
     id="path7445"
     d="M 12,6 C 8.676,6 6,8.676 6,12 l 0,50.625 84,0 L 90,12 C 90,8.676 87.324,6 84,6 L 12,6 z"
     style="fill:url(#linearGradient3839);fill-opacity:1;fill-rule:nonzero;stroke:none" />
  <path
     inkscape:connector-curvature="0"
     style="fill:url(#linearGradient3831);fill-opacity:1;fill-rule:nonzero;stroke:none"
     d="m 6,16.46875 0,7.28125 84,0 0,-7.28125 -84,0 z"
     id="path7454" />
  <path
     inkscape:connector-curvature="0"
     style="fill:url(#linearGradient3823);fill-opacity:1;fill-rule:nonzero;stroke:none"
     d="M 12,6 C 8.676,6 6,8.676 6,12 l 0,4.46875 84,0 L 90,12 C 90,8.676 87.324,6 84,6 L 12,6 z"
     id="path7447" />
  <path
     inkscape:connector-curvature="0"
     style="fill:#000000;fill-opacity:1;fill-rule:nonzero;stroke:none"
     d="m 57.625,81.15625 c -0.41156,0.70901 -0.68113,1.49587 -1.125,2.1875 -0.54782,0.8536 -1.2054,1.48347 -1.78125,2.28125 l 6.84375,-4.46875 -3.9375,0 z"
     id="path7463" />
  <path
     inkscape:connector-curvature="0"
     style="fill:#9e7546;fill-opacity:0.99215686;fill-rule:nonzero;stroke:none"
     d="m 64.71875,62.625 c -0.13743,0.62554 -0.19117,1.2868 -0.34375,1.90625 -0.82762,3.36007 -1.88111,6.60522 -3.1875,9.75 -0.99144,2.38661 -2.26697,4.64313 -3.5625,6.875 l 3.9375,0 L 90,62.625 l -25.28125,0 z"
     id="path7465" />
  <path
     inkscape:connector-curvature="0"
     style="fill:#ff8c00;fill-opacity:1;fill-rule:nonzero;stroke:none"
     d="m 62.25,6 c 0.38437,1.65836 0.80804,3.27985 1.15625,4.96875 0.72695,3.52591 1.34705,7.13585 1.875,10.75 0.52795,3.61415 0.94576,7.23331 1.21875,10.875 0.27299,3.64169 0.41293,7.29773 0.375,10.90625 -0.0379,3.60852 -0.25146,7.17285 -0.65625,10.6875 -0.33017,2.8667 -0.89197,5.66992 -1.5,8.4375 L 90,62.625 90,12 C 90,8.676 87.324,6 84,6 L 62.25,6 z"
     id="path7467" />
  <path
     inkscape:connector-curvature="0"
     style="fill:#808080;fill-opacity:1;fill-rule:nonzero;stroke:none"
     d="m 64.375,16.46875 c 0.3086,1.74718 0.6485,3.48549 0.90625,5.25 0.0986,0.67473 0.12828,1.3547 0.21875,2.03125 l 24.5,0 0,-7.28125 -25.625,0 z"
     id="path7469" />
  <path
     inkscape:connector-curvature="0"
     style="fill:#803251;fill-opacity:1;fill-rule:nonzero;stroke:none"
     d="m 62.25,6 c 0.38437,1.65836 0.80804,3.27985 1.15625,4.96875 0.37204,1.80448 0.64526,3.66853 0.96875,5.5 l 25.625,0 L 90,12 C 90,8.676 87.324,6 84,6 L 62.25,6 z"
     id="path7471" />
  <path
     inkscape:connector-curvature="0"
     style="fill:#7b7b7b;fill-opacity:1;fill-rule:nonzero;stroke:none"
     d="m 40.5,81.15625 c 0.54796,1.457 1.04653,3.0576 1.34375,4.8125 l 3.90625,2.5625 -1.90625,-7.375 -3.34375,0 z"
     id="path7528" />
  <path
     id="path7523"
     d="m 15.56417,16.46875 0,7.28125 9.35285,0 0,-7.28125 -9.35285,0 z"
     style="fill:url(#linearGradient3873);fill-opacity:1.0;fill-rule:nonzero;stroke:none"
     inkscape:connector-curvature="0" />
  <rect
     style="opacity:0.1;fill:url(#linearGradient18538);fill-opacity:1;fill-rule:nonzero;stroke:#ffffff;stroke-width:0.5;stroke-linecap:round;stroke-linejoin:miter;stroke-miterlimit:4;stroke-opacity:1;stroke-dasharray:none;stroke-dashoffset:0;filter:url(#filter3794-6)"
     id="rect3171-6"
     clip-path="url(#clipPath3613-7)"
     y="15"
     x="15"
     ry="12"
     rx="12"
     height="66"
     width="66"
     transform="translate(-130.16597,0)" />
</svg>
