<?xml version="1.0" encoding="UTF-8" standalone="no"?>
<!-- Created with Inkscape (http://www.inkscape.org/) -->

<svg
   xmlns:dc="http://purl.org/dc/elements/1.1/"
   xmlns:cc="http://creativecommons.org/ns#"
   xmlns:rdf="http://www.w3.org/1999/02/22-rdf-syntax-ns#"
   xmlns:svg="http://www.w3.org/2000/svg"
   xmlns="http://www.w3.org/2000/svg"
   xmlns:xlink="http://www.w3.org/1999/xlink"
   xmlns:sodipodi="http://sodipodi.sourceforge.net/DTD/sodipodi-0.dtd"
   xmlns:inkscape="http://www.inkscape.org/namespaces/inkscape"
   version="1.0"
   width="96"
   height="96"
   id="svg2408"
   inkscape:version="0.48.1 r9760"
   sodipodi:docname="1nexuiz.svg"
   inkscape:export-filename="/media/Daten/projekte/ICONS/Faenza-Fresh/apps v0.2/nexuiz.png"
   inkscape:export-xdpi="45"
   inkscape:export-ydpi="45">
  <sodipodi:namedview
     pagecolor="#ffffff"
     bordercolor="#666666"
     borderopacity="1"
     objecttolerance="10"
     gridtolerance="10"
     guidetolerance="10"
     inkscape:pageopacity="0"
     inkscape:pageshadow="2"
     inkscape:window-width="482"
     inkscape:window-height="376"
     id="namedview61"
     showgrid="false"
     inkscape:zoom="2.0000001"
     inkscape:cx="41.730387"
     inkscape:cy="44.44889"
     inkscape:window-x="140"
     inkscape:window-y="143"
     inkscape:window-maximized="0"
     inkscape:current-layer="svg2408"
     inkscape:snap-bbox="true"
     inkscape:bbox-paths="true"
     inkscape:bbox-nodes="true"
     inkscape:snap-bbox-midpoints="true"
     inkscape:snap-bbox-edge-midpoints="true" />
  <defs
     id="defs2410">
    <linearGradient
       id="linearGradient3863">
      <stop
         offset="0"
         style="stop-color:#0a2b7f;stop-opacity:1;"
         id="stop3865" />
      <stop
         offset="1"
         style="stop-color:#91bffe;stop-opacity:1;"
         id="stop3867" />
    </linearGradient>
    <linearGradient
       id="linearGradient4085">
      <stop
         id="stop4087"
         style="stop-color:#782121;stop-opacity:1"
         offset="0" />
      <stop
         id="stop4089"
         style="stop-color:#782121;stop-opacity:0"
         offset="1" />
    </linearGradient>
    <linearGradient
       id="linearGradient3694">
      <stop
         id="stop3696"
         style="stop-color:#e6e6e6;stop-opacity:1"
         offset="0" />
      <stop
         id="stop3698"
         style="stop-color:#f5f5f5;stop-opacity:1"
         offset="1" />
    </linearGradient>
    <linearGradient
       id="linearGradient3688">
      <stop
         id="stop3690"
         style="stop-color:#ad0d0d;stop-opacity:1"
         offset="0" />
      <stop
         id="stop3692"
         style="stop-color:#e02f11;stop-opacity:1"
         offset="1" />
    </linearGradient>
    <linearGradient
       x1="45.447727"
       y1="92.539597"
       x2="45.447727"
       y2="7.0165396"
       id="ButtonShadow"
       gradientUnits="userSpaceOnUse"
       gradientTransform="scale(1.0058652,0.994169)">
      <stop
         id="stop3750"
         style="stop-color:#000000;stop-opacity:1"
         offset="0" />
      <stop
         id="stop3752"
         style="stop-color:#000000;stop-opacity:0.58823532"
         offset="1" />
    </linearGradient>
    <linearGradient
       id="linearGradient3737">
      <stop
         id="stop3739"
         style="stop-color:#ffffff;stop-opacity:1"
         offset="0" />
      <stop
         id="stop3741"
         style="stop-color:#ffffff;stop-opacity:0"
         offset="1" />
    </linearGradient>
    <filter
       color-interpolation-filters="sRGB"
       id="filter3174">
      <feGaussianBlur
         id="feGaussianBlur3176"
         stdDeviation="1.71" />
    </filter>
    <linearGradient
       x1="36.357143"
       y1="6"
       x2="36.357143"
       y2="63.893143"
       id="linearGradient3188"
       xlink:href="#linearGradient3737"
       gradientUnits="userSpaceOnUse"
       gradientTransform="translate(0,0.171875)" />
    <filter
       x="-0.192"
       y="-0.192"
       width="1.3839999"
       height="1.3839999"
       color-interpolation-filters="sRGB"
       id="filter3794">
      <feGaussianBlur
         id="feGaussianBlur3796"
         stdDeviation="5.28" />
    </filter>
    <linearGradient
       x1="48"
       y1="20.220806"
       x2="48"
       y2="138.66119"
       id="linearGradient3613"
       xlink:href="#linearGradient3737"
       gradientUnits="userSpaceOnUse" />
    <radialGradient
       cx="48"
       cy="90.171875"
       r="42"
       fx="48"
       fy="90.171875"
       id="radialGradient3619"
       xlink:href="#linearGradient3737"
       gradientUnits="userSpaceOnUse"
       gradientTransform="matrix(1.1573129,0,0,0.99590774,-7.5510206,0.19713193)" />
    <clipPath
       id="clipPath3613">
      <rect
         width="84"
         height="84"
         rx="6"
         ry="6"
         x="6"
         y="6"
         id="rect3615"
         style="fill:#ffffff;fill-opacity:1;fill-rule:nonzero;stroke:none" />
    </clipPath>
    <linearGradient
       x1="61"
       y1="6"
       x2="61"
       y2="90"
       id="linearGradient3617"
       xlink:href="#linearGradient4105"
       gradientUnits="userSpaceOnUse" />
    <linearGradient
       x1="45.447727"
       y1="92.539597"
       x2="45.447727"
       y2="7.0165396"
       id="ButtonShadow-0"
       gradientUnits="userSpaceOnUse"
       gradientTransform="matrix(1.0058652,0,0,0.994169,100,0)">
      <stop
         id="stop3750-8"
         style="stop-color:#000000;stop-opacity:1"
         offset="0" />
      <stop
         id="stop3752-5"
         style="stop-color:#000000;stop-opacity:0.58823532"
         offset="1" />
    </linearGradient>
    <linearGradient
       x1="32.251034"
       y1="6.1317081"
       x2="32.251034"
       y2="90.238609"
       id="linearGradient3780"
       xlink:href="#ButtonShadow-0"
       gradientUnits="userSpaceOnUse"
       gradientTransform="matrix(1.0238095,0,0,1.0119048,-1.1428571,-98.071429)" />
    <linearGradient
       x1="32.251034"
       y1="6.1317081"
       x2="32.251034"
       y2="90.238609"
       id="linearGradient3772"
       xlink:href="#ButtonShadow-0"
       gradientUnits="userSpaceOnUse"
       gradientTransform="matrix(1.0238095,0,0,1.0119048,-1.1428571,-98.071429)" />
    <linearGradient
       x1="32.251034"
       y1="6.1317081"
       x2="32.251034"
       y2="90.238609"
       id="linearGradient3725"
       xlink:href="#ButtonShadow-0"
       gradientUnits="userSpaceOnUse"
       gradientTransform="matrix(1.0238095,0,0,1.0119048,-1.1428571,-98.071429)" />
    <linearGradient
       x1="32.251034"
       y1="6.1317081"
       x2="32.251034"
       y2="90.238609"
       id="linearGradient3721"
       xlink:href="#ButtonShadow-0"
       gradientUnits="userSpaceOnUse"
       gradientTransform="translate(0,-97)" />
    <linearGradient
       x1="32.251034"
       y1="6.1317081"
       x2="32.251034"
       y2="90.238609"
       id="linearGradient3026"
       xlink:href="#ButtonShadow-0"
       gradientUnits="userSpaceOnUse"
       gradientTransform="matrix(1.0238095,0,0,1.0119048,-1.1428571,-98.071429)" />
    <linearGradient
       x1="-73.494293"
       y1="72.699486"
       x2="-50.243786"
       y2="159.47563"
       id="linearGradient4018"
       xlink:href="#linearGradient3694"
       gradientUnits="userSpaceOnUse"
       gradientTransform="matrix(0.59136097,-0.15844727,-0.15844727,-0.59136097,103.35407,108.29989)" />
    <linearGradient
       x1="-73.494293"
       y1="72.699486"
       x2="-50.243786"
       y2="159.47563"
       id="linearGradient4071"
       xlink:href="#linearGradient3694"
       gradientUnits="userSpaceOnUse"
       gradientTransform="matrix(0.59136097,-0.15844727,-0.15844727,-0.59136097,103.35407,109.29989)" />
    <linearGradient
       x1="58"
       y1="19"
       x2="58"
       y2="120"
       id="linearGradient4091"
       xlink:href="#linearGradient4085"
       gradientUnits="userSpaceOnUse" />
    <linearGradient
       y2="-36.779972"
       x2="-198.40771"
       y1="36.58765"
       x1="-198.40771"
       gradientTransform="matrix(0.616843,0,0,0.382741,274.808,52.7494)"
       gradientUnits="userSpaceOnUse"
       id="linearGradient2434"
       xlink:href="#linearGradient3163"
       inkscape:collect="always" />
    <linearGradient
       y2="10.73795"
       x2="4.2504244"
       y1="0.23207407"
       x1="4.2504244"
       gradientUnits="userSpaceOnUse"
       id="linearGradient2432"
       xlink:href="#linearGradient3146"
       inkscape:collect="always" />
    <linearGradient
       y2="10.73795"
       x2="4.2504244"
       y1="0.23207407"
       x1="4.2504244"
       gradientUnits="userSpaceOnUse"
       id="linearGradient2430"
       xlink:href="#linearGradient3146"
       inkscape:collect="always" />
    <linearGradient
       y2="98.362183"
       x2="156.5"
       y1="98.362183"
       x1="28.5"
       gradientUnits="userSpaceOnUse"
       id="linearGradient2428"
       xlink:href="#linearGradient4105"
       inkscape:collect="always" />
    <filter
       id="filter4134"
       inkscape:collect="always">
      <feGaussianBlur
         id="feGaussianBlur4136"
         stdDeviation="0.07136633"
         inkscape:collect="always" />
    </filter>
    <linearGradient
       y2="-36.779972"
       x2="-198.40771"
       y1="36.58765"
       x1="-198.40771"
       gradientTransform="matrix(0.616843, 0, 0, 0.382741, 274.808, 52.7494)"
       gradientUnits="userSpaceOnUse"
       id="linearGradient2195"
       xlink:href="#linearGradient3163"
       inkscape:collect="always" />
    <linearGradient
       y2="-36.779972"
       x2="-198.40771"
       y1="36.58765"
       x1="-198.40771"
       gradientTransform="matrix(0.616843, 0, 0, 0.382741, 274.808, 52.7494)"
       gradientUnits="userSpaceOnUse"
       id="linearGradient2200"
       xlink:href="#linearGradient3163"
       inkscape:collect="always" />
    <linearGradient
       gradientTransform="matrix(0.616843, 0, 0, 0.382741, 273.317, 55.6439)"
       gradientUnits="userSpaceOnUse"
       y2="-21.637817"
       x2="-177.5"
       y1="-21.637817"
       x1="-204.5"
       id="linearGradient3169"
       xlink:href="#linearGradient3163"
       inkscape:collect="always" />
    <linearGradient
       gradientUnits="userSpaceOnUse"
       y2="10.73795"
       x2="4.2504244"
       y1="0.23207407"
       x1="4.2504244"
       id="linearGradient3152"
       xlink:href="#linearGradient3146"
       inkscape:collect="always" />
    <style
       type="text/css"
       id="style5106">
    #nex-logo {fill:#000000}
  </style>
    <linearGradient
       gradientUnits="userSpaceOnUse"
       y2="98.362183"
       x2="156.5"
       y1="98.362183"
       x1="28.5"
       id="linearGradient4111"
       xlink:href="#linearGradient4105"
       inkscape:collect="always" />
    <linearGradient
       id="linearGradient4105">
      <stop
         id="stop4107"
         offset="0"
         style="stop-color: rgb(150, 150, 150); stop-opacity: 1;" />
      <stop
         style="stop-color: rgb(118, 118, 118); stop-opacity: 1;"
         offset="0.30613473"
         id="stop5090" />
      <stop
         id="stop5100"
         offset="0.50999999"
         style="stop-color: rgb(58, 58, 58); stop-opacity: 1;" />
      <stop
         style="stop-color: rgb(0, 0, 0); stop-opacity: 1;"
         offset="0.51999998"
         id="stop4113" />
      <stop
         id="stop5098"
         offset="0.52999997"
         style="stop-color: rgb(0, 0, 0); stop-opacity: 1;" />
      <stop
         id="stop5096"
         offset="0.52999997"
         style="stop-color: rgb(0, 0, 0); stop-opacity: 1;" />
      <stop
         style="stop-color: rgb(0, 0, 0); stop-opacity: 1;"
         offset="0.52999997"
         id="stop8016" />
      <stop
         style="stop-color: rgb(38, 38, 38); stop-opacity: 1;"
         offset="0.54000002"
         id="stop4122" />
      <stop
         style="stop-color: rgb(79, 79, 79); stop-opacity: 1;"
         offset="0.72486901"
         id="stop5092" />
      <stop
         id="stop5107"
         offset="0.75613099"
         style="stop-color: rgb(82, 82, 82); stop-opacity: 1;" />
      <stop
         id="stop8065"
         offset="0.85817355"
         style="stop-color: rgb(68, 68, 68); stop-opacity: 1;" />
      <stop
         id="stop4115"
         offset="0.9347055"
         style="stop-color: rgb(47, 47, 47); stop-opacity: 1;" />
      <stop
         style="stop-color: rgb(30, 30, 30); stop-opacity: 1;"
         offset="1"
         id="stop4117" />
    </linearGradient>
    <linearGradient
       id="linearGradient3146">
      <stop
         id="stop3148"
         offset="0"
         style="stop-color: rgb(255, 255, 255); stop-opacity: 1;" />
      <stop
         style="stop-color: rgb(250, 250, 250); stop-opacity: 1;"
         offset="0.23"
         id="stop3151" />
      <stop
         id="stop3163"
         offset="0.66964287"
         style="stop-color: rgb(223, 223, 223); stop-opacity: 1;" />
      <stop
         id="stop3150"
         offset="1"
         style="stop-color: rgb(210, 210, 210); stop-opacity: 1;" />
    </linearGradient>
    <linearGradient
       id="linearGradient3163">
      <stop
         id="stop3165"
         offset="0"
         style="stop-color: rgb(185, 185, 185); stop-opacity: 1;" />
      <stop
         id="stop3167"
         offset="1"
         style="stop-color: rgb(255, 255, 255); stop-opacity: 1;" />
    </linearGradient>
    <inkscape:perspective
       id="perspective45"
       inkscape:persp3d-origin="372.04724 : 350.78739 : 1"
       inkscape:vp_z="744.09448 : 526.18109 : 1"
       inkscape:vp_y="0 : 1000 : 0"
       inkscape:vp_x="0 : 526.18109 : 1"
       sodipodi:type="inkscape:persp3d" />
    <linearGradient
       inkscape:collect="always"
       xlink:href="#ButtonShadow-0"
       id="linearGradient3205"
       gradientUnits="userSpaceOnUse"
       gradientTransform="matrix(1.0238095,0,0,1.0119048,-1.1428571,-98.071429)"
       x1="32.251034"
       y1="6.1317081"
       x2="32.251034"
       y2="90.238609" />
    <linearGradient
       inkscape:collect="always"
       xlink:href="#ButtonShadow-0"
       id="linearGradient3207"
       gradientUnits="userSpaceOnUse"
       gradientTransform="matrix(1.0238095,0,0,1.0119048,-1.1428571,-98.071429)"
       x1="32.251034"
       y1="6.1317081"
       x2="32.251034"
       y2="90.238609" />
    <linearGradient
       inkscape:collect="always"
       xlink:href="#ButtonShadow-0"
       id="linearGradient3209"
       gradientUnits="userSpaceOnUse"
       gradientTransform="matrix(1.0238095,0,0,1.0119048,-1.1428571,-98.071429)"
       x1="32.251034"
       y1="6.1317081"
       x2="32.251034"
       y2="90.238609" />
    <linearGradient
       inkscape:collect="always"
       xlink:href="#ButtonShadow-0"
       id="linearGradient3211"
       gradientUnits="userSpaceOnUse"
       gradientTransform="matrix(1.0238095,0,0,1.0119048,-1.1428571,-98.071429)"
       x1="32.251034"
       y1="6.1317081"
       x2="32.251034"
       y2="90.238609" />
    <linearGradient
       inkscape:collect="always"
       xlink:href="#ButtonShadow-0"
       id="linearGradient3213"
       gradientUnits="userSpaceOnUse"
       gradientTransform="translate(0,-97)"
       x1="32.251034"
       y1="6.1317081"
       x2="32.251034"
       y2="90.238609" />
    <linearGradient
       inkscape:collect="always"
       xlink:href="#linearGradient3863"
       id="linearGradient3215"
       gradientUnits="userSpaceOnUse"
       x1="48"
       y1="90"
       x2="48"
       y2="5.9877172" />
    <linearGradient
       inkscape:collect="always"
       xlink:href="#linearGradient3737"
       id="linearGradient3217"
       gradientUnits="userSpaceOnUse"
       x1="36.357143"
       y1="6"
       x2="36.357143"
       y2="63.893143" />
    <radialGradient
       inkscape:collect="always"
       xlink:href="#linearGradient3737"
       id="radialGradient3219"
       gradientUnits="userSpaceOnUse"
       gradientTransform="matrix(1.1573129,0,0,0.99590774,-7.5510206,0.19713193)"
       cx="48"
       cy="90.171875"
       fx="48"
       fy="90.171875"
       r="42" />
    <linearGradient
       inkscape:collect="always"
       xlink:href="#ButtonShadow-0"
       id="linearGradient3221"
       gradientUnits="userSpaceOnUse"
       gradientTransform="matrix(1.0238095,0,0,1.0119048,-1.1428571,-98.071429)"
       x1="32.251034"
       y1="6.1317081"
       x2="32.251034"
       y2="90.238609" />
    <linearGradient
       inkscape:collect="always"
       xlink:href="#ButtonShadow-0"
       id="linearGradient3223"
       gradientUnits="userSpaceOnUse"
       gradientTransform="matrix(1.0238095,0,0,1.0119048,-1.1428571,-98.071429)"
       x1="32.251034"
       y1="6.1317081"
       x2="32.251034"
       y2="90.238609" />
    <linearGradient
       inkscape:collect="always"
       xlink:href="#ButtonShadow-0"
       id="linearGradient3225"
       gradientUnits="userSpaceOnUse"
       gradientTransform="matrix(1.0238095,0,0,1.0119048,-1.1428571,-98.071429)"
       x1="32.251034"
       y1="6.1317081"
       x2="32.251034"
       y2="90.238609" />
    <linearGradient
       inkscape:collect="always"
       xlink:href="#ButtonShadow-0"
       id="linearGradient3227"
       gradientUnits="userSpaceOnUse"
       gradientTransform="matrix(1.0238095,0,0,1.0119048,-1.1428571,-98.071429)"
       x1="32.251034"
       y1="6.1317081"
       x2="32.251034"
       y2="90.238609" />
    <linearGradient
       inkscape:collect="always"
       xlink:href="#ButtonShadow-0"
       id="linearGradient3229"
       gradientUnits="userSpaceOnUse"
       gradientTransform="translate(0,-97)"
       x1="32.251034"
       y1="6.1317081"
       x2="32.251034"
       y2="90.238609" />
    <linearGradient
       inkscape:collect="always"
       xlink:href="#linearGradient3863"
       id="linearGradient3231"
       gradientUnits="userSpaceOnUse"
       x1="48"
       y1="90"
       x2="48"
       y2="5.9877172" />
    <linearGradient
       inkscape:collect="always"
       xlink:href="#linearGradient3737"
       id="linearGradient3233"
       gradientUnits="userSpaceOnUse"
       x1="36.357143"
       y1="6"
       x2="36.357143"
       y2="63.893143" />
    <radialGradient
       inkscape:collect="always"
       xlink:href="#linearGradient3737"
       id="radialGradient3235"
       gradientUnits="userSpaceOnUse"
       gradientTransform="matrix(1.1573129,0,0,0.99590774,-7.5510206,0.19713193)"
       cx="48"
       cy="90.171875"
       fx="48"
       fy="90.171875"
       r="42" />
    <linearGradient
       inkscape:collect="always"
       xlink:href="#linearGradient4105"
       id="linearGradient4061"
       gradientUnits="userSpaceOnUse"
       x1="28.5"
       y1="98.362183"
       x2="156.5"
       y2="98.362183" />
    <linearGradient
       inkscape:collect="always"
       xlink:href="#linearGradient3146"
       id="linearGradient4063"
       gradientUnits="userSpaceOnUse"
       x1="4.2504244"
       y1="0.23207407"
       x2="4.2504244"
       y2="10.73795" />
    <linearGradient
       inkscape:collect="always"
       xlink:href="#linearGradient3146"
       id="linearGradient4065"
       gradientUnits="userSpaceOnUse"
       x1="4.2504244"
       y1="0.23207407"
       x2="4.2504244"
       y2="10.73795" />
    <linearGradient
       inkscape:collect="always"
       xlink:href="#linearGradient3163"
       id="linearGradient4067"
       gradientUnits="userSpaceOnUse"
       gradientTransform="matrix(0.616843,0,0,0.382741,274.808,52.7494)"
       x1="-198.40771"
       y1="36.58765"
       x2="-198.40771"
       y2="-36.779972" />
    <linearGradient
       inkscape:collect="always"
       xlink:href="#linearGradient4105"
       id="linearGradient4078"
       gradientUnits="userSpaceOnUse"
       x1="28.5"
       y1="98.362183"
       x2="156.5"
       y2="98.362183" />
    <linearGradient
       inkscape:collect="always"
       xlink:href="#linearGradient3146"
       id="linearGradient4080"
       gradientUnits="userSpaceOnUse"
       x1="4.2504244"
       y1="0.23207407"
       x2="4.2504244"
       y2="10.73795" />
    <linearGradient
       inkscape:collect="always"
       xlink:href="#linearGradient3146"
       id="linearGradient4082"
       gradientUnits="userSpaceOnUse"
       x1="4.2504244"
       y1="0.23207407"
       x2="4.2504244"
       y2="10.73795" />
    <linearGradient
       inkscape:collect="always"
       xlink:href="#linearGradient3163"
       id="linearGradient4084"
       gradientUnits="userSpaceOnUse"
       gradientTransform="matrix(0.616843,0,0,0.382741,274.808,52.7494)"
       x1="-198.40771"
       y1="36.58765"
       x2="-198.40771"
       y2="-36.779972" />
    <linearGradient
       inkscape:collect="always"
       xlink:href="#linearGradient3146"
       id="linearGradient4106"
       gradientUnits="userSpaceOnUse"
       x1="4.2504244"
       y1="0.23207407"
       x2="4.2504244"
       y2="10.73795" />
    <linearGradient
       inkscape:collect="always"
       xlink:href="#linearGradient3146"
       id="linearGradient4108"
       gradientUnits="userSpaceOnUse"
       x1="4.2504244"
       y1="0.23207407"
       x2="4.2504244"
       y2="10.73795" />
  </defs>
  <metadata
     id="metadata2413">
    <rdf:RDF>
      <cc:Work
         rdf:about="">
        <dc:format>image/svg+xml</dc:format>
        <dc:type
           rdf:resource="http://purl.org/dc/dcmitype/StillImage" />
        <dc:title></dc:title>
      </cc:Work>
    </rdf:RDF>
  </metadata>
  <g
     id="layer2"
     style="display:none">
    <rect
       width="86"
       height="85"
       rx="6"
       ry="6"
       x="5"
       y="7"
       id="rect3745"
       style="opacity:0.9;fill:url(#ButtonShadow);fill-opacity:1;fill-rule:nonzero;stroke:none;filter:url(#filter3174)" />
  </g>
  <g
     id="layer3">
    <path
       d="m 12,-95.03125 c -5.5110903,0 -10.03125,4.52016 -10.03125,10.03125 l 0,71 c 0,5.5110902 4.5201598,10.03125 10.03125,10.03125 l 72,0 c 5.51109,0 10.03125,-4.5201597 10.03125,-10.03125 l 0,-71 c 0,-5.51109 -4.52016,-10.03125 -10.03125,-10.03125 l -72,0 z"
       transform="scale(1,-1)"
       id="path3786"
       style="opacity:0.07999998;fill:url(#linearGradient3026);fill-opacity:1;fill-rule:nonzero;stroke:none;display:inline" />
    <path
       d="m 12,-94.03125 c -4.971633,0 -9.03125,4.059617 -9.03125,9.03125 l 0,71 c 0,4.9716329 4.0596171,9.03125 9.03125,9.03125 l 72,0 c 4.971633,0 9.03125,-4.059617 9.03125,-9.03125 l 0,-71 c 0,-4.971633 -4.059617,-9.03125 -9.03125,-9.03125 l -72,0 z"
       transform="scale(1,-1)"
       id="path3778"
       style="opacity:0.1;fill:url(#linearGradient3780);fill-opacity:1;fill-rule:nonzero;stroke:none;display:inline" />
    <path
       d="m 12,-93 c -4.4091333,0 -8,3.590867 -8,8 l 0,71 c 0,4.4091333 3.5908667,8 8,8 l 72,0 c 4.409133,0 8,-3.5908667 8,-8 l 0,-71 c 0,-4.409133 -3.590867,-8 -8,-8 l -72,0 z"
       transform="scale(1,-1)"
       id="path3770"
       style="opacity:0.2;fill:url(#linearGradient3772);fill-opacity:1;fill-rule:nonzero;stroke:none;display:inline" />
    <rect
       width="86"
       height="85"
       rx="7"
       ry="7"
       x="5"
       y="-92"
       transform="scale(1,-1)"
       id="rect3723"
       style="opacity:0.3;fill:url(#linearGradient3725);fill-opacity:1;fill-rule:nonzero;stroke:none;display:inline" />
    <rect
       width="84"
       height="84"
       rx="6"
       ry="6"
       x="6"
       y="-91"
       transform="scale(1,-1)"
       id="rect3716"
       style="opacity:0.45;fill:url(#linearGradient3721);fill-opacity:1;fill-rule:nonzero;stroke:none;display:inline" />
  </g>
  <g
     id="layer1">
    <rect
       width="84"
       height="84"
       rx="6"
       ry="6"
       x="6"
       y="6"
       id="rect2419"
       style="fill:url(#linearGradient3617);fill-opacity:1;fill-rule:nonzero;stroke:none" />
    <path
       d="m 12,6.171875 c -3.324,0 -6,2.676 -6,6 l 0,2 0,68 0,2 c 0,0.334721 0.04135,0.6507 0.09375,0.96875 0.0487,0.295596 0.09704,0.596915 0.1875,0.875 0.00988,0.03038 0.020892,0.0636 0.03125,0.09375 0.098865,0.287771 0.2348802,0.547452 0.375,0.8125 0.1445918,0.273507 0.3156161,0.535615 0.5,0.78125 0.1843839,0.245635 0.3737765,0.473472 0.59375,0.6875 0.439947,0.428056 0.94291,0.814526 1.5,1.09375 0.278545,0.139612 0.5734731,0.246947 0.875,0.34375 -0.2562018,-0.100222 -0.4867109,-0.236272 -0.71875,-0.375 -0.00741,-0.0044 -0.023866,0.0045 -0.03125,0 -0.031933,-0.0193 -0.062293,-0.04251 -0.09375,-0.0625 -0.120395,-0.0767 -0.2310226,-0.163513 -0.34375,-0.25 -0.1061728,-0.0808 -0.2132809,-0.161112 -0.3125,-0.25 -0.1779299,-0.161433 -0.3474596,-0.345388 -0.5,-0.53125 -0.1075789,-0.130255 -0.2183939,-0.265285 -0.3125,-0.40625 -0.025089,-0.03838 -0.038446,-0.08587 -0.0625,-0.125 -0.064763,-0.103032 -0.1302275,-0.204517 -0.1875,-0.3125 -0.1010083,-0.194706 -0.2056748,-0.415701 -0.28125,-0.625 -0.00796,-0.02181 -0.023589,-0.04055 -0.03125,-0.0625 -0.031825,-0.09195 -0.035805,-0.186831 -0.0625,-0.28125 C 7.1884177,86.440257 7.1483606,86.343844 7.125,86.234375 7.0521214,85.892863 7,85.53617 7,85.171875 l 0,-2 0,-68 0,-2 c 0,-2.781848 2.2181517,-5 5,-5 l 2,0 68,0 2,0 c 2.781848,0 5,2.218152 5,5 l 0,2 0,68 0,2 c 0,0.364295 -0.05212,0.720988 -0.125,1.0625 -0.04415,0.206893 -0.08838,0.397658 -0.15625,0.59375 -0.0077,0.02195 -0.0233,0.04069 -0.03125,0.0625 -0.06274,0.173739 -0.138383,0.367449 -0.21875,0.53125 -0.04158,0.0828 -0.07904,0.169954 -0.125,0.25 -0.0546,0.09721 -0.126774,0.18835 -0.1875,0.28125 -0.09411,0.140965 -0.204921,0.275995 -0.3125,0.40625 -0.143174,0.17445 -0.303141,0.346998 -0.46875,0.5 -0.01117,0.0102 -0.01998,0.02115 -0.03125,0.03125 -0.138386,0.125556 -0.285091,0.234436 -0.4375,0.34375 -0.102571,0.07315 -0.204318,0.153364 -0.3125,0.21875 -0.0074,0.0045 -0.02384,-0.0044 -0.03125,0 -0.232039,0.138728 -0.462548,0.274778 -0.71875,0.375 0.301527,-0.0968 0.596455,-0.204138 0.875,-0.34375 0.55709,-0.279224 1.060053,-0.665694 1.5,-1.09375 0.219973,-0.214028 0.409366,-0.441865 0.59375,-0.6875 0.184384,-0.245635 0.355408,-0.507743 0.5,-0.78125 0.14012,-0.265048 0.276135,-0.524729 0.375,-0.8125 0.01041,-0.03078 0.02133,-0.06274 0.03125,-0.09375 0.09046,-0.278085 0.1388,-0.579404 0.1875,-0.875 C 89.95865,84.822575 90,84.506596 90,84.171875 l 0,-2 0,-68 0,-2 c 0,-3.324 -2.676,-6 -6,-6 l -72,0 z"
       inkscape:connector-curvature="0"
       id="rect3728"
       style="opacity:0.35;fill:url(#linearGradient3188);fill-opacity:1;fill-rule:nonzero;stroke:none" />
    <path
       d="M 12,90 C 8.676,90 6,87.324 6,84 L 6,82 6,14 6,12 c 0,-0.334721 0.04135,-0.6507 0.09375,-0.96875 0.0487,-0.295596 0.09704,-0.596915 0.1875,-0.875 C 6.29113,10.12587 6.302142,10.09265 6.3125,10.0625 6.411365,9.774729 6.5473802,9.515048 6.6875,9.25 6.8320918,8.976493 7.0031161,8.714385 7.1875,8.46875 7.3718839,8.223115 7.5612765,7.995278 7.78125,7.78125 8.221197,7.353194 8.72416,6.966724 9.28125,6.6875 9.559795,6.547888 9.8547231,6.440553 10.15625,6.34375 9.9000482,6.443972 9.6695391,6.580022 9.4375,6.71875 c -0.00741,0.0044 -0.023866,-0.0045 -0.03125,0 -0.031933,0.0193 -0.062293,0.04251 -0.09375,0.0625 -0.120395,0.0767 -0.2310226,0.163513 -0.34375,0.25 -0.1061728,0.0808 -0.2132809,0.161112 -0.3125,0.25 C 8.4783201,7.442683 8.3087904,7.626638 8.15625,7.8125 8.0486711,7.942755 7.9378561,8.077785 7.84375,8.21875 7.818661,8.25713 7.805304,8.30462 7.78125,8.34375 7.716487,8.446782 7.6510225,8.548267 7.59375,8.65625 7.4927417,8.850956 7.3880752,9.071951 7.3125,9.28125 7.30454,9.30306 7.288911,9.3218 7.28125,9.34375 7.2494249,9.4357 7.2454455,9.530581 7.21875,9.625 7.1884177,9.731618 7.1483606,9.828031 7.125,9.9375 7.0521214,10.279012 7,10.635705 7,11 l 0,2 0,68 0,2 c 0,2.781848 2.2181517,5 5,5 l 2,0 68,0 2,0 c 2.781848,0 5,-2.218152 5,-5 l 0,-2 0,-68 0,-2 C 89,10.635705 88.94788,10.279012 88.875,9.9375 88.83085,9.730607 88.78662,9.539842 88.71875,9.34375 88.71105,9.3218 88.69545,9.30306 88.6875,9.28125 88.62476,9.107511 88.549117,8.913801 88.46875,8.75 88.42717,8.6672 88.38971,8.580046 88.34375,8.5 88.28915,8.40279 88.216976,8.31165 88.15625,8.21875 88.06214,8.077785 87.951329,7.942755 87.84375,7.8125 87.700576,7.63805 87.540609,7.465502 87.375,7.3125 87.36383,7.3023 87.35502,7.29135 87.34375,7.28125 87.205364,7.155694 87.058659,7.046814 86.90625,6.9375 86.803679,6.86435 86.701932,6.784136 86.59375,6.71875 c -0.0074,-0.0045 -0.02384,0.0044 -0.03125,0 -0.232039,-0.138728 -0.462548,-0.274778 -0.71875,-0.375 0.301527,0.0968 0.596455,0.204138 0.875,0.34375 0.55709,0.279224 1.060053,0.665694 1.5,1.09375 0.219973,0.214028 0.409366,0.441865 0.59375,0.6875 0.184384,0.245635 0.355408,0.507743 0.5,0.78125 0.14012,0.265048 0.276135,0.524729 0.375,0.8125 0.01041,0.03078 0.02133,0.06274 0.03125,0.09375 0.09046,0.278085 0.1388,0.579404 0.1875,0.875 C 89.95865,11.3493 90,11.665279 90,12 l 0,2 0,68 0,2 c 0,3.324 -2.676,6 -6,6 l -72,0 z"
       inkscape:connector-curvature="0"
       id="path3615"
       style="opacity:0.2;fill:url(#radialGradient3619);fill-opacity:1;fill-rule:nonzero;stroke:none" />
  </g>
  <g
     id="g4102"
     transform="matrix(7.0482429,0,0,7.211153,18.041979,8.4467357)"
     style="fill:url(#linearGradient4108);fill-opacity:1;stroke:#383838;stroke-width:0.42080262;stroke-linecap:round;stroke-linejoin:miter;stroke-miterlimit:2;stroke-opacity:1;stroke-dasharray:none"
     inkscape:label="#g5108">
    <path
       style="fill:url(#linearGradient4106);fill-opacity:1;stroke-width:0.42080262"
       d="M 2.71875,0.34375 C 2.688418,0.34450061 2.655957,0.353653 2.625,0.375 2.594043,0.3963469 2.568646,0.435437 2.5625,0.46875 2.550207,0.535376 2.56522,0.5672638 2.59375,0.625 c 0.1314626,0.23687467 0.2614206,0.4216777 0.3125,0.5625 0.08775,0.1952706 0.086505,0.376743 0.0625,0.5 L 2.8125,2.4375 C 2.0236174,2.6201857 1.2621836,2.8048245 0.5,3.0625 0.35165124,3.1099492 0.23863413,3.1577155 0.125,3.21875 0.1146528,3.21705 0.1040972,3.21705 0.09375,3.21875 0.05381847,3.2425338 0.05195078,3.277549 0.03125,3.3125 0.02089961,3.3299755 0.00286584,3.3503389 0,3.375 -0.00286584,3.399661 0.00882604,3.439925 0.03125,3.46875 0.09780837,3.560459 0.18728388,3.5983637 0.3125,3.65625 0.43771612,3.714136 0.58154157,3.7738331 0.6875,3.8125 1.2175812,4.0059491 1.8992405,4.1623385 2.4375,4.21875 2.2925598,4.8726437 2.1525159,5.5190379 1.9375,6.15625 1.8851541,6.3113822 1.8184218,6.4729655 1.75,6.625 1.553482,7.0616761 1.3042288,7.4603266 1.0625,7.84375 0.80716262,8.2017666 0.59199664,8.5507627 0.3125,8.875 0.2603615,8.9302096 0.17620569,8.9774969 0.125,9.03125 0.09939715,9.0581266 0.0811414,9.1011639 0.0625,9.125 0.0531793,9.136918 0.03922569,9.141779 0.03125,9.15625 c -0.0079757,0.014471 -0.0030483,0.02206 0,0.0625 -0.0017011,0.010347 -0.0017011,0.020903 0,0.03125 0.0078538,0.012698 0.01855202,0.023396 0.03125,0.03125 0.0078538,0.012698 0.01855202,0.023396 0.03125,0.03125 0.01034722,0.0017 0.02090278,0.0017 0.03125,0 C 0.1808274,9.321 0.22703847,9.29814 0.28125,9.28125 0.3354615,9.26436 0.372756,9.249129 0.4375,9.21875 0.566988,9.1579928 0.73401682,9.0891814 0.875,9 1.0775389,8.8718796 1.2269642,8.7416005 1.34375,8.65625 1.5495591,8.5058386 2.0130479,8.074397 2.25,7.78125 2.5222486,7.4714555 2.8121153,7.1390774 3.03125,6.71875 3.03545,6.71069 3.02708,6.69563 3.03125,6.6875 3.046196,6.661725 3.1327665,6.4960908 3.15625,6.4375 3.203217,6.3203184 3.2346334,6.2040418 3.25,6.15625 L 3.9375,4.0625 6.34375,3.5 C 6.2840591,4.0049041 6.217099,4.4939943 6.15625,5 6.109879,5.4171322 6.078209,5.585101 6.03125,6.03125 c -0.0014,0.01333 0.00144,0.017393 0,0.03125 C 6.004599,6.2000007 5.9270819,6.5862654 5.90625,6.6875 5.7465265,7.4636992 5.5749329,8.1675068 5.21875,8.78125 5.1335334,8.9009667 5.0349489,9.026863 4.9375,9.125 4.838944,9.0771878 4.700674,9.0105798 4.5,9 4.49653,8.9995665 4.478387,9.0003702 4.46875,9 4.458403,8.9983 4.447847,8.9983 4.4375,9 4.4371306,9.0001406 4.406467,9.031033 4.40625,9.03125 4.393552,9.0391 4.382854,9.049802 4.375,9.0625 4.361744,9.133468 4.385617,9.1883384 4.40625,9.25 c 0.020633,0.061662 0.037451,0.130797 0.0625,0.1875 0.1806805,0.4089828 0.3926938,0.761463 0.59375,1.125 0.00785,0.0127 0.018552,0.0234 0.03125,0.03125 0.00785,0.0127 0.018552,0.0234 0.03125,0.03125 0.010347,0.0017 0.020903,0.0017 0.03125,0 0.010347,0.0017 0.020903,0.0017 0.03125,0 C 5.200198,10.6171 5.210896,10.60645 5.21875,10.59375 5.5189496,10.309209 5.8714654,9.8510932 6.125,9.46875 6.6236637,8.7207907 7.0452816,7.8846287 7.34375,6.9375 7.3883474,6.7901664 7.4246901,6.6410374 7.46875,6.46875 L 8.40625,2.875 C 8.4458883,2.7161831 8.4917163,2.5396654 8.5,2.40625 8.5017,2.395903 8.5017,2.385347 8.5,2.375 8.4806041,2.3287353 8.4381745,2.3045885 8.40625,2.28125 8.3743255,2.2579115 8.3528501,2.2388916 8.3125,2.21875 8.2317998,2.1784669 8.1248958,2.1291882 8.03125,2.09375 7.5815732,1.9422864 7.0928287,1.8060249 6.5625,1.6875 6.5057755,1.6628339 6.4671119,1.6529551 6.40625,1.65625 6.3453881,1.6595449 6.2553445,1.6748233 6.1875,1.6875 6.0518109,1.7128533 5.9120761,1.7601366 5.8125,1.78125 L 4.5625,2.0625 C 4.6156969,1.8963176 4.7020625,1.6513847 4.625,1.34375 4.5183085,0.99456299 4.2430719,0.7908664 3.9375,0.6875 3.6772283,0.59945684 3.4230752,0.52110038 3.15625,0.4375 3.1130397,0.42396246 2.9166652,0.3545568 2.71875,0.34375 z"
       id="path4104"
       sodipodi:nodetypes="csscccccccsscsscssccssscccccsssscsssccccscscccssscssccccccccccccssccsscccssc"
       inkscape:connector-curvature="0" />
  </g>
  <g
     id="layer5">
    <rect
       width="66"
       height="66"
       rx="12"
       ry="12"
       x="15"
       y="15"
       clip-path="url(#clipPath3613)"
       id="rect3171"
       style="opacity:0.1;fill:url(#linearGradient3613);fill-opacity:1;fill-rule:nonzero;stroke:#ffffff;stroke-width:0.5;stroke-linecap:round;stroke-linejoin:miter;stroke-miterlimit:4;stroke-opacity:1;stroke-dasharray:none;stroke-dashoffset:0;filter:url(#filter3794)" />
  </g>
</svg>
