<?xml version="1.0" encoding="UTF-8" standalone="no"?>
<!-- Created with Inkscape (http://www.inkscape.org/) -->

<svg
   xmlns:dc="http://purl.org/dc/elements/1.1/"
   xmlns:cc="http://creativecommons.org/ns#"
   xmlns:rdf="http://www.w3.org/1999/02/22-rdf-syntax-ns#"
   xmlns:svg="http://www.w3.org/2000/svg"
   xmlns="http://www.w3.org/2000/svg"
   xmlns:xlink="http://www.w3.org/1999/xlink"
   xmlns:sodipodi="http://sodipodi.sourceforge.net/DTD/sodipodi-0.dtd"
   xmlns:inkscape="http://www.inkscape.org/namespaces/inkscape"
   width="92.0625"
   height="91.0625"
   id="svg2"
   version="1.1"
   inkscape:version="0.48.1 r9760"
   sodipodi:docname="synfigstudio.svg">
  <defs
     id="defs4">
    <linearGradient
       id="linearGradient9434">
      <stop
         id="stop9436"
         offset="0"
         style="stop-color:#cecece;stop-opacity:1;" />
      <stop
         style="stop-color:#898989;stop-opacity:1;"
         offset="0.60863811"
         id="stop9438" />
      <stop
         id="stop9440"
         offset="1"
         style="stop-color:#646464;stop-opacity:1;" />
    </linearGradient>
    <linearGradient
       id="linearGradient9422">
      <stop
         style="stop-color:#000000;stop-opacity:1;"
         offset="0"
         id="stop9424" />
      <stop
         style="stop-color:#414141;stop-opacity:0;"
         offset="1"
         id="stop9426" />
    </linearGradient>
    <linearGradient
       id="linearGradient9393">
      <stop
         style="stop-color:#a6a6a6;stop-opacity:1;"
         offset="0"
         id="stop9395" />
      <stop
         id="stop9432"
         offset="0.5"
         style="stop-color:#919191;stop-opacity:1;" />
      <stop
         style="stop-color:#7d7d7d;stop-opacity:1;"
         offset="1"
         id="stop9397" />
    </linearGradient>
    <linearGradient
       gradientTransform="matrix(1.0238095,0,0,1.0119048,-1.1428571,-98.071429)"
       gradientUnits="userSpaceOnUse"
       xlink:href="#ButtonShadow-0"
       id="linearGradient3122"
       y2="90.238609"
       x2="32.251034"
       y1="6.1317081"
       x1="32.251034" />
    <linearGradient
       gradientTransform="translate(0,-97)"
       gradientUnits="userSpaceOnUse"
       xlink:href="#ButtonShadow-0"
       id="linearGradient3721"
       y2="90.238609"
       x2="32.251034"
       y1="6.1317081"
       x1="32.251034" />
    <linearGradient
       gradientTransform="matrix(1.0238095,0,0,1.0119048,-1.1428571,-98.071429)"
       gradientUnits="userSpaceOnUse"
       xlink:href="#ButtonShadow-0"
       id="linearGradient3725"
       y2="90.238609"
       x2="32.251034"
       y1="6.1317081"
       x1="32.251034" />
    <linearGradient
       gradientTransform="matrix(1.0238095,0,0,1.0119048,-1.1428571,-98.071429)"
       gradientUnits="userSpaceOnUse"
       xlink:href="#ButtonShadow-0"
       id="linearGradient3772"
       y2="90.238609"
       x2="32.251034"
       y1="6.1317081"
       x1="32.251034" />
    <linearGradient
       gradientTransform="matrix(1.0238095,0,0,1.0119048,-1.1428571,-98.071429)"
       gradientUnits="userSpaceOnUse"
       xlink:href="#ButtonShadow-0"
       id="linearGradient3780"
       y2="90.238609"
       x2="32.251034"
       y1="6.1317081"
       x1="32.251034" />
    <linearGradient
       gradientTransform="matrix(1.0058652,0,0,0.994169,100,0)"
       gradientUnits="userSpaceOnUse"
       id="ButtonShadow-0"
       y2="7.0165396"
       x2="45.447727"
       y1="92.539597"
       x1="45.447727">
      <stop
         offset="0"
         style="stop-color:#000000;stop-opacity:1"
         id="stop3750-8" />
      <stop
         offset="1"
         style="stop-color:#000000;stop-opacity:0.58823532"
         id="stop3752-5" />
    </linearGradient>
    <linearGradient
       gradientTransform="matrix(0.64339645,0,0,0.65538394,6.8025211,2.7230809)"
       gradientUnits="userSpaceOnUse"
       xlink:href="#linearGradient5081"
       id="linearGradient4450"
       y2="12.028901"
       x2="47.759033"
       y1="5.2826524"
       x1="52.470821" />
    <linearGradient
       gradientTransform="matrix(-0.64339645,0,0,0.65538394,89.209375,2.7230809)"
       gradientUnits="userSpaceOnUse"
       xlink:href="#linearGradient5081"
       id="linearGradient4447"
       y2="12.778483"
       x2="57.253754"
       y1="10.529735"
       x1="43.475822" />
    <linearGradient
       gradientTransform="matrix(0.69714873,0,0,0.69714873,3.5409084,1.9369824)"
       gradientUnits="userSpaceOnUse"
       xlink:href="#linearGradient5118"
       id="linearGradient4381"
       y2="21.933983"
       x2="64.606834"
       y1="22.808496"
       x1="58.409904" />
    <linearGradient
       gradientTransform="matrix(0.69714873,0,0,0.69714873,3.5409084,1.9369824)"
       gradientUnits="userSpaceOnUse"
       xlink:href="#linearGradient5118"
       id="linearGradient4378"
       y2="55"
       x2="64.706467"
       y1="54.138271"
       x1="54.880836" />
    <linearGradient
       gradientTransform="matrix(0.69714873,0,0,0.69714873,3.5409084,1.9369824)"
       gradientUnits="userSpaceOnUse"
       xlink:href="#linearGradient5137-9"
       id="linearGradient4375"
       y2="51.703251"
       x2="69.918655"
       y1="28.055578"
       x1="63.582283" />
    <linearGradient
       id="linearGradient5118">
      <stop
         offset="0"
         style="stop-color:#de1212;stop-opacity:1"
         id="stop5120" />
      <stop
         offset="0.5"
         style="stop-color:#f36565;stop-opacity:1"
         id="stop5128" />
      <stop
         offset="1"
         style="stop-color:#a20c0c;stop-opacity:1"
         id="stop5122" />
    </linearGradient>
    <linearGradient
       id="linearGradient5137-9">
      <stop
         offset="0"
         style="stop-color:#000000;stop-opacity:1"
         id="stop5139-3" />
      <stop
         offset="1"
         style="stop-color:#000000;stop-opacity:0"
         id="stop5141-7" />
    </linearGradient>
    <linearGradient
       gradientTransform="matrix(1.0172414,0,0,1.0172414,-1.1034483,-1.1034483)"
       gradientUnits="userSpaceOnUse"
       id="linearGradient5051-4"
       y2="5.4252338"
       x2="58.650177"
       y1="122"
       x1="58.650177">
      <stop
         offset="0"
         style="stop-color:#dcdcdc;stop-opacity:1"
         id="stop5053-5" />
      <stop
         offset="0.40241864"
         style="stop-color:#e4e4e4;stop-opacity:1"
         id="stop5057-0" />
      <stop
         offset="1"
         style="stop-color:#f0f0f0;stop-opacity:1"
         id="stop5055-2" />
    </linearGradient>
    <linearGradient
       spreadMethod="pad"
       gradientTransform="matrix(1.0172414,0,0,1.0172414,-1.1034483,-1.1034483)"
       gradientUnits="userSpaceOnUse"
       xlink:href="#linearGradient5051-4"
       id="linearGradient5059-3"
       y2="5.4252338"
       x2="58.650177"
       y1="122"
       x1="58.650177">
      <stop
         offset="0"
         style="stop-color:#dcdcdc;stop-opacity:1"
         id="stop5061-0" />
      <stop
         offset="0.40241864"
         style="stop-color:#e4e4e4;stop-opacity:1"
         id="stop5065-6" />
      <stop
         offset="1"
         style="stop-color:#f0f0f0;stop-opacity:1"
         id="stop5063-2" />
    </linearGradient>
    <linearGradient
       spreadMethod="pad"
       gradientTransform="matrix(1.0172414,0,0,1.0172414,-1.1034483,-1.1034483)"
       gradientUnits="userSpaceOnUse"
       xlink:href="#linearGradient5059-3"
       id="linearGradient5081"
       y2="5.4252338"
       x2="58.650177"
       y1="122"
       x1="58.650177">
      <stop
         offset="0"
         style="stop-color:#dcdcdc;stop-opacity:1"
         id="stop5083" />
      <stop
         offset="1"
         style="stop-color:#f0f0f0;stop-opacity:1"
         id="stop5085" />
    </linearGradient>
    <linearGradient
       gradientTransform="matrix(-0.71186441,0,0,0.71186441,36.599994,2.4406779)"
       gradientUnits="userSpaceOnUse"
       xlink:href="#linearGradient5137"
       id="linearGradient4233"
       y2="30.388597"
       x2="-28.793009"
       y1="31.632919"
       x1="-32.47403" />
    <linearGradient
       gradientTransform="matrix(-0.71186441,0,0,0.71186441,53.55932,2.440678)"
       gradientUnits="userSpaceOnUse"
       xlink:href="#linearGradient3231"
       id="linearGradient4215"
       y2="4.8938489"
       x2="99.265793"
       y1="123"
       x1="99.265793" />
    <clipPath
       id="clipPath4211">
      <path
         style="fill:url(#linearGradient4215);fill-opacity:1;stroke:none;display:inline"
         id="path4213"
         inkscape:connector-curvature="0"
         d="m -28,6 c -3.324,0 -6,2.676 -6,6 l 0,0.53125 0,70.9375 L -34,84 c 0,3.324 2.676,6 6,6 l 0.53125,0 7.46875,0 30.96875,0 c 0,0 0.24654,-18.83702 0,-21.78125 C 10.48249,62.41176 -3.33105,29.39342 -10.5,6 L -20,6 -27.46875,6 -28,6 z" />
    </clipPath>
    <linearGradient
       gradientUnits="userSpaceOnUse"
       xlink:href="#linearGradient4938"
       id="linearGradient4120"
       y2="99.265976"
       x2="74.494286"
       y1="99.265976"
       x1="65.92762" />
    <linearGradient
       gradientUnits="userSpaceOnUse"
       xlink:href="#linearGradient4938"
       id="linearGradient4118"
       y2="99.265976"
       x2="74.494286"
       y1="99.265976"
       x1="65.92762" />
    <linearGradient
       gradientTransform="matrix(-0.71186441,0,0,0.71186441,93.55932,2.440678)"
       gradientUnits="userSpaceOnUse"
       xlink:href="#linearGradient3231"
       id="linearGradient4084"
       y2="4.8938489"
       x2="99.265793"
       y1="123"
       x1="99.265793" />
    <linearGradient
       gradientTransform="matrix(0.71186441,0,0,0.71186441,2.44068,2.440678)"
       gradientUnits="userSpaceOnUse"
       xlink:href="#linearGradient3231"
       id="linearGradient4081"
       y2="4.8938489"
       x2="99.265793"
       y1="123"
       x1="99.265793" />
    <linearGradient
       gradientTransform="matrix(-0.71186441,0,0,0.71186441,93.55932,2.4406779)"
       gradientUnits="userSpaceOnUse"
       xlink:href="#linearGradient3231"
       id="linearGradient4063"
       y2="23.497499"
       x2="95.671806"
       y1="16"
       x1="79.513893" />
    <linearGradient
       gradientTransform="matrix(0.71186441,0,0,0.71186441,59.38983,2.4406779)"
       gradientUnits="userSpaceOnUse"
       xlink:href="#linearGradient5137"
       id="linearGradient4050"
       y2="30.388597"
       x2="-28.793009"
       y1="31.632919"
       x1="-32.47403" />
    <linearGradient
       gradientTransform="matrix(0.71186441,0,0,0.71186441,2.44068,2.4406779)"
       gradientUnits="userSpaceOnUse"
       xlink:href="#linearGradient3231"
       id="linearGradient4044"
       y2="19"
       x2="87.676254"
       y1="34.894093"
       x1="123.49389" />
    <linearGradient
       gradientTransform="matrix(0.71186441,0,0,0.71186441,2.44068,2.4406779)"
       gradientUnits="userSpaceOnUse"
       xlink:href="#linearGradient4812"
       id="linearGradient4040"
       y2="94.28125"
       x2="67.482368"
       y1="56.386875"
       x1="69.893959" />
    <linearGradient
       id="linearGradient4938">
      <stop
         offset="0"
         style="stop-color:#202020;stop-opacity:1"
         id="stop4940" />
      <stop
         offset="1"
         style="stop-color:#727272;stop-opacity:1"
         id="stop4942" />
    </linearGradient>
    <linearGradient
       id="linearGradient4812">
      <stop
         offset="0"
         style="stop-color:#ffffff;stop-opacity:1"
         id="stop4814" />
      <stop
         offset="1"
         style="stop-color:#ffffff;stop-opacity:0"
         id="stop4816" />
    </linearGradient>
    <linearGradient
       id="linearGradient5137">
      <stop
         offset="0"
         style="stop-color:#000000;stop-opacity:1"
         id="stop5139" />
      <stop
         offset="1"
         style="stop-color:#000000;stop-opacity:0"
         id="stop5141" />
    </linearGradient>
    <linearGradient
       id="linearGradient3231">
      <stop
         offset="0"
         style="stop-color:#514e4d;stop-opacity:1"
         id="stop3233" />
      <stop
         offset="1"
         style="stop-color:#767372;stop-opacity:1"
         id="stop3235" />
    </linearGradient>
    <linearGradient
       gradientTransform="matrix(1.0172414,0,0,1.0172414,-1.1034483,-1.1034483)"
       gradientUnits="userSpaceOnUse"
       id="linearGradient5051"
       y2="5.4252338"
       x2="58.650177"
       y1="122"
       x1="58.650177">
      <stop
         offset="0"
         style="stop-color:#dcdcdc;stop-opacity:1"
         id="stop5053" />
      <stop
         offset="0.40241864"
         style="stop-color:#e4e4e4;stop-opacity:1"
         id="stop5057" />
      <stop
         offset="1"
         style="stop-color:#f0f0f0;stop-opacity:1"
         id="stop5055" />
    </linearGradient>
    <linearGradient
       spreadMethod="pad"
       gradientTransform="matrix(1.0172414,0,0,1.0172414,-1.1034483,-1.1034483)"
       gradientUnits="userSpaceOnUse"
       xlink:href="#linearGradient5051"
       id="linearGradient5059"
       y2="5.4252338"
       x2="58.650177"
       y1="122"
       x1="58.650177">
      <stop
         offset="0"
         style="stop-color:#dcdcdc;stop-opacity:1"
         id="stop5061" />
      <stop
         offset="0.40241864"
         style="stop-color:#e4e4e4;stop-opacity:1"
         id="stop5065" />
      <stop
         offset="1"
         style="stop-color:#f0f0f0;stop-opacity:1"
         id="stop5063" />
    </linearGradient>
    <linearGradient
       spreadMethod="pad"
       gradientTransform="matrix(1.0172414,0,0,1.0172414,-1.1034483,-1.1034483)"
       gradientUnits="userSpaceOnUse"
       xlink:href="#linearGradient5059"
       id="linearGradient5095"
       y2="5.4252338"
       x2="58.650177"
       y1="122"
       x1="58.650177">
      <stop
         offset="0"
         style="stop-color:#dcdcdc;stop-opacity:1"
         id="stop5097" />
      <stop
         offset="0.89612097"
         style="stop-color:#f5f5f5;stop-opacity:1"
         id="stop5099" />
      <stop
         offset="1"
         style="stop-color:#8d8d8d;stop-opacity:1"
         id="stop5101" />
    </linearGradient>
    <linearGradient
       gradientTransform="matrix(0.79888068,0,0,0.79888068,-2.8215905,1.206716)"
       gradientUnits="userSpaceOnUse"
       xlink:href="#linearGradient5095"
       id="linearGradient5172"
       y2="5.4252338"
       x2="58.650177"
       y1="122"
       x1="58.650177" />
    <clipPath
       id="clipPath3613">
      <rect
         style="fill:#ffffff;fill-opacity:1;fill-rule:nonzero;stroke:none"
         id="rect3615"
         y="6"
         x="6"
         ry="6"
         rx="6"
         height="84"
         width="84" />
    </clipPath>
    <radialGradient
       gradientTransform="matrix(1.1573129,0,0,0.99590774,-7.5510206,0.19713193)"
       gradientUnits="userSpaceOnUse"
       xlink:href="#linearGradient3737"
       id="radialGradient3619"
       fy="90.171875"
       fx="48"
       r="42"
       cy="90.171875"
       cx="48" />
    <linearGradient
       gradientUnits="userSpaceOnUse"
       xlink:href="#linearGradient3737"
       id="linearGradient3613"
       y2="138.66119"
       x2="48"
       y1="20.220806"
       x1="48" />
    <filter
       id="filter3794"
       color-interpolation-filters="sRGB"
       height="1.3839999"
       width="1.3839999"
       y="-0.192"
       x="-0.192">
      <feGaussianBlur
         stdDeviation="5.28"
         id="feGaussianBlur3796" />
    </filter>
    <linearGradient
       gradientUnits="userSpaceOnUse"
       xlink:href="#linearGradient3737"
       id="linearGradient3188"
       y2="63.893143"
       x2="36.357143"
       y1="6"
       x1="36.357143" />
    <filter
       id="filter3174"
       color-interpolation-filters="sRGB">
      <feGaussianBlur
         stdDeviation="1.71"
         id="feGaussianBlur3176" />
    </filter>
    <linearGradient
       id="linearGradient3737">
      <stop
         offset="0"
         style="stop-color:#ffffff;stop-opacity:1"
         id="stop3739" />
      <stop
         offset="1"
         style="stop-color:#ffffff;stop-opacity:0"
         id="stop3741" />
    </linearGradient>
    <linearGradient
       gradientTransform="scale(1.0058652,0.994169)"
       gradientUnits="userSpaceOnUse"
       id="ButtonShadow"
       y2="7.0165396"
       x2="45.447727"
       y1="92.539597"
       x1="45.447727">
      <stop
         offset="0"
         style="stop-color:#000000;stop-opacity:1"
         id="stop3750" />
      <stop
         offset="1"
         style="stop-color:#000000;stop-opacity:0.58823532"
         id="stop3752" />
    </linearGradient>
    <linearGradient
       inkscape:collect="always"
       xlink:href="#linearGradient3737"
       id="linearGradient3387"
       gradientUnits="userSpaceOnUse"
       x1="48"
       y1="20.220806"
       x2="48"
       y2="138.66119" />
    <radialGradient
       inkscape:collect="always"
       xlink:href="#linearGradient3737"
       id="radialGradient3394"
       gradientUnits="userSpaceOnUse"
       gradientTransform="matrix(1.1573129,0,0,0.99590774,34.892029,435.84466)"
       cx="48"
       cy="90.171875"
       fx="48"
       fy="90.171875"
       r="42" />
    <linearGradient
       inkscape:collect="always"
       xlink:href="#linearGradient3737"
       id="linearGradient3397"
       gradientUnits="userSpaceOnUse"
       x1="36.357143"
       y1="6"
       x2="36.357143"
       y2="63.893143"
       gradientTransform="translate(42.443049,435.64753)" />
    <linearGradient
       inkscape:collect="always"
       xlink:href="#linearGradient3231"
       id="linearGradient3400"
       gradientUnits="userSpaceOnUse"
       gradientTransform="matrix(-0.71186441,0,0,0.71186441,136.00237,438.08821)"
       x1="99.265793"
       y1="123"
       x2="99.265793"
       y2="4.8938489" />
    <linearGradient
       inkscape:collect="always"
       xlink:href="#linearGradient3231"
       id="linearGradient3402"
       gradientUnits="userSpaceOnUse"
       gradientTransform="matrix(-0.71186441,0,0,0.71186441,136.00237,438.08821)"
       x1="79.513893"
       y1="16"
       x2="95.671806"
       y2="23.497499" />
    <linearGradient
       inkscape:collect="always"
       xlink:href="#linearGradient3231"
       id="linearGradient3404"
       gradientUnits="userSpaceOnUse"
       gradientTransform="matrix(0.71186441,0,0,0.71186441,44.883729,438.08821)"
       x1="99.265793"
       y1="123"
       x2="99.265793"
       y2="4.8938489" />
    <linearGradient
       inkscape:collect="always"
       xlink:href="#linearGradient5137"
       id="linearGradient3406"
       gradientUnits="userSpaceOnUse"
       gradientTransform="matrix(0.71186441,0,0,0.71186441,101.83288,438.08821)"
       x1="-32.47403"
       y1="31.632919"
       x2="-28.793009"
       y2="30.388597" />
    <linearGradient
       inkscape:collect="always"
       xlink:href="#linearGradient3231"
       id="linearGradient3408"
       gradientUnits="userSpaceOnUse"
       gradientTransform="matrix(0.71186441,0,0,0.71186441,44.883729,438.08821)"
       x1="123.49389"
       y1="34.894093"
       x2="87.676254"
       y2="19" />
    <linearGradient
       inkscape:collect="always"
       xlink:href="#linearGradient4812"
       id="linearGradient3410"
       gradientUnits="userSpaceOnUse"
       gradientTransform="matrix(0.71186441,0,0,0.71186441,44.883729,438.08821)"
       x1="69.893959"
       y1="56.386875"
       x2="67.482368"
       y2="94.28125" />
    <linearGradient
       inkscape:collect="always"
       xlink:href="#linearGradient5137"
       id="linearGradient3424"
       gradientUnits="userSpaceOnUse"
       gradientTransform="matrix(-0.71186441,0,0,0.71186441,79.043039,438.08821)"
       x1="-32.47403"
       y1="31.632919"
       x2="-28.793009"
       y2="30.388597" />
    <linearGradient
       inkscape:collect="always"
       xlink:href="#linearGradient5081"
       id="linearGradient3461"
       gradientUnits="userSpaceOnUse"
       gradientTransform="matrix(-0.64339645,0,0,0.65538394,131.65242,438.37061)"
       x1="43.475822"
       y1="10.529735"
       x2="57.253754"
       y2="12.778483" />
    <linearGradient
       inkscape:collect="always"
       xlink:href="#linearGradient5081"
       id="linearGradient3464"
       gradientUnits="userSpaceOnUse"
       gradientTransform="matrix(0.64339645,0,0,0.65538394,49.245569,438.37061)"
       x1="52.470821"
       y1="5.2826524"
       x2="47.759033"
       y2="12.028901" />
    <linearGradient
       inkscape:collect="always"
       xlink:href="#linearGradient5137-9"
       id="linearGradient3471"
       gradientUnits="userSpaceOnUse"
       gradientTransform="matrix(0.69714873,0,0,0.69714873,45.983959,437.58451)"
       x1="63.582283"
       y1="28.055578"
       x2="69.918655"
       y2="51.703251" />
    <linearGradient
       inkscape:collect="always"
       xlink:href="#linearGradient5118"
       id="linearGradient3474"
       gradientUnits="userSpaceOnUse"
       gradientTransform="matrix(0.69714873,0,0,0.69714873,45.983959,437.58451)"
       x1="54.880836"
       y1="54.138271"
       x2="64.706467"
       y2="55" />
    <linearGradient
       inkscape:collect="always"
       xlink:href="#linearGradient5118"
       id="linearGradient3477"
       gradientUnits="userSpaceOnUse"
       gradientTransform="matrix(0.69714873,0,0,0.69714873,45.983959,437.58451)"
       x1="58.409904"
       y1="22.808496"
       x2="64.606834"
       y2="21.933983" />
    <linearGradient
       inkscape:collect="always"
       xlink:href="#linearGradient5095"
       id="linearGradient3485"
       gradientUnits="userSpaceOnUse"
       gradientTransform="matrix(0.79888068,0,0,0.79888068,39.621459,436.85425)"
       x1="58.650177"
       y1="122"
       x2="58.650177"
       y2="5.4252338" />
    <linearGradient
       inkscape:collect="always"
       xlink:href="#ButtonShadow-0"
       id="linearGradient3489"
       gradientUnits="userSpaceOnUse"
       gradientTransform="translate(42.443049,-532.64753)"
       x1="32.251034"
       y1="6.1317081"
       x2="32.251034"
       y2="90.238609" />
    <linearGradient
       inkscape:collect="always"
       xlink:href="#ButtonShadow-0"
       id="linearGradient3492"
       gradientUnits="userSpaceOnUse"
       gradientTransform="matrix(1.0238095,0,0,1.0119048,41.300189,-533.71896)"
       x1="32.251034"
       y1="6.1317081"
       x2="32.251034"
       y2="90.238609" />
    <linearGradient
       inkscape:collect="always"
       xlink:href="#ButtonShadow-0"
       id="linearGradient3495"
       gradientUnits="userSpaceOnUse"
       gradientTransform="matrix(1.0238095,0,0,-1.0119048,41.300189,533.71896)"
       x1="32.251034"
       y1="6.1317081"
       x2="32.251034"
       y2="90.238609" />
    <linearGradient
       inkscape:collect="always"
       xlink:href="#ButtonShadow-0"
       id="linearGradient3498"
       gradientUnits="userSpaceOnUse"
       gradientTransform="matrix(1.0238095,0,0,-1.0119048,41.300189,533.71896)"
       x1="32.251034"
       y1="6.1317081"
       x2="32.251034"
       y2="90.238609" />
    <linearGradient
       inkscape:collect="always"
       xlink:href="#ButtonShadow-0"
       id="linearGradient3501"
       gradientUnits="userSpaceOnUse"
       gradientTransform="matrix(1.0238095,0,0,-1.0119048,41.300189,533.71896)"
       x1="32.251034"
       y1="6.1317081"
       x2="32.251034"
       y2="90.238609" />
    <linearGradient
       inkscape:collect="always"
       xlink:href="#ButtonShadow"
       id="linearGradient3504"
       gradientUnits="userSpaceOnUse"
       gradientTransform="matrix(1.0058652,0,0,0.994169,126.28571,428.57646)"
       x1="45.447727"
       y1="92.539597"
       x2="45.447727"
       y2="7.0165396" />
    <linearGradient
       inkscape:collect="always"
       xlink:href="#linearGradient4938"
       id="linearGradient3524"
       gradientUnits="userSpaceOnUse"
       x1="65.92762"
       y1="99.265976"
       x2="74.494286"
       y2="99.265976" />
    <linearGradient
       inkscape:collect="always"
       xlink:href="#linearGradient4938"
       id="linearGradient3526"
       gradientUnits="userSpaceOnUse"
       x1="65.92762"
       y1="99.265976"
       x2="74.494286"
       y2="99.265976" />
    <linearGradient
       inkscape:collect="always"
       xlink:href="#linearGradient4938"
       id="linearGradient3529"
       gradientUnits="userSpaceOnUse"
       x1="65.92762"
       y1="99.265976"
       x2="74.494286"
       y2="99.265976"
       gradientTransform="matrix(0.36939498,0.36939498,-0.36939498,0.36939498,104.02329,443.82327)" />
    <linearGradient
       inkscape:collect="always"
       xlink:href="#linearGradient4938"
       id="linearGradient3532"
       gradientUnits="userSpaceOnUse"
       x1="65.92762"
       y1="99.265976"
       x2="74.494286"
       y2="99.265976"
       gradientTransform="matrix(-0.47006785,-0.47006785,0.47006785,-0.47006785,79.632299,586.09323)" />
    <linearGradient
       inkscape:collect="always"
       xlink:href="#linearGradient3737"
       id="linearGradient3540"
       gradientUnits="userSpaceOnUse"
       x1="48"
       y1="20.220806"
       x2="48"
       y2="138.66119" />
    <clipPath
       clipPathUnits="userSpaceOnUse"
       id="clipPath3562">
      <rect
         ry="18.839708"
         y="482.42102"
         x="238.88438"
         height="259.66315"
         width="256.59088"
         id="rect3564"
         style="color:#000000;fill:#1e1e1e;fill-opacity:1;fill-rule:nonzero;stroke:none;stroke-width:1px;marker:none;visibility:visible;display:inline;overflow:visible;enable-background:accumulate" />
    </clipPath>
    <linearGradient
       inkscape:collect="always"
       xlink:href="#linearGradient3737"
       id="linearGradient3618"
       gradientUnits="userSpaceOnUse"
       x1="48"
       y1="20.220806"
       x2="48"
       y2="138.66119" />
    <linearGradient
       inkscape:collect="always"
       xlink:href="#linearGradient3737"
       id="linearGradient3205"
       gradientUnits="userSpaceOnUse"
       x1="48"
       y1="20.220806"
       x2="48"
       y2="138.66119" />
    <linearGradient
       inkscape:collect="always"
       xlink:href="#linearGradient3737"
       id="linearGradient3236"
       gradientUnits="userSpaceOnUse"
       x1="48"
       y1="20.220806"
       x2="48"
       y2="138.66119" />
    <linearGradient
       inkscape:collect="always"
       xlink:href="#linearGradient3737"
       id="linearGradient3265"
       gradientUnits="userSpaceOnUse"
       x1="48"
       y1="20.220806"
       x2="48"
       y2="138.66119" />
    <linearGradient
       inkscape:collect="always"
       xlink:href="#linearGradient3737"
       id="linearGradient3293"
       gradientUnits="userSpaceOnUse"
       x1="48"
       y1="20.220806"
       x2="48"
       y2="138.66119" />
    <linearGradient
       inkscape:collect="always"
       xlink:href="#ButtonShadow-0"
       id="linearGradient3306"
       gradientUnits="userSpaceOnUse"
       gradientTransform="matrix(1.0238095,0,0,-1.0119048,41.300189,533.71896)"
       x1="32.251034"
       y1="6.1317081"
       x2="32.251034"
       y2="90.238609" />
    <linearGradient
       inkscape:collect="always"
       xlink:href="#ButtonShadow-0"
       id="linearGradient3308"
       gradientUnits="userSpaceOnUse"
       gradientTransform="matrix(1.0238095,0,0,-1.0119048,41.300189,533.71896)"
       x1="32.251034"
       y1="6.1317081"
       x2="32.251034"
       y2="90.238609" />
    <linearGradient
       inkscape:collect="always"
       xlink:href="#ButtonShadow-0"
       id="linearGradient3310"
       gradientUnits="userSpaceOnUse"
       gradientTransform="matrix(1.0238095,0,0,-1.0119048,41.300189,533.71896)"
       x1="32.251034"
       y1="6.1317081"
       x2="32.251034"
       y2="90.238609" />
    <linearGradient
       inkscape:collect="always"
       xlink:href="#ButtonShadow-0"
       id="linearGradient3312"
       gradientUnits="userSpaceOnUse"
       gradientTransform="matrix(1.0238095,0,0,1.0119048,41.300189,-533.71896)"
       x1="32.251034"
       y1="6.1317081"
       x2="32.251034"
       y2="90.238609" />
    <linearGradient
       inkscape:collect="always"
       xlink:href="#ButtonShadow-0"
       id="linearGradient3314"
       gradientUnits="userSpaceOnUse"
       gradientTransform="translate(42.443049,-532.64753)"
       x1="32.251034"
       y1="6.1317081"
       x2="32.251034"
       y2="90.238609" />
    <linearGradient
       inkscape:collect="always"
       xlink:href="#linearGradient3737"
       id="linearGradient3316"
       gradientUnits="userSpaceOnUse"
       gradientTransform="translate(42.443049,435.64753)"
       x1="36.357143"
       y1="6"
       x2="36.357143"
       y2="63.893143" />
    <radialGradient
       inkscape:collect="always"
       xlink:href="#linearGradient3737"
       id="radialGradient3318"
       gradientUnits="userSpaceOnUse"
       gradientTransform="matrix(1.1573129,0,0,0.99590774,34.892029,435.84466)"
       cx="48"
       cy="90.171875"
       fx="48"
       fy="90.171875"
       r="42" />
    <linearGradient
       inkscape:collect="always"
       xlink:href="#linearGradient3737"
       id="linearGradient3320"
       gradientUnits="userSpaceOnUse"
       x1="48"
       y1="20.220806"
       x2="48"
       y2="138.66119" />
    <linearGradient
       inkscape:collect="always"
       xlink:href="#linearGradient3737"
       id="linearGradient3332"
       gradientUnits="userSpaceOnUse"
       x1="48"
       y1="20.220806"
       x2="48"
       y2="138.66119" />
    <radialGradient
       inkscape:collect="always"
       xlink:href="#linearGradient3737"
       id="radialGradient4139"
       gradientUnits="userSpaceOnUse"
       gradientTransform="matrix(1.1573129,0,0,0.99590774,34.892029,435.84466)"
       cx="48"
       cy="90.171875"
       fx="48"
       fy="90.171875"
       r="42" />
    <linearGradient
       inkscape:collect="always"
       xlink:href="#linearGradient3737"
       id="linearGradient4142"
       gradientUnits="userSpaceOnUse"
       gradientTransform="translate(42.443049,435.64753)"
       x1="36.357143"
       y1="6"
       x2="36.357143"
       y2="63.893143" />
    <linearGradient
       inkscape:collect="always"
       xlink:href="#ButtonShadow-0"
       id="linearGradient4145"
       gradientUnits="userSpaceOnUse"
       gradientTransform="translate(42.443049,-532.64753)"
       x1="32.251034"
       y1="6.1317081"
       x2="32.251034"
       y2="90.238609" />
    <linearGradient
       inkscape:collect="always"
       xlink:href="#ButtonShadow-0"
       id="linearGradient4148"
       gradientUnits="userSpaceOnUse"
       gradientTransform="matrix(1.0238095,0,0,1.0119048,41.300195,-533.71897)"
       x1="32.251034"
       y1="6.1317081"
       x2="32.251034"
       y2="90.238609" />
    <linearGradient
       inkscape:collect="always"
       xlink:href="#ButtonShadow-0"
       id="linearGradient4151"
       gradientUnits="userSpaceOnUse"
       gradientTransform="matrix(1.0238095,0,0,-1.0119048,41.300189,533.71896)"
       x1="32.251034"
       y1="6.1317081"
       x2="32.251034"
       y2="90.238609" />
    <linearGradient
       inkscape:collect="always"
       xlink:href="#ButtonShadow-0"
       id="linearGradient4154"
       gradientUnits="userSpaceOnUse"
       gradientTransform="matrix(1.0238095,0,0,-1.0119048,41.300189,533.71896)"
       x1="32.251034"
       y1="6.1317081"
       x2="32.251034"
       y2="90.238609" />
    <linearGradient
       inkscape:collect="always"
       xlink:href="#ButtonShadow-0"
       id="linearGradient4157"
       gradientUnits="userSpaceOnUse"
       gradientTransform="matrix(1.0238095,0,0,-1.0119048,41.300189,533.71896)"
       x1="32.251034"
       y1="6.1317081"
       x2="32.251034"
       y2="90.238609" />
    <filter
       id="filter4019"
       inkscape:collect="always">
      <feGaussianBlur
         id="feGaussianBlur4021"
         stdDeviation="16.087627"
         inkscape:collect="always" />
    </filter>
    <linearGradient
       gradientUnits="userSpaceOnUse"
       y2="331.37125"
       x2="377.23792"
       y1="139.97688"
       x1="377.23792"
       id="linearGradient3860"
       xlink:href="#linearGradient3854"
       inkscape:collect="always" />
    <radialGradient
       r="335.63123"
       fy="525.66876"
       fx="377.23792"
       cy="525.66876"
       cx="377.23792"
       gradientTransform="matrix(2.0136983,5.331676e-6,-2.11093e-8,2.2175999,-382.40542,-635.95221)"
       gradientUnits="userSpaceOnUse"
       id="radialGradient3819"
       xlink:href="#linearGradient3821"
       inkscape:collect="always" />
    <radialGradient
       gradientUnits="userSpaceOnUse"
       gradientTransform="matrix(0.8517704,1.0562398e-7,0,0.9613861,-1122.4773,348.03689)"
       r="336.14325"
       fy="513.24353"
       fx="1760.7036"
       cy="513.24353"
       cx="1760.7036"
       id="radialGradient3208"
       xlink:href="#linearGradient2427"
       inkscape:collect="always" />
    <radialGradient
       gradientUnits="userSpaceOnUse"
       gradientTransform="matrix(4.8417716e-8,-1.7996756,0.9373413,-6.2464348e-8,-188.71787,1320.5)"
       r="329.17609"
       fy="603.78839"
       fx="377.23792"
       cy="603.78839"
       cx="377.23792"
       id="radialGradient3636"
       xlink:href="#linearGradient3630"
       inkscape:collect="always" />
    <linearGradient
       id="linearGradient3630">
      <stop
         style="stop-color:#469ff9;stop-opacity:1"
         offset="0"
         id="stop3638" />
      <stop
         id="stop3642"
         offset="0.67284548"
         style="stop-color:#c2cfdc;stop-opacity:0.49803922;" />
      <stop
         id="stop3634"
         offset="1"
         style="stop-color:#47a0fa;stop-opacity:0;" />
    </linearGradient>
    <linearGradient
       id="linearGradient2427">
      <stop
         id="stop2429"
         offset="0"
         style="stop-color:#a6c0ce;stop-opacity:1;" />
      <stop
         style="stop-color:#ffffff;stop-opacity:0;"
         offset="1"
         id="stop2433" />
    </linearGradient>
    <linearGradient
       id="linearGradient3821">
      <stop
         id="stop3823"
         offset="0"
         style="stop-color:#000000;stop-opacity:0;" />
      <stop
         style="stop-color:#000000;stop-opacity:0;"
         offset="0.19851486"
         id="stop3825" />
      <stop
         id="stop3827"
         offset="1"
         style="stop-color:#000000;stop-opacity:1;" />
    </linearGradient>
    <linearGradient
       id="linearGradient3854">
      <stop
         style="stop-color:#e4e6e8;stop-opacity:1;"
         offset="0"
         id="stop3856" />
      <stop
         id="stop3858"
         offset="1"
         style="stop-color:#4f7b8c;stop-opacity:0;" />
    </linearGradient>
    <radialGradient
       inkscape:collect="always"
       xlink:href="#linearGradient9434"
       id="radialGradient9401"
       cx="-75.985519"
       cy="474.43326"
       fx="-75.985519"
       fy="474.43326"
       r="42.183636"
       gradientTransform="matrix(1.0658866,-0.06497798,0.0668448,1.0965096,-36.044943,-42.030778)"
       gradientUnits="userSpaceOnUse" />
    <filter
       inkscape:collect="always"
       id="filter9476"
       x="-0.14223451"
       width="1.284469"
       y="-0.10377724"
       height="1.2075545">
      <feGaussianBlur
         inkscape:collect="always"
         stdDeviation="41.694995"
         id="feGaussianBlur9478" />
    </filter>
    <radialGradient
       inkscape:collect="always"
       xlink:href="#linearGradient9434"
       id="radialGradient9515"
       gradientUnits="userSpaceOnUse"
       gradientTransform="matrix(1.0658866,-0.06497798,0.0668448,1.0965096,-36.044943,-42.030778)"
       cx="-75.985519"
       cy="474.43326"
       fx="-75.985519"
       fy="474.43326"
       r="42.183636" />
    <radialGradient
       inkscape:collect="always"
       xlink:href="#linearGradient3630"
       id="radialGradient9517"
       gradientUnits="userSpaceOnUse"
       gradientTransform="matrix(4.8417716e-8,-1.7996756,0.9373413,-6.2464348e-8,-188.71787,1320.5)"
       cx="377.23792"
       cy="603.78839"
       fx="377.23792"
       fy="603.78839"
       r="329.17609" />
    <radialGradient
       inkscape:collect="always"
       xlink:href="#linearGradient2427"
       id="radialGradient9519"
       gradientUnits="userSpaceOnUse"
       gradientTransform="matrix(0.8517704,1.0562398e-7,0,0.9613861,-1122.4773,348.03689)"
       cx="1760.7036"
       cy="513.24353"
       fx="1760.7036"
       fy="513.24353"
       r="336.14325" />
    <radialGradient
       inkscape:collect="always"
       xlink:href="#linearGradient3821"
       id="radialGradient9521"
       gradientUnits="userSpaceOnUse"
       gradientTransform="matrix(2.0136983,5.331676e-6,-2.11093e-8,2.2175999,-382.40542,-635.95221)"
       cx="377.23792"
       cy="525.66876"
       fx="377.23792"
       fy="525.66876"
       r="335.63123" />
    <linearGradient
       inkscape:collect="always"
       xlink:href="#linearGradient3854"
       id="linearGradient9523"
       gradientUnits="userSpaceOnUse"
       x1="377.23792"
       y1="139.97688"
       x2="377.23792"
       y2="331.37125" />
    <linearGradient
       inkscape:collect="always"
       xlink:href="#ButtonShadow-0"
       id="linearGradient9569"
       gradientUnits="userSpaceOnUse"
       gradientTransform="matrix(1.0238095,0,0,-1.0119048,41.300189,533.71896)"
       x1="32.251034"
       y1="6.1317081"
       x2="32.251034"
       y2="90.238609" />
    <linearGradient
       inkscape:collect="always"
       xlink:href="#ButtonShadow-0"
       id="linearGradient9571"
       gradientUnits="userSpaceOnUse"
       gradientTransform="matrix(1.0238095,0,0,-1.0119048,41.300189,533.71896)"
       x1="32.251034"
       y1="6.1317081"
       x2="32.251034"
       y2="90.238609" />
    <linearGradient
       inkscape:collect="always"
       xlink:href="#ButtonShadow-0"
       id="linearGradient9573"
       gradientUnits="userSpaceOnUse"
       gradientTransform="matrix(1.0238095,0,0,-1.0119048,41.300189,533.71896)"
       x1="32.251034"
       y1="6.1317081"
       x2="32.251034"
       y2="90.238609" />
    <linearGradient
       inkscape:collect="always"
       xlink:href="#ButtonShadow-0"
       id="linearGradient9575"
       gradientUnits="userSpaceOnUse"
       gradientTransform="matrix(1.0238095,0,0,1.0119048,41.300195,-533.71897)"
       x1="32.251034"
       y1="6.1317081"
       x2="32.251034"
       y2="90.238609" />
    <linearGradient
       inkscape:collect="always"
       xlink:href="#ButtonShadow-0"
       id="linearGradient9577"
       gradientUnits="userSpaceOnUse"
       gradientTransform="translate(42.443049,-532.64753)"
       x1="32.251034"
       y1="6.1317081"
       x2="32.251034"
       y2="90.238609" />
    <radialGradient
       inkscape:collect="always"
       xlink:href="#linearGradient9434"
       id="radialGradient9579"
       gradientUnits="userSpaceOnUse"
       gradientTransform="matrix(1.0658866,-0.06497798,0.0668448,1.0965096,-36.044943,-42.030778)"
       cx="-75.985519"
       cy="474.43326"
       fx="-75.985519"
       fy="474.43326"
       r="42.183636" />
    <radialGradient
       inkscape:collect="always"
       xlink:href="#linearGradient3630"
       id="radialGradient9581"
       gradientUnits="userSpaceOnUse"
       gradientTransform="matrix(4.8417716e-8,-1.7996756,0.9373413,-6.2464348e-8,-188.71787,1320.5)"
       cx="377.23792"
       cy="603.78839"
       fx="377.23792"
       fy="603.78839"
       r="329.17609" />
    <radialGradient
       inkscape:collect="always"
       xlink:href="#linearGradient2427"
       id="radialGradient9583"
       gradientUnits="userSpaceOnUse"
       gradientTransform="matrix(0.8517704,1.0562398e-7,0,0.9613861,-1122.4773,348.03689)"
       cx="1760.7036"
       cy="513.24353"
       fx="1760.7036"
       fy="513.24353"
       r="336.14325" />
    <radialGradient
       inkscape:collect="always"
       xlink:href="#linearGradient3821"
       id="radialGradient9585"
       gradientUnits="userSpaceOnUse"
       gradientTransform="matrix(2.0136983,5.331676e-6,-2.11093e-8,2.2175999,-382.40542,-635.95221)"
       cx="377.23792"
       cy="525.66876"
       fx="377.23792"
       fy="525.66876"
       r="335.63123" />
    <linearGradient
       inkscape:collect="always"
       xlink:href="#linearGradient3854"
       id="linearGradient9587"
       gradientUnits="userSpaceOnUse"
       x1="377.23792"
       y1="139.97688"
       x2="377.23792"
       y2="331.37125" />
    <linearGradient
       inkscape:collect="always"
       xlink:href="#linearGradient3737"
       id="linearGradient9589"
       gradientUnits="userSpaceOnUse"
       gradientTransform="translate(42.443049,435.64753)"
       x1="36.357143"
       y1="6"
       x2="36.357143"
       y2="63.893143" />
    <radialGradient
       inkscape:collect="always"
       xlink:href="#linearGradient3737"
       id="radialGradient9591"
       gradientUnits="userSpaceOnUse"
       gradientTransform="matrix(1.1573129,0,0,0.99590774,34.892029,435.84466)"
       cx="48"
       cy="90.171875"
       fx="48"
       fy="90.171875"
       r="42" />
    <linearGradient
       inkscape:collect="always"
       xlink:href="#linearGradient3737"
       id="linearGradient9593"
       gradientUnits="userSpaceOnUse"
       x1="48"
       y1="20.220806"
       x2="48"
       y2="138.66119" />
    <linearGradient
       inkscape:collect="always"
       xlink:href="#ButtonShadow-0"
       id="linearGradient18414"
       gradientUnits="userSpaceOnUse"
       gradientTransform="matrix(1.0238095,0,0,-1.0119048,41.300189,533.71896)"
       x1="32.251034"
       y1="6.1317081"
       x2="32.251034"
       y2="90.238609" />
    <linearGradient
       inkscape:collect="always"
       xlink:href="#ButtonShadow-0"
       id="linearGradient18416"
       gradientUnits="userSpaceOnUse"
       gradientTransform="matrix(1.0238095,0,0,-1.0119048,41.300189,533.71896)"
       x1="32.251034"
       y1="6.1317081"
       x2="32.251034"
       y2="90.238609" />
    <linearGradient
       inkscape:collect="always"
       xlink:href="#ButtonShadow-0"
       id="linearGradient18418"
       gradientUnits="userSpaceOnUse"
       gradientTransform="matrix(1.0238095,0,0,-1.0119048,41.300189,533.71896)"
       x1="32.251034"
       y1="6.1317081"
       x2="32.251034"
       y2="90.238609" />
    <linearGradient
       inkscape:collect="always"
       xlink:href="#ButtonShadow-0"
       id="linearGradient18420"
       gradientUnits="userSpaceOnUse"
       gradientTransform="matrix(1.0238095,0,0,1.0119048,41.300195,-533.71897)"
       x1="32.251034"
       y1="6.1317081"
       x2="32.251034"
       y2="90.238609" />
    <linearGradient
       inkscape:collect="always"
       xlink:href="#ButtonShadow-0"
       id="linearGradient18422"
       gradientUnits="userSpaceOnUse"
       gradientTransform="translate(42.443049,-532.64753)"
       x1="32.251034"
       y1="6.1317081"
       x2="32.251034"
       y2="90.238609" />
    <radialGradient
       inkscape:collect="always"
       xlink:href="#linearGradient9434"
       id="radialGradient18424"
       gradientUnits="userSpaceOnUse"
       gradientTransform="matrix(1.0658866,-0.06497798,0.0668448,1.0965096,-36.044943,-42.030778)"
       cx="-75.985519"
       cy="474.43326"
       fx="-75.985519"
       fy="474.43326"
       r="42.183636" />
    <radialGradient
       inkscape:collect="always"
       xlink:href="#linearGradient3630"
       id="radialGradient18426"
       gradientUnits="userSpaceOnUse"
       gradientTransform="matrix(4.8417716e-8,-1.7996756,0.9373413,-6.2464348e-8,-188.71787,1320.5)"
       cx="377.23792"
       cy="603.78839"
       fx="377.23792"
       fy="603.78839"
       r="329.17609" />
    <radialGradient
       inkscape:collect="always"
       xlink:href="#linearGradient2427"
       id="radialGradient18428"
       gradientUnits="userSpaceOnUse"
       gradientTransform="matrix(0.8517704,1.0562398e-7,0,0.9613861,-1122.4773,348.03689)"
       cx="1760.7036"
       cy="513.24353"
       fx="1760.7036"
       fy="513.24353"
       r="336.14325" />
    <radialGradient
       inkscape:collect="always"
       xlink:href="#linearGradient3821"
       id="radialGradient18430"
       gradientUnits="userSpaceOnUse"
       gradientTransform="matrix(2.0136983,5.331676e-6,-2.11093e-8,2.2175999,-382.40542,-635.95221)"
       cx="377.23792"
       cy="525.66876"
       fx="377.23792"
       fy="525.66876"
       r="335.63123" />
    <linearGradient
       inkscape:collect="always"
       xlink:href="#linearGradient3854"
       id="linearGradient18432"
       gradientUnits="userSpaceOnUse"
       x1="377.23792"
       y1="139.97688"
       x2="377.23792"
       y2="331.37125" />
    <linearGradient
       inkscape:collect="always"
       xlink:href="#linearGradient3737"
       id="linearGradient18434"
       gradientUnits="userSpaceOnUse"
       gradientTransform="translate(42.443049,435.64753)"
       x1="36.357143"
       y1="6"
       x2="36.357143"
       y2="63.893143" />
    <radialGradient
       inkscape:collect="always"
       xlink:href="#linearGradient3737"
       id="radialGradient18436"
       gradientUnits="userSpaceOnUse"
       gradientTransform="matrix(1.1573129,0,0,0.99590774,34.892029,435.84466)"
       cx="48"
       cy="90.171875"
       fx="48"
       fy="90.171875"
       r="42" />
    <linearGradient
       inkscape:collect="always"
       xlink:href="#linearGradient3737"
       id="linearGradient18438"
       gradientUnits="userSpaceOnUse"
       x1="48"
       y1="20.220806"
       x2="48"
       y2="138.66119" />
    <radialGradient
       inkscape:collect="always"
       xlink:href="#linearGradient3737"
       id="radialGradient18442"
       gradientUnits="userSpaceOnUse"
       gradientTransform="matrix(1.1573129,0,0,0.99590774,34.892029,438.03819)"
       cx="48"
       cy="90.171875"
       fx="48"
       fy="90.171875"
       r="42" />
    <linearGradient
       inkscape:collect="always"
       xlink:href="#linearGradient3737"
       id="linearGradient18445"
       gradientUnits="userSpaceOnUse"
       gradientTransform="translate(42.443049,436.454)"
       x1="36.357143"
       y1="6"
       x2="36.357143"
       y2="63.893143" />
    <linearGradient
       inkscape:collect="always"
       xlink:href="#ButtonShadow-0"
       id="linearGradient18482"
       gradientUnits="userSpaceOnUse"
       gradientTransform="translate(42.443049,-532.64753)"
       x1="32.251034"
       y1="6.1317081"
       x2="32.251034"
       y2="90.238609" />
    <linearGradient
       inkscape:collect="always"
       xlink:href="#ButtonShadow-0"
       id="linearGradient18485"
       gradientUnits="userSpaceOnUse"
       gradientTransform="matrix(1.0238095,0,0,1.0119048,41.300195,-533.71897)"
       x1="32.251034"
       y1="6.1317081"
       x2="32.251034"
       y2="90.238609" />
    <linearGradient
       inkscape:collect="always"
       xlink:href="#ButtonShadow-0"
       id="linearGradient18488"
       gradientUnits="userSpaceOnUse"
       gradientTransform="matrix(1.0238095,0,0,-1.0119048,41.300189,533.71896)"
       x1="32.251034"
       y1="6.1317081"
       x2="32.251034"
       y2="90.238609" />
    <linearGradient
       inkscape:collect="always"
       xlink:href="#ButtonShadow-0"
       id="linearGradient18491"
       gradientUnits="userSpaceOnUse"
       gradientTransform="matrix(1.0238095,0,0,-1.0119048,41.300189,533.71896)"
       x1="32.251034"
       y1="6.1317081"
       x2="32.251034"
       y2="90.238609" />
    <linearGradient
       inkscape:collect="always"
       xlink:href="#ButtonShadow-0"
       id="linearGradient18494"
       gradientUnits="userSpaceOnUse"
       gradientTransform="matrix(1.0238095,0,0,-1.0119048,41.300189,533.71896)"
       x1="32.251034"
       y1="6.1317081"
       x2="32.251034"
       y2="90.238609" />
  </defs>
  <sodipodi:namedview
     id="base"
     pagecolor="#ffffff"
     bordercolor="#666666"
     borderopacity="1.0"
     inkscape:pageopacity="0.0"
     inkscape:pageshadow="2"
     inkscape:zoom="3.959798"
     inkscape:cx="31.576152"
     inkscape:cy="27.954155"
     inkscape:document-units="px"
     inkscape:current-layer="layer1"
     showgrid="false"
     fit-margin-top="0"
     fit-margin-left="0"
     fit-margin-right="0"
     fit-margin-bottom="0"
     inkscape:window-width="1600"
     inkscape:window-height="826"
     inkscape:window-x="0"
     inkscape:window-y="25"
     inkscape:window-maximized="1"
     showguides="true"
     inkscape:guide-bbox="true" />
  <metadata
     id="metadata7">
    <rdf:RDF>
      <cc:Work
         rdf:about="">
        <dc:format>image/svg+xml</dc:format>
        <dc:type
           rdf:resource="http://purl.org/dc/dcmitype/StillImage" />
        <dc:title />
      </cc:Work>
    </rdf:RDF>
  </metadata>
  <g
     inkscape:label="Capa 1"
     inkscape:groupmode="layer"
     id="layer1"
     transform="translate(-44.411799,-439.61628)">
    <rect
       style="opacity:0.9;fill:url(#linearGradient3504);fill-opacity:1;fill-rule:nonzero;stroke:none;display:none;filter:url(#filter3174)"
       id="rect3745"
       y="435.57645"
       x="131.28571"
       ry="6"
       rx="6"
       height="85"
       width="86" />
    <path
       style="opacity:0.07999998;fill:url(#linearGradient18494);fill-opacity:1;fill-rule:nonzero;stroke:none;display:inline"
       id="path3786"
       d="m 54.443049,530.67878 c -5.51109,0 -10.03125,-4.52016 -10.03125,-10.03125 l 0,-71 c 0,-5.51109 4.52016,-10.03125 10.03125,-10.03125 l 72.000001,0 c 5.51109,0 10.03125,4.52016 10.03125,10.03125 l 0,71 c 0,5.51109 -4.52016,10.03125 -10.03125,10.03125 l -72.000001,0 z"
       inkscape:connector-curvature="0" />
    <path
       style="opacity:0.1;fill:url(#linearGradient18491);fill-opacity:1;fill-rule:nonzero;stroke:none;display:inline"
       id="path3778"
       d="m 54.443049,529.67878 c -4.97163,0 -9.03125,-4.05962 -9.03125,-9.03125 l 0,-71 c 0,-4.97163 4.05962,-9.03125 9.03125,-9.03125 l 72.000001,0 c 4.97163,0 9.03125,4.05962 9.03125,9.03125 l 0,71 c 0,4.97163 -4.05962,9.03125 -9.03125,9.03125 l -72.000001,0 z"
       inkscape:connector-curvature="0" />
    <path
       style="opacity:0.2;fill:url(#linearGradient18488);fill-opacity:1;fill-rule:nonzero;stroke:none;display:inline"
       id="path3770"
       d="m 54.443049,528.64753 c -4.40913,0 -8,-3.59087 -8,-8 l 0,-71 c 0,-4.40913 3.59087,-8 8,-8 l 72.000001,0 c 4.40913,0 8,3.59087 8,8 l 0,71 c 0,4.40913 -3.59087,8 -8,8 l -72.000001,0 z"
       inkscape:connector-curvature="0" />
    <rect
       style="opacity:0.3;fill:url(#linearGradient18485);fill-opacity:1;fill-rule:nonzero;stroke:none;display:inline"
       id="rect3723"
       transform="scale(1,-1)"
       y="-527.64752"
       x="47.44305"
       ry="7"
       rx="7"
       height="85"
       width="86" />
    <rect
       style="opacity:0.45;fill:url(#linearGradient18482);fill-opacity:1;fill-rule:nonzero;stroke:none;display:inline"
       id="rect3716"
       transform="scale(1,-1)"
       y="-526.64752"
       x="48.443043"
       ry="6"
       rx="6"
       height="84"
       width="84" />
    <g
       id="g9480"
       transform="translate(175.76655,2.0251696)">
      <rect
         ry="6.1945095"
         y="440.43851"
         x="-127.50713"
         height="85.377434"
         width="84.367271"
         id="rect2985"
         style="color:#000000;fill:url(#radialGradient18424);fill-opacity:1;fill-rule:nonzero;stroke:none;stroke-width:1px;marker:none;visibility:visible;display:inline;overflow:visible;enable-background:accumulate" />
      <path
         transform="translate(44.411799,439.61628)"
         id="rect9411"
         d="m -87.5625,33.6875 c -1.378163,0.896865 -2.752456,1.73224 -4.125,2.46875 -3.081727,1.653661 -6.172721,2.902989 -9.21875,3.84375 -3.04603,0.940761 -6.06237,1.577513 -9.0625,1.9375 -3.00013,0.359987 -5.96221,0.46366 -8.90625,0.375 -2.94404,-0.08866 -5.87225,-0.376071 -8.75,-0.78125 -2.87775,-0.405179 -5.69873,-0.941678 -8.5,-1.53125 -5.60253,-1.179144 -11.04584,-2.594796 -16.28125,-3.71875 -2.6177,-0.561977 -5.20812,-1.056261 -7.71875,-1.40625 -2.51063,-0.349989 -4.9504,-0.556626 -7.34375,-0.5625 -1.5169,-0.0037 -2.97105,0.228384 -4.4375,0.40625 l 0,45.28125 c 0,3.431758 2.75574,6.1875 6.1875,6.1875 l 71.96875,0 c 3.431758,0 6.1875,-2.755742 6.1875,-6.1875 l 0,-46.3125 z"
         style="opacity:0.25311202;color:#000000;fill:#000000;fill-opacity:1;fill-rule:nonzero;stroke:none;stroke-width:1px;marker:none;visibility:visible;display:inline;overflow:visible;enable-background:accumulate"
         inkscape:connector-curvature="0" />
      <g
         style="fill:#191d1f;fill-opacity:1;display:inline;filter:url(#filter9476);enable-background:new"
         id="g9442"
         transform="matrix(0.06069546,0,0,0.06069546,-106.96955,455.29686)">
        <g
           style="fill:#191d1f;fill-opacity:1"
           inkscape:label="shadow"
           id="g9444">
          <path
             d="M 391.15625,63.90625 C 383.70347,68.391112 377.58774,78.559504 366.28125,88 265.21191,193.2072 181.24959,316.79625 130.125,453.625 a 10.17751,10.17751 0 0 1 -0.0312,0.0312 C 91.554406,555.27532 67.677992,662.29241 54.40625,770.4375 c -0.0052,0.0423 -0.02606,0.0827 -0.03125,0.125 -1.755062,25.31552 -9.586676,47.70514 -4.96875,66.96875 0.51613,0.24378 1.341553,0.3728 3.28125,0.5 3.32002,0.21772 8.347253,-0.43894 14.40625,0.1875 l 0,-0.0312 c 0.09344,0.008 0.187798,0.0236 0.28125,0.0312 45.21503,3.70691 91.6433,10.17408 134.96875,28.3125 a 10.17751,10.17751 0 0 1 0.0312,0 C 273.89413,896.83359 332.06753,949.13288 384,1003.5 c 3.41592,3.4948 11.7957,3.5631 14.4375,-0.125 a 10.17751,10.17751 0 0 1 1.28125,-1.4688 c 44.70235,-42.28044 89.12324,-88.73341 146.625,-118.5312 0.0411,-0.0221 0.0839,-0.0404 0.125,-0.0625 38.3378,-20.62891 80.36135,-34.50801 123.625,-40.21875 l 0,0.0312 c 13.05644,-3.36872 25.58223,-2.51715 36.5625,-2.59375 11.05942,-0.0771 20.09521,-1.06955 27.8125,-5.75 0.9909,-0.93239 1.38464,-1.9041 1.4375,-4.8125 0.0586,-3.22434 -0.80781,-7.8134 -1.65625,-12.5 a 10.17751,10.17751 0 0 1 -0.125,-0.6875 C 718.24976,674.16401 690.30735,531.50075 630.65625,401.40625 a 10.17751,10.17751 0 0 1 0,-0.0312 C 573.29495,275.10776 491.13336,159.81783 391.15625,63.90625 z"
             id="path9446"
             style="opacity:0.58482139;fill:#191d1f;fill-opacity:1;display:inline;filter:url(#filter4019);enable-background:new"
             inkscape:original="M 390.34375 52.96875 C 376.603 58.16481 369.86982 72.124321 358.9375 80.9375 C 257.06058 186.98534 172.29315 311.69533 120.59375 450.0625 C 81.694156 552.63146 57.630878 660.46359 44.28125 769.3125 C 42.703194 793.49656 33.072327 818.26904 40 842.3125 C 45.705537 850.91855 57.566466 847.38652 66.25 848.34375 C 111.15328 852.01429 156.60082 858.40419 198.40625 875.90625 C 267.90136 905.35102 325.1424 956.62236 376.71875 1010.625 C 384.65367 1018.7431 399.8862 1018.8512 406.71875 1009.3125 C 451.69437 966.77355 495.55508 921.12384 551.15625 892.34375 C 588.46822 872.24856 629.4028 858.73602 671.4375 853.1875 C 694.08508 846.80656 719.86349 856.33138 740.65625 843 C 748.73118 836.38246 745.85039 824.49641 744.25 815.65625 C 728.31221 672.47708 700.22928 528.71617 639.90625 397.15625 C 581.61913 268.85105 498.05535 151.80516 396.25 54.625 C 394.58398 53.432958 392.39272 52.672756 390.34375 52.96875 z "
             inkscape:radius="-10.176493"
             sodipodi:type="inkscape:offset" />
        </g>
        <g
           style="fill:#191d1f;fill-opacity:1;display:inline"
           id="g9448"
           inkscape:label="Layer 1">
          <g
             style="fill:#191d1f;fill-opacity:1"
             id="g9450">
            <path
               id="path9452"
               d="m 378.1875,50.78125 c -2.96236,-0.09066 -5.82424,1.079077 -7.875,3.21875 -29.59003,30.877495 -59.66374,65.52306 -86.84375,98.5 -0.0316,0.0414 -0.0628,0.0831 -0.0937,0.125 C 216.39692,236.15433 165.48764,321.98049 128.5938,413.875 94.225952,499.47777 74.132038,573.53187 55.8438,681.40625 51.838929,705.02896 47.791912,733.65373 45,756.6875 c -1.395956,11.51688 -2.479806,21.62104 -3.09375,29.09375 -0.306972,3.73635 -0.485823,6.80156 -0.53125,9.28125 -0.02271,1.23984 -0.0263,2.27355 0.09375,3.5625 0.06003,0.64448 0.116328,1.33217 0.4375,2.5 0.321172,1.16783 0.05906,3.53835 4.75,6.4375 2.53132,1.5645 2.872036,1.25545 3.5,1.40625 0.627964,0.1508 1.114391,0.26043 1.625,0.34375 1.021219,0.16665 2.105586,0.27412 3.34375,0.40625 2.476327,0.26426 5.542631,0.51019 8.78125,0.6875 25.680126,1.40591 63.54914,7.93128 88.65625,15.28125 16.95014,4.96204 28.10958,9.06713 44.65625,16.40625 3.82288,1.6956 7.32851,3.24619 9.9375,4.375 1.3045,0.5644 2.37544,1.00367 3.1875,1.34375 0.38203,0.15999 0.72066,0.28279 1.03125,0.40625 0.0195,0.008 0.043,0.0236 0.0625,0.0312 0.005,0.002 0.0258,-0.003 0.0312,0 0.011,0.004 0.0203,0.0269 0.0312,0.0312 0.11631,0.0604 0.23661,0.11198 0.4375,0.21875 -0.0119,-0.0275 -0.0543,-0.0784 -0.0937,-0.0937 0.0588,0.0218 0.0827,0.0363 0.15625,0.0625 0.13196,0.047 0.27515,0.12393 0.59375,0.21875 0.12568,0.0374 0.22161,0.10822 0.375,0.1875 -0.0737,-0.0173 -0.35088,-0.0129 -0.40625,-0.0312 0.73325,0.39462 1.60371,0.88375 2.78125,1.53125 2.80093,1.54016 6.64897,3.67379 10.84375,6.03125 40.52196,22.77336 70.82614,46.25776 119.21875,92.625 6.37566,6.1088 12.31679,11.65041 16.8125,15.75 2.24786,2.04979 4.11468,3.73663 5.59375,5 0.73953,0.63168 1.36465,1.14641 2.03125,1.65625 0.3333,0.25492 0.65593,0.51682 1.21875,0.875 0.28141,0.17909 0.62679,0.38732 1.25,0.6875 0.62321,0.30018 1.24332,0.89056 4.125,1.03125 3.45229,0.16841 4.16872,-0.59022 4.875,-0.90625 0.70628,-0.31603 1.069,-0.53075 1.375,-0.71875 0.612,-0.376 0.95595,-0.63916 1.3125,-0.90625 0.7131,-0.53419 1.35659,-1.07749 2.15625,-1.75 1.59932,-1.34501 3.6419,-3.16839 6.09375,-5.375 4.9037,-4.41321 11.39113,-10.40884 18.375,-17.03125 40.03124,-37.95938 59.4088,-54.00555 87.28125,-72.5 60.86863,-40.3887 115.10891,-58.3158 198.375,-65.34375 l 6.75,-0.5625 c 5.42647,-0.45316 9.59853,-4.99215 9.59375,-10.4375 l 0,-3.96875 C 712.62502,786.25729 710.65608,769.16852 708,748 705.34392,726.83148 701.94618,702.73759 698.875,684.4375 680.6084,575.5932 659.84081,498.93313 625.03125,412.25 593.67267,334.16054 548.77858,255.27854 495.125,183.875 c -0.12049,-0.1598 -0.24554,-0.31612 -0.375,-0.46875 C 458.63494,140.6552 423.70101,95.784759 385.59375,54.1875 c -1.90683,-2.089856 -4.57856,-3.318629 -7.40625,-3.40625 l 0,0 z"
               style="fill:#191d1f;fill-opacity:1"
               inkscape:connector-curvature="0" />
            <path
               sodipodi:nodetypes="ccccccccccccccccccccccccccccccccc"
               id="path9454"
               d="M 377.23791,641.59412 455.54373,132.18981 380.26869,47.829869 298.50444,138.67904 377.23791,641.59412 197.2725,290.52695 137.21247,402.04484 377.23791,641.59412 99.878778,497.18819 75.716718,592.98024 377.23791,641.59412 54.509504,692.85901 44.679072,810.46593 377.23791,641.59412 184.73574,833.57864 l 76.13118,39.68088 116.37099,-231.6654 -46.70831,289.2923 46.70831,42.71443 47.61717,-42.05859 -47.61717,-289.94814 119.06633,232.31313 71.92438,-40.643 L 377.23791,641.59412 703.03125,808.9375 697.51097,692.49576 377.23791,641.59412 677.85811,598.19576 652.74509,499.85524 377.23791,641.59412 619.25532,403.87847 560.18251,281.08748 377.23791,641.59412 z"
               style="opacity:0.5;fill:#191d1f;fill-opacity:1;fill-rule:evenodd;stroke:none;stroke-width:2.5;marker:none;visibility:visible;display:inline;overflow:visible"
               inkscape:connector-curvature="0" />
          </g>
        </g>
        <g
           style="opacity:0.70089285;fill:#191d1f;fill-opacity:1;display:inline"
           inkscape:label="light"
           id="g9456">
          <path
             style="fill:#191d1f;fill-opacity:1;fill-rule:evenodd;stroke:none;stroke-width:2.5;marker:none;visibility:visible;display:inline;overflow:visible"
             d="M 42.001947,807.89203 C 61.382244,679.31376 115.78309,424.1632 200.81173,273.69532 251.26093,184.4197 332.87192,141.4927 377.23791,141.4927 c 43.06907,0 138.86641,59.21847 181.76909,142.85311 77.65686,151.38456 112.1055,344.94641 155.28145,526.34478 C 507.95007,821.53594 504.6193,891.72269 377.23791,973.02113 304.95556,922.91817 214.67646,822.20717 42.001947,807.89203 z"
             id="path9458"
             sodipodi:nodetypes="cszsccc"
             inkscape:connector-curvature="0" />
        </g>
        <g
           style="fill:#191d1f;fill-opacity:1;display:inline"
           inkscape:label="multiply"
           id="g9460">
          <path
             id="path9462"
             d="m 377.23791,49.968329 c -16.16689,5.66019 -23.42632,22.93617 -35.99129,33.42733 C 258.97773,173.16121 187.3679,273.88754 138.96706,386.04199 92.12883,491.98789 64.86936,605.49804 48.82688,719.92297 c -3.4497,25.4676 -7.18762,51.0071 -8.62066,76.6557 3.07735,17.2491 23.87483,12.0584 36.21337,14.1432 67.91553,6.2362 134.45722,29.7834 189.44355,70.4695 36.13024,25.9498 68.59989,56.6893 100.15541,87.8394 14.59618,10.4447 26.41704,-6.2663 35.811,-15.3404 44.01333,-42.125 90.465,-83.3159 146.37982,-108.9463 47.76452,-23.2468 100.73851,-32.7934 153.33265,-36.6084 16.01415,-4.0116 8.97998,-24.2255 8.22159,-35.9056 C 693.50611,621.33867 658.59469,470.56066 589.05822,334.80497 555.48623,268.91345 515.18219,206.27077 466.92313,150.13913 439.39513,117.06631 412.54806,83.369619 383.08012,51.973019 l -2.76998,-1.44283 -3.07223,-0.56186 0,0 z"
             style="fill:#191d1f;fill-opacity:1;display:inline;enable-background:new"
             inkscape:connector-curvature="0" />
        </g>
        <g
           style="fill:#191d1f;fill-opacity:1;display:inline"
           inkscape:label="light2"
           id="g9464">
          <path
             sodipodi:nodetypes="cszscc"
             id="path9466"
             d="M 44.997827,817.20366 C 77.816727,575.404 141.97182,433.93311 208.14904,312.7767 c 58.982,-107.9835 125.04164,-172.55131 169.40763,-172.55131 43.06907,0 120.40398,82.54206 178.88839,178.87373 94.52885,155.7017 121.4569,253.82429 156.4988,492.62784 l -667.946033,5.4767 z"
             style="fill:#191d1f;fill-opacity:1;fill-rule:evenodd;stroke:none;stroke-width:2.5;marker:none;visibility:visible;display:inline;overflow:visible;enable-background:new"
             inkscape:connector-curvature="0" />
        </g>
        <g
           style="fill:#191d1f;fill-opacity:1;display:inline"
           inkscape:label="black"
           id="g9468">
          <path
             sodipodi:nodetypes="csssssscccsscccsssccscccsscccssssssssssccsssssssssssssssccssssssssssssssssssssssccssssssssssssssssccsssscccssssssssssccsssssssssssssssssssssssc"
             id="path9470"
             d="M 354.17823,967.2099 C 318.79601,932.51308 296.72295,912.94036 272.47167,894.75871 226.63,860.39032 176.96633,837.82949 124.17823,827.39312 103.68028,823.34061 72.40056,819.4785 51.09117,818.36906 41.08212,817.84795 32.69521,817.2239 32.45359,816.98229 31.20575,815.73444 43.7195,720.73078 50.2161,682.13035 80.6638,501.22129 133.78962,360.66359 221.53106,228.87359 261.27894,169.17122 316.72781,101.766 367.13478,51.873587 l 10.10313,-10 20.27887,20.5 C 501.89476,167.88978 582.30219,289.45409 634.97853,421.38112 c 36.37904,91.11072 61.66524,191.95155 78.60936,313.49247 5.32686,38.20986 9.7533,75.95616 9.40409,80.19315 l -0.31375,3.80685 -7,0.23327 c -54.98111,1.8322 -91.01424,7.62163 -129.51485,20.80911 -57.05843,19.54402 -103.78299,50.51021 -165.98515,110.00483 -21.51519,20.57868 -42.06098,39.46577 -42.86347,39.40302 -0.35009,-0.0274 -10.76153,-9.97864 -23.13653,-22.11392 z m 49.30341,-25.7288 c 40.19052,-38.11039 60.32311,-54.83028 88.67035,-73.63977 62.09949,-41.2054 118.87022,-59.93305 203.27624,-67.05721 l 6.75,-0.56972 0,-3.94323 c 0,-12.26504 -7.51772,-72.26699 -13.58127,-108.39758 -18.18552,-108.36115 -38.69267,-183.95468 -73.2461,-270 -30.97906,-77.1444 -75.44684,-155.31597 -128.55977,-226 -36.29597,-42.96521 -71.16336,-87.71614 -108.8879,-128.895633 -29.33704,30.61348 -59.27568,65.069383 -86.33149,97.895633 -66.40834,82.81873 -116.71721,167.74909 -153.21148,258.64835 -34.11835,84.98134 -53.96246,157.9413 -72.17203,265.35165 -7.9307,46.77975 -16.10421,114.20569 -14.00176,115.50507 0.61957,0.38291 6.15868,0.97169 12.30914,1.30841 26.83731,1.46924 64.85029,8.01812 91.0346,15.68344 17.26421,5.054 29.12597,9.40957 45.96086,16.87653 7.59704,3.3696 13.96849,6.12655 14.15877,6.12655 0.19029,0 7.248,3.87894 15.68381,8.61986 41.27213,23.19495 72.64316,47.55233 121.34462,94.21549 12.65,12.12056 23.58653,22.06602 24.30341,22.10102 0.71687,0.035 12.64187,-10.68799 26.5,-23.82886 z m -92.3365,-47.30966 c 2.42451,-6.90393 33.81837,-52.28215 50.17539,-71.9466 4.87173,-5.85682 8.8577,-11.33492 8.8577,-12.17356 0,-1.95004 -32.91053,-30.80077 -50.16219,-45.12282 -7.32721,-6.08293 -24.26849,-16.72987 -23.78729,-16.72987 2.64893,0 52.62908,33.35244 69.44948,47.029 5.5,4.47202 10.675,8.12784 11.5,8.12404 0.825,-0.004 7.35,-4.75278 14.5,-10.55331 13.02287,-10.56498 61.50994,-47.44448 63.68655,-47.42364 0.63715,0.006 -0.41655,1.24335 -2.34155,2.74945 -18.73752,14.66001 -68.845,59.42709 -68.845,61.95334 0,0.85305 3.07637,5.20615 6.83637,9.67356 16.07679,19.10149 44.95664,50.89168 52.37313,64.46256 4.08561,7.47594 2.52791,5.93908 -8.10848,-8 -15.29908,-20.04956 -54.93657,-58.84 -58.23507,-58.84 -3.08277,0 -40.99581,46.00323 -57.16627,67.01 -8.37787,10.88354 -9.59767,12.25072 -8.73277,9.78785 z M 523.22899,820.0392 c -20.12601,-26.59637 -44.06648,-55.37958 -70.42075,-84.66561 -19.24107,-21.38154 -73.19238,-75 -75.46557,-75 -2.39068,0 -39.57854,36.18195 -62.80518,61.10635 -29.93545,32.12358 -63.11315,69.43903 -85.07276,98.29715 -16.20626,21.29738 -16.85469,20.5382 -2.31647,-2.71212 31.78496,-50.83221 80.08501,-113.48108 121.39785,-161.56645 5.84767,-6.80629 10.6409,-12.88129 10.65163,-13.5 0.0243,-1.40082 -21.81635,-22.70834 -39.35227,-38.39168 C 265.75884,555.23419 187.5272,501.47983 133.22314,475.77667 c -7.2725,-3.44222 -12.43645,-6.99169 -11.82088,-7.19688 3.17371,-1.05791 76.59156,34.30914 102.27597,48.81304 48.78235,27.54723 106.83009,67.66422 144.06041,99.56065 4.76352,4.08106 9.01133,7.42011 9.43959,7.42011 0.42826,0 4.67607,-3.33905 9.43959,-7.42011 37.32854,-31.98057 95.15014,-71.94181 144.04812,-99.55348 26.20939,-14.7999 89.97165,-44.48688 95.4372,-44.45092 0.95971,0.006 -23.91861,12.4372 -33.07758,17.31353 -51.91797,27.64169 -105.8344,66.19151 -158.51457,113.33664 -17.5536,15.70927 -39.37655,37.001 -39.35227,38.39434 0.0107,0.61601 5.84372,7.92265 12.9622,16.23699 23.93886,27.96045 49.27259,60.37552 71.23204,91.14301 24.46247,34.27447 59.73246,85.76969 58.31901,87.17854 -0.17806,0.17748 -9.7959,-10.37184 -14.44298,-16.51293 z m -381.1532,-17.70812 c -0.11053,-5.64316 19.21809,-77.40139 29.73947,-109.26704 4.14219,-12.54525 7.27098,-23.4878 6.95287,-24.31678 -1.25652,-3.27442 -36.82118,-18.52017 -62.5899,-26.83083 -18.82583,-6.07151 -40.22777,-10.4934 -39.69109,-11.03008 0.8236,-0.8236 37.13741,5.54541 53.19109,9.45879 17.3313,4.22482 33.27353,8.98605 46.18101,13.79217 7.56364,2.81634 8.29144,2.92133 9.64426,1.39125 0.80478,-0.91023 6.46389,-11.66967 12.57579,-23.90987 12.78477,-25.60383 38.16692,-71.33896 43.20186,-78.5901 4.17878,-6.01812 -1.32356,4.82462 -11.23348,27.84 -7.41833,17.22874 -32.11096,74.63479 -33.41354,79.82467 -0.49915,1.98878 0.42529,2.96935 6.73275,7.14153 19.21803,12.7121 67.17191,50.05525 77.26812,60.76469 4.83122,5.12467 -3.69335,-1.01816 -16.87399,-10.49161 -22.04676,-15.84589 -70.45579,-44.91449 -73.06705,-42.74733 -3.26282,2.7079 -24.78833,55.81389 -35.5638,87.7401 -6.85196,20.30142 -12.99395,42.31548 -13.05437,39.23044 z m 470.3984,2.88751 c -0.33379,-0.825 -9.38141,-30.57 -13.17582,-41.845 -10.76654,-31.99248 -32.34205,-85.27942 -35.63587,-88.01305 -2.6225,-2.17648 -54.50141,30.10355 -76.07541,45.7183 -13.84059,10.01749 -14.39352,10.06721 -4.49037,0.4038 12.94244,-12.62913 52.19849,-43.50046 73.07225,-57.20498 l 2.43081,-1.59592 -3.8315,-10.40408 c -8.44373,-22.92815 -21.80864,-55.00498 -27.85044,-68.61739 -3.51369,-7.91649 -17.42022,-32.87089 -17.42022,-33.24664 0,-1.20962 18.16991,25.86444 24.25931,36.64742 3.25672,5.76693 12.4463,24.61478 20.4213,40.29785 16.97791,33.38758 13.26031,30.77576 33.65025,23.64117 19.75906,-6.91384 63.6948,-17.91657 79.68975,-19.96184 8.92164,-1.14081 -9.22525,3.60469 -28.675,9.80955 -28.65081,9.14018 -61.90746,24.38811 -63.26499,27.9258 -0.32367,0.84344 2.57667,11.11099 6.44519,22.81677 13.50376,40.86112 32.81787,110.46823 31.48511,113.99658 -0.26894,0.712 -0.65251,0.57541 -1.03435,-0.36834 z m -353.73278,-287.245 c 17.6087,-31.73538 60.90684,-94.83692 104.30805,-143.75345 2.27082,-2.5594 4.12877,-5.32396 4.12877,-6.14348 0,-2.43567 -25.19748,-25.9716 -42.96833,-40.13494 -18.91285,-15.07351 -52.10902,-34.14974 -69.46167,-45.75497 -6.7375,-4.50596 -32.095,-19.7374 -32.095,-19.98766 0,-1.01339 35.60806,18.16917 49.04692,25.86876 23.43837,13.42866 69.91739,41.50229 92.64644,60.53498 6.41759,5.37392 12.19183,9.77076 12.83164,9.77076 0.63981,0 6.61824,-4.57086 13.28541,-10.15747 25.0937,-21.02672 66.50412,-53.03432 92.88959,-67.3929 9.20365,-5.00848 42.68,-18.50219 42.68,-17.74647 0,0.25835 -28.6425,14.9126 -35.93,19.79064 -15.75006,10.54261 -51.12716,37.64461 -66.66514,50.36205 -13.92082,11.39384 -36.25986,32.87087 -36.25986,34.86069 0,0.81211 1.85795,3.57061 4.12877,6.13001 36.46783,41.10207 77.11367,95.38259 92.37769,125.03772 7.76152,15.07919 16.28044,26.79587 15.40629,26.79587 -0.29755,0 -3.7999,-4.6125 -7.78302,-10.25 -8.70704,-12.3235 -39.68114,-59.65057 -50.0422,-71.90207 -20.15935,-23.83755 -61.45377,-66.52807 -64.35242,-66.52807 -1.54026,0 -36.74087,35.78156 -51.15573,52 -15.62569,17.58078 -51.09417,68.90263 -61.80657,84.1 -4.36148,6.1875 -8.16058,11.25 -8.44245,11.25 -0.28187,0 1.1729,-3.0375 3.23282,-6.75 z"
             style="fill:#191d1f;fill-opacity:1;display:inline"
             inkscape:connector-curvature="0" />
        </g>
      </g>
      <g
         transform="matrix(0.06713621,0,0,0.06713621,-111.63679,447.20809)"
         id="g4717"
         style="display:inline;enable-background:new">
        <g
           id="layer7"
           inkscape:label="shadow">
          <path
             sodipodi:type="inkscape:offset"
             inkscape:radius="-10.176493"
             inkscape:original="M 390.34375 52.96875 C 376.603 58.16481 369.86982 72.124321 358.9375 80.9375 C 257.06058 186.98534 172.29315 311.69533 120.59375 450.0625 C 81.694156 552.63146 57.630878 660.46359 44.28125 769.3125 C 42.703194 793.49656 33.072327 818.26904 40 842.3125 C 45.705537 850.91855 57.566466 847.38652 66.25 848.34375 C 111.15328 852.01429 156.60082 858.40419 198.40625 875.90625 C 267.90136 905.35102 325.1424 956.62236 376.71875 1010.625 C 384.65367 1018.7431 399.8862 1018.8512 406.71875 1009.3125 C 451.69437 966.77355 495.55508 921.12384 551.15625 892.34375 C 588.46822 872.24856 629.4028 858.73602 671.4375 853.1875 C 694.08508 846.80656 719.86349 856.33138 740.65625 843 C 748.73118 836.38246 745.85039 824.49641 744.25 815.65625 C 728.31221 672.47708 700.22928 528.71617 639.90625 397.15625 C 581.61913 268.85105 498.05535 151.80516 396.25 54.625 C 394.58398 53.432958 392.39272 52.672756 390.34375 52.96875 z "
             style="opacity:0.58482139;fill:#040608;display:inline;filter:url(#filter4019);enable-background:new"
             id="path3977"
             d="M 391.15625,63.90625 C 383.70347,68.391112 377.58774,78.559504 366.28125,88 265.21191,193.2072 181.24959,316.79625 130.125,453.625 a 10.17751,10.17751 0 0 1 -0.0312,0.0312 C 91.554406,555.27532 67.677992,662.29241 54.40625,770.4375 c -0.0052,0.0423 -0.02606,0.0827 -0.03125,0.125 -1.755062,25.31552 -9.586676,47.70514 -4.96875,66.96875 0.51613,0.24378 1.341553,0.3728 3.28125,0.5 3.32002,0.21772 8.347253,-0.43894 14.40625,0.1875 l 0,-0.0312 c 0.09344,0.008 0.187798,0.0236 0.28125,0.0312 45.21503,3.70691 91.6433,10.17408 134.96875,28.3125 a 10.17751,10.17751 0 0 1 0.0312,0 C 273.89413,896.83359 332.06753,949.13288 384,1003.5 c 3.41592,3.4948 11.7957,3.5631 14.4375,-0.125 a 10.17751,10.17751 0 0 1 1.28125,-1.4688 c 44.70235,-42.28044 89.12324,-88.73341 146.625,-118.5312 0.0411,-0.0221 0.0839,-0.0404 0.125,-0.0625 38.3378,-20.62891 80.36135,-34.50801 123.625,-40.21875 l 0,0.0312 c 13.05644,-3.36872 25.58223,-2.51715 36.5625,-2.59375 11.05942,-0.0771 20.09521,-1.06955 27.8125,-5.75 0.9909,-0.93239 1.38464,-1.9041 1.4375,-4.8125 0.0586,-3.22434 -0.80781,-7.8134 -1.65625,-12.5 a 10.17751,10.17751 0 0 1 -0.125,-0.6875 C 718.24976,674.16401 690.30735,531.50075 630.65625,401.40625 a 10.17751,10.17751 0 0 1 0,-0.0312 C 573.29495,275.10776 491.13336,159.81783 391.15625,63.90625 z" />
        </g>
        <g
           inkscape:label="Layer 1"
           id="layer1-3"
           style="display:inline">
          <g
             id="g2829">
            <path
               inkscape:connector-curvature="0"
               style="fill:#0278dc;fill-opacity:1"
               d="m 378.1875,50.78125 c -2.96236,-0.09066 -5.82424,1.079077 -7.875,3.21875 -29.59003,30.877495 -59.66374,65.52306 -86.84375,98.5 -0.0316,0.0414 -0.0628,0.0831 -0.0937,0.125 C 216.39692,236.15433 165.48764,321.98049 128.5938,413.875 94.225952,499.47777 74.132038,573.53187 55.8438,681.40625 51.838929,705.02896 47.791912,733.65373 45,756.6875 c -1.395956,11.51688 -2.479806,21.62104 -3.09375,29.09375 -0.306972,3.73635 -0.485823,6.80156 -0.53125,9.28125 -0.02271,1.23984 -0.0263,2.27355 0.09375,3.5625 0.06003,0.64448 0.116328,1.33217 0.4375,2.5 0.321172,1.16783 0.05906,3.53835 4.75,6.4375 2.53132,1.5645 2.872036,1.25545 3.5,1.40625 0.627964,0.1508 1.114391,0.26043 1.625,0.34375 1.021219,0.16665 2.105586,0.27412 3.34375,0.40625 2.476327,0.26426 5.542631,0.51019 8.78125,0.6875 25.680126,1.40591 63.54914,7.93128 88.65625,15.28125 16.95014,4.96204 28.10958,9.06713 44.65625,16.40625 3.82288,1.6956 7.32851,3.24619 9.9375,4.375 1.3045,0.5644 2.37544,1.00367 3.1875,1.34375 0.38203,0.15999 0.72066,0.28279 1.03125,0.40625 0.0195,0.008 0.043,0.0236 0.0625,0.0312 0.005,0.002 0.0258,-0.003 0.0312,0 0.011,0.004 0.0203,0.0269 0.0312,0.0312 0.11631,0.0604 0.23661,0.11198 0.4375,0.21875 -0.0119,-0.0275 -0.0543,-0.0784 -0.0937,-0.0937 0.0588,0.0218 0.0827,0.0363 0.15625,0.0625 0.13196,0.047 0.27515,0.12393 0.59375,0.21875 0.12568,0.0374 0.22161,0.10822 0.375,0.1875 -0.0737,-0.0173 -0.35088,-0.0129 -0.40625,-0.0312 0.73325,0.39462 1.60371,0.88375 2.78125,1.53125 2.80093,1.54016 6.64897,3.67379 10.84375,6.03125 40.52196,22.77336 70.82614,46.25776 119.21875,92.625 6.37566,6.1088 12.31679,11.65041 16.8125,15.75 2.24786,2.04979 4.11468,3.73663 5.59375,5 0.73953,0.63168 1.36465,1.14641 2.03125,1.65625 0.3333,0.25492 0.65593,0.51682 1.21875,0.875 0.28141,0.17909 0.62679,0.38732 1.25,0.6875 0.62321,0.30018 1.24332,0.89056 4.125,1.03125 3.45229,0.16841 4.16872,-0.59022 4.875,-0.90625 0.70628,-0.31603 1.069,-0.53075 1.375,-0.71875 0.612,-0.376 0.95595,-0.63916 1.3125,-0.90625 0.7131,-0.53419 1.35659,-1.07749 2.15625,-1.75 1.59932,-1.34501 3.6419,-3.16839 6.09375,-5.375 4.9037,-4.41321 11.39113,-10.40884 18.375,-17.03125 40.03124,-37.95938 59.4088,-54.00555 87.28125,-72.5 60.86863,-40.3887 115.10891,-58.3158 198.375,-65.34375 l 6.75,-0.5625 c 5.42647,-0.45316 9.59853,-4.99215 9.59375,-10.4375 l 0,-3.96875 C 712.62502,786.25729 710.65608,769.16852 708,748 705.34392,726.83148 701.94618,702.73759 698.875,684.4375 680.6084,575.5932 659.84081,498.93313 625.03125,412.25 593.67267,334.16054 548.77858,255.27854 495.125,183.875 c -0.12049,-0.1598 -0.24554,-0.31612 -0.375,-0.46875 C 458.63494,140.6552 423.70101,95.784759 385.59375,54.1875 c -1.90683,-2.089856 -4.57856,-3.318629 -7.40625,-3.40625 l 0,0 z"
               id="path3621" />
            <path
               inkscape:connector-curvature="0"
               style="opacity:0.5;fill:url(#radialGradient18426);fill-opacity:1;fill-rule:evenodd;stroke:none;stroke-width:2.5;marker:none;visibility:visible;display:inline;overflow:visible"
               d="M 377.23791,641.59412 455.54373,132.18981 380.26869,47.829869 298.50444,138.67904 377.23791,641.59412 197.2725,290.52695 137.21247,402.04484 377.23791,641.59412 99.878778,497.18819 75.716718,592.98024 377.23791,641.59412 54.509504,692.85901 44.679072,810.46593 377.23791,641.59412 184.73574,833.57864 l 76.13118,39.68088 116.37099,-231.6654 -46.70831,289.2923 46.70831,42.71443 47.61717,-42.05859 -47.61717,-289.94814 119.06633,232.31313 71.92438,-40.643 L 377.23791,641.59412 703.03125,808.9375 697.51097,692.49576 377.23791,641.59412 677.85811,598.19576 652.74509,499.85524 377.23791,641.59412 619.25532,403.87847 560.18251,281.08748 377.23791,641.59412 z"
               id="path3623"
               sodipodi:nodetypes="ccccccccccccccccccccccccccccccccc" />
          </g>
        </g>
        <g
           id="layer4"
           inkscape:label="light"
           style="opacity:0.70089285;display:inline">
          <path
             inkscape:connector-curvature="0"
             sodipodi:nodetypes="cszsccc"
             id="path2415"
             d="M 42.001947,807.89203 C 61.382244,679.31376 115.78309,424.1632 200.81173,273.69532 251.26093,184.4197 332.87192,141.4927 377.23791,141.4927 c 43.06907,0 138.86641,59.21847 181.76909,142.85311 77.65686,151.38456 112.1055,344.94641 155.28145,526.34478 C 507.95007,821.53594 504.6193,891.72269 377.23791,973.02113 304.95556,922.91817 214.67646,822.20717 42.001947,807.89203 z"
             style="fill:url(#radialGradient18428);fill-opacity:1;fill-rule:evenodd;stroke:none;stroke-width:2.5;marker:none;visibility:visible;display:inline;overflow:visible" />
        </g>
        <g
           id="layer5"
           inkscape:label="multiply"
           style="display:inline">
          <path
             inkscape:connector-curvature="0"
             style="fill:url(#radialGradient18430);fill-opacity:1;display:inline;enable-background:new"
             d="m 377.23791,49.968329 c -16.16689,5.66019 -23.42632,22.93617 -35.99129,33.42733 C 258.97773,173.16121 187.3679,273.88754 138.96706,386.04199 92.12883,491.98789 64.86936,605.49804 48.82688,719.92297 c -3.4497,25.4676 -7.18762,51.0071 -8.62066,76.6557 3.07735,17.2491 23.87483,12.0584 36.21337,14.1432 67.91553,6.2362 134.45722,29.7834 189.44355,70.4695 36.13024,25.9498 68.59989,56.6893 100.15541,87.8394 14.59618,10.4447 26.41704,-6.2663 35.811,-15.3404 44.01333,-42.125 90.465,-83.3159 146.37982,-108.9463 47.76452,-23.2468 100.73851,-32.7934 153.33265,-36.6084 16.01415,-4.0116 8.97998,-24.2255 8.22159,-35.9056 C 693.50611,621.33867 658.59469,470.56066 589.05822,334.80497 555.48623,268.91345 515.18219,206.27077 466.92313,150.13913 439.39513,117.06631 412.54806,83.369619 383.08012,51.973019 l -2.76998,-1.44283 -3.07223,-0.56186 0,0 z"
             id="path3213" />
        </g>
        <g
           id="layer6"
           inkscape:label="light2"
           style="display:inline">
          <path
             inkscape:connector-curvature="0"
             style="fill:url(#linearGradient18432);fill-opacity:1;fill-rule:evenodd;stroke:none;stroke-width:2.5;marker:none;visibility:visible;display:inline;overflow:visible;enable-background:new"
             d="M 44.997827,817.20366 C 77.816727,575.404 141.97182,433.93311 208.14904,312.7767 c 58.982,-107.9835 125.04164,-172.55131 169.40763,-172.55131 43.06907,0 120.40398,82.54206 178.88839,178.87373 94.52885,155.7017 121.4569,253.82429 156.4988,492.62784 l -667.946033,5.4767 z"
             id="path2403"
             sodipodi:nodetypes="cszscc" />
        </g>
        <g
           id="layer3"
           inkscape:label="black"
           style="display:inline">
          <path
             inkscape:connector-curvature="0"
             style="fill:#040608;display:inline"
             d="M 354.17823,967.2099 C 318.79601,932.51308 296.72295,912.94036 272.47167,894.75871 226.63,860.39032 176.96633,837.82949 124.17823,827.39312 103.68028,823.34061 72.40056,819.4785 51.09117,818.36906 41.08212,817.84795 32.69521,817.2239 32.45359,816.98229 31.20575,815.73444 43.7195,720.73078 50.2161,682.13035 80.6638,501.22129 133.78962,360.66359 221.53106,228.87359 261.27894,169.17122 316.72781,101.766 367.13478,51.873587 l 10.10313,-10 20.27887,20.5 C 501.89476,167.88978 582.30219,289.45409 634.97853,421.38112 c 36.37904,91.11072 61.66524,191.95155 78.60936,313.49247 5.32686,38.20986 9.7533,75.95616 9.40409,80.19315 l -0.31375,3.80685 -7,0.23327 c -54.98111,1.8322 -91.01424,7.62163 -129.51485,20.80911 -57.05843,19.54402 -103.78299,50.51021 -165.98515,110.00483 -21.51519,20.57868 -42.06098,39.46577 -42.86347,39.40302 -0.35009,-0.0274 -10.76153,-9.97864 -23.13653,-22.11392 z m 49.30341,-25.7288 c 40.19052,-38.11039 60.32311,-54.83028 88.67035,-73.63977 62.09949,-41.2054 118.87022,-59.93305 203.27624,-67.05721 l 6.75,-0.56972 0,-3.94323 c 0,-12.26504 -7.51772,-72.26699 -13.58127,-108.39758 -18.18552,-108.36115 -38.69267,-183.95468 -73.2461,-270 -30.97906,-77.1444 -75.44684,-155.31597 -128.55977,-226 -36.29597,-42.96521 -71.16336,-87.71614 -108.8879,-128.895633 -29.33704,30.61348 -59.27568,65.069383 -86.33149,97.895633 -66.40834,82.81873 -116.71721,167.74909 -153.21148,258.64835 -34.11835,84.98134 -53.96246,157.9413 -72.17203,265.35165 -7.9307,46.77975 -16.10421,114.20569 -14.00176,115.50507 0.61957,0.38291 6.15868,0.97169 12.30914,1.30841 26.83731,1.46924 64.85029,8.01812 91.0346,15.68344 17.26421,5.054 29.12597,9.40957 45.96086,16.87653 7.59704,3.3696 13.96849,6.12655 14.15877,6.12655 0.19029,0 7.248,3.87894 15.68381,8.61986 41.27213,23.19495 72.64316,47.55233 121.34462,94.21549 12.65,12.12056 23.58653,22.06602 24.30341,22.10102 0.71687,0.035 12.64187,-10.68799 26.5,-23.82886 z m -92.3365,-47.30966 c 2.42451,-6.90393 33.81837,-52.28215 50.17539,-71.9466 4.87173,-5.85682 8.8577,-11.33492 8.8577,-12.17356 0,-1.95004 -32.91053,-30.80077 -50.16219,-45.12282 -7.32721,-6.08293 -24.26849,-16.72987 -23.78729,-16.72987 2.64893,0 52.62908,33.35244 69.44948,47.029 5.5,4.47202 10.675,8.12784 11.5,8.12404 0.825,-0.004 7.35,-4.75278 14.5,-10.55331 13.02287,-10.56498 61.50994,-47.44448 63.68655,-47.42364 0.63715,0.006 -0.41655,1.24335 -2.34155,2.74945 -18.73752,14.66001 -68.845,59.42709 -68.845,61.95334 0,0.85305 3.07637,5.20615 6.83637,9.67356 16.07679,19.10149 44.95664,50.89168 52.37313,64.46256 4.08561,7.47594 2.52791,5.93908 -8.10848,-8 -15.29908,-20.04956 -54.93657,-58.84 -58.23507,-58.84 -3.08277,0 -40.99581,46.00323 -57.16627,67.01 -8.37787,10.88354 -9.59767,12.25072 -8.73277,9.78785 z M 523.22899,820.0392 c -20.12601,-26.59637 -44.06648,-55.37958 -70.42075,-84.66561 -19.24107,-21.38154 -73.19238,-75 -75.46557,-75 -2.39068,0 -39.57854,36.18195 -62.80518,61.10635 -29.93545,32.12358 -63.11315,69.43903 -85.07276,98.29715 -16.20626,21.29738 -16.85469,20.5382 -2.31647,-2.71212 31.78496,-50.83221 80.08501,-113.48108 121.39785,-161.56645 5.84767,-6.80629 10.6409,-12.88129 10.65163,-13.5 0.0243,-1.40082 -21.81635,-22.70834 -39.35227,-38.39168 C 265.75884,555.23419 187.5272,501.47983 133.22314,475.77667 c -7.2725,-3.44222 -12.43645,-6.99169 -11.82088,-7.19688 3.17371,-1.05791 76.59156,34.30914 102.27597,48.81304 48.78235,27.54723 106.83009,67.66422 144.06041,99.56065 4.76352,4.08106 9.01133,7.42011 9.43959,7.42011 0.42826,0 4.67607,-3.33905 9.43959,-7.42011 37.32854,-31.98057 95.15014,-71.94181 144.04812,-99.55348 26.20939,-14.7999 89.97165,-44.48688 95.4372,-44.45092 0.95971,0.006 -23.91861,12.4372 -33.07758,17.31353 -51.91797,27.64169 -105.8344,66.19151 -158.51457,113.33664 -17.5536,15.70927 -39.37655,37.001 -39.35227,38.39434 0.0107,0.61601 5.84372,7.92265 12.9622,16.23699 23.93886,27.96045 49.27259,60.37552 71.23204,91.14301 24.46247,34.27447 59.73246,85.76969 58.31901,87.17854 -0.17806,0.17748 -9.7959,-10.37184 -14.44298,-16.51293 z m -381.1532,-17.70812 c -0.11053,-5.64316 19.21809,-77.40139 29.73947,-109.26704 4.14219,-12.54525 7.27098,-23.4878 6.95287,-24.31678 -1.25652,-3.27442 -36.82118,-18.52017 -62.5899,-26.83083 -18.82583,-6.07151 -40.22777,-10.4934 -39.69109,-11.03008 0.8236,-0.8236 37.13741,5.54541 53.19109,9.45879 17.3313,4.22482 33.27353,8.98605 46.18101,13.79217 7.56364,2.81634 8.29144,2.92133 9.64426,1.39125 0.80478,-0.91023 6.46389,-11.66967 12.57579,-23.90987 12.78477,-25.60383 38.16692,-71.33896 43.20186,-78.5901 4.17878,-6.01812 -1.32356,4.82462 -11.23348,27.84 -7.41833,17.22874 -32.11096,74.63479 -33.41354,79.82467 -0.49915,1.98878 0.42529,2.96935 6.73275,7.14153 19.21803,12.7121 67.17191,50.05525 77.26812,60.76469 4.83122,5.12467 -3.69335,-1.01816 -16.87399,-10.49161 -22.04676,-15.84589 -70.45579,-44.91449 -73.06705,-42.74733 -3.26282,2.7079 -24.78833,55.81389 -35.5638,87.7401 -6.85196,20.30142 -12.99395,42.31548 -13.05437,39.23044 z m 470.3984,2.88751 c -0.33379,-0.825 -9.38141,-30.57 -13.17582,-41.845 -10.76654,-31.99248 -32.34205,-85.27942 -35.63587,-88.01305 -2.6225,-2.17648 -54.50141,30.10355 -76.07541,45.7183 -13.84059,10.01749 -14.39352,10.06721 -4.49037,0.4038 12.94244,-12.62913 52.19849,-43.50046 73.07225,-57.20498 l 2.43081,-1.59592 -3.8315,-10.40408 c -8.44373,-22.92815 -21.80864,-55.00498 -27.85044,-68.61739 -3.51369,-7.91649 -17.42022,-32.87089 -17.42022,-33.24664 0,-1.20962 18.16991,25.86444 24.25931,36.64742 3.25672,5.76693 12.4463,24.61478 20.4213,40.29785 16.97791,33.38758 13.26031,30.77576 33.65025,23.64117 19.75906,-6.91384 63.6948,-17.91657 79.68975,-19.96184 8.92164,-1.14081 -9.22525,3.60469 -28.675,9.80955 -28.65081,9.14018 -61.90746,24.38811 -63.26499,27.9258 -0.32367,0.84344 2.57667,11.11099 6.44519,22.81677 13.50376,40.86112 32.81787,110.46823 31.48511,113.99658 -0.26894,0.712 -0.65251,0.57541 -1.03435,-0.36834 z m -353.73278,-287.245 c 17.6087,-31.73538 60.90684,-94.83692 104.30805,-143.75345 2.27082,-2.5594 4.12877,-5.32396 4.12877,-6.14348 0,-2.43567 -25.19748,-25.9716 -42.96833,-40.13494 -18.91285,-15.07351 -52.10902,-34.14974 -69.46167,-45.75497 -6.7375,-4.50596 -32.095,-19.7374 -32.095,-19.98766 0,-1.01339 35.60806,18.16917 49.04692,25.86876 23.43837,13.42866 69.91739,41.50229 92.64644,60.53498 6.41759,5.37392 12.19183,9.77076 12.83164,9.77076 0.63981,0 6.61824,-4.57086 13.28541,-10.15747 25.0937,-21.02672 66.50412,-53.03432 92.88959,-67.3929 9.20365,-5.00848 42.68,-18.50219 42.68,-17.74647 0,0.25835 -28.6425,14.9126 -35.93,19.79064 -15.75006,10.54261 -51.12716,37.64461 -66.66514,50.36205 -13.92082,11.39384 -36.25986,32.87087 -36.25986,34.86069 0,0.81211 1.85795,3.57061 4.12877,6.13001 36.46783,41.10207 77.11367,95.38259 92.37769,125.03772 7.76152,15.07919 16.28044,26.79587 15.40629,26.79587 -0.29755,0 -3.7999,-4.6125 -7.78302,-10.25 -8.70704,-12.3235 -39.68114,-59.65057 -50.0422,-71.90207 -20.15935,-23.83755 -61.45377,-66.52807 -64.35242,-66.52807 -1.54026,0 -36.74087,35.78156 -51.15573,52 -15.62569,17.58078 -51.09417,68.90263 -61.80657,84.1 -4.36148,6.1875 -8.16058,11.25 -8.44245,11.25 -0.28187,0 1.1729,-3.0375 3.23282,-6.75 z"
             id="path2831"
             sodipodi:nodetypes="csssssscccsscccsssccscccsscccssssssssssccsssssssssssssssccssssssssssssssssssssssccssssssssssssssssccsssscccssssssssssccsssssssssssssssssssssssc" />
        </g>
      </g>
      <path
         transform="translate(44.411799,439.61628)"
         id="rect9403"
         d="m -165.71875,0.8125 c -3.43176,0 -6.1875,2.7869917 -6.1875,6.21875 l 0,72.96875 c 0,3.431758 2.75574,6.1875 6.1875,6.1875 l 71.96875,0 c 3.431758,0 6.1875,-2.755742 6.1875,-6.1875 l 0,-72.96875 c 0,-3.4317583 -2.755742,-6.21875 -6.1875,-6.21875 l -71.96875,0 z m 2.125,2.53125 67.71875,0 c 3.228742,0 5.8125,2.6150078 5.8125,5.84375 l 0,68.65625 c 0,3.228742 -2.583758,5.84375 -5.8125,5.84375 l -67.71875,0 c -3.22874,0 -5.84375,-2.615008 -5.84375,-5.84375 l 0,-68.65625 c 0,-3.2287422 2.61501,-5.84375 5.84375,-5.84375 z"
         style="color:#000000;fill:#191d1f;fill-opacity:1;fill-rule:nonzero;stroke:none;stroke-width:1px;marker:none;visibility:visible;display:inline;overflow:visible;enable-background:accumulate"
         inkscape:connector-curvature="0" />
    </g>
    <path
       style="opacity:0.3;fill:url(#linearGradient18445);fill-opacity:1;fill-rule:nonzero;stroke:none"
       id="rect3728"
       inkscape:connector-curvature="0"
       d="m 54.443049,442.454 c -3.324,0 -6,2.676 -6,6 l 0,2 0,68 0,2 c 0,0.33472 0.0413,0.6507 0.0937,0.96875 0.0487,0.2956 0.097,0.59691 0.1875,0.875 0.01,0.0304 0.0209,0.0636 0.0312,0.0937 0.0989,0.28777 0.23488,0.54745 0.375,0.8125 0.14459,0.27351 0.31562,0.53561 0.5,0.78125 0.18438,0.24563 0.37378,0.47347 0.59375,0.6875 0.43995,0.42806 0.94291,0.81453 1.5,1.09375 0.27854,0.13961 0.57347,0.24695 0.875,0.34375 -0.2562,-0.10022 -0.48671,-0.23627 -0.71875,-0.375 -0.007,-0.004 -0.0239,0.005 -0.0312,0 -0.0319,-0.0193 -0.0623,-0.0425 -0.0937,-0.0625 -0.1204,-0.0767 -0.23102,-0.16351 -0.34375,-0.25 -0.10617,-0.0808 -0.21328,-0.16111 -0.3125,-0.25 -0.17793,-0.16143 -0.34746,-0.34539 -0.5,-0.53125 -0.10758,-0.13026 -0.21839,-0.26528 -0.3125,-0.40625 -0.0251,-0.0384 -0.0384,-0.0859 -0.0625,-0.125 -0.0648,-0.10303 -0.13023,-0.20452 -0.1875,-0.3125 -0.10101,-0.19471 -0.20567,-0.4157 -0.28125,-0.625 -0.008,-0.0218 -0.0236,-0.0406 -0.0312,-0.0625 -0.0318,-0.0919 -0.0358,-0.18683 -0.0625,-0.28125 -0.0303,-0.10662 -0.0704,-0.20303 -0.0937,-0.3125 -0.0729,-0.34151 -0.125,-0.69821 -0.125,-1.0625 l 0,-2 0,-68 0,-2 c 0,-2.78185 2.21815,-5 5,-5 l 2,0 68.000001,0 2,0 c 2.78185,0 5,2.21815 5,5 l 0,2 0,68 0,2 c 0,0.36429 -0.0521,0.72099 -0.125,1.0625 -0.0442,0.20689 -0.0884,0.39766 -0.15625,0.59375 -0.008,0.0219 -0.0233,0.0407 -0.0312,0.0625 -0.0627,0.17374 -0.13838,0.36745 -0.21875,0.53125 -0.0416,0.0828 -0.079,0.16995 -0.125,0.25 -0.0546,0.0972 -0.12677,0.18835 -0.1875,0.28125 -0.0941,0.14097 -0.20492,0.27599 -0.3125,0.40625 -0.14317,0.17445 -0.30314,0.347 -0.46875,0.5 -0.0112,0.0102 -0.02,0.0212 -0.0312,0.0312 -0.13839,0.12556 -0.28509,0.23444 -0.4375,0.34375 -0.10257,0.0732 -0.20432,0.15336 -0.3125,0.21875 -0.007,0.005 -0.0238,-0.004 -0.0312,0 -0.23204,0.13873 -0.46255,0.27478 -0.71875,0.375 0.30153,-0.0968 0.59645,-0.20414 0.875,-0.34375 0.55709,-0.27922 1.06005,-0.66569 1.5,-1.09375 0.21997,-0.21403 0.40937,-0.44187 0.59375,-0.6875 0.18438,-0.24564 0.35541,-0.50774 0.5,-0.78125 0.14012,-0.26505 0.27613,-0.52473 0.375,-0.8125 0.0104,-0.0308 0.0213,-0.0627 0.0312,-0.0937 0.0905,-0.27809 0.1388,-0.5794 0.1875,-0.875 0.0524,-0.31805 0.0937,-0.63403 0.0937,-0.96875 l 0,-2 0,-68 0,-2 c 0,-3.324 -2.676,-6 -6,-6 l -72.000001,0 z" />
    <path
       style="opacity:0.2;fill:url(#radialGradient18442);fill-opacity:1;fill-rule:nonzero;stroke:none"
       id="path3615"
       inkscape:connector-curvature="0"
       d="m 54.443049,527.84106 c -3.324,0 -6,-2.676 -6,-6 l 0,-2 0,-68 0,-2 c 0,-0.33472 0.0413,-0.6507 0.0937,-0.96875 0.0487,-0.2956 0.097,-0.59692 0.1875,-0.875 0.01,-0.0304 0.0209,-0.0636 0.0312,-0.0937 0.0989,-0.28777 0.23488,-0.54745 0.375,-0.8125 0.14459,-0.27351 0.31562,-0.53562 0.5,-0.78125 0.18438,-0.24564 0.37378,-0.47347 0.59375,-0.6875 0.43995,-0.42806 0.94291,-0.81453 1.5,-1.09375 0.27854,-0.13961 0.57347,-0.24695 0.875,-0.34375 -0.2562,0.10022 -0.48671,0.23627 -0.71875,0.375 -0.007,0.004 -0.0239,-0.005 -0.0312,0 -0.0319,0.0193 -0.0623,0.0425 -0.0937,0.0625 -0.1204,0.0767 -0.23102,0.16351 -0.34375,0.25 -0.10617,0.0808 -0.21328,0.16111 -0.3125,0.25 -0.17793,0.16143 -0.34746,0.34539 -0.5,0.53125 -0.10758,0.13025 -0.21839,0.26528 -0.3125,0.40625 -0.0251,0.0384 -0.0384,0.0859 -0.0625,0.125 -0.0648,0.10303 -0.13023,0.20452 -0.1875,0.3125 -0.10101,0.19471 -0.20567,0.4157 -0.28125,0.625 -0.008,0.0218 -0.0236,0.0405 -0.0312,0.0625 -0.0318,0.0919 -0.0358,0.18683 -0.0625,0.28125 -0.0303,0.10662 -0.0704,0.20303 -0.0937,0.3125 -0.0729,0.34151 -0.125,0.6982 -0.125,1.0625 l 0,2 0,68 0,2 c 0,2.78185 2.21815,5 5,5 l 2,0 68.000001,0 2,0 c 2.78185,0 5,-2.21815 5,-5 l 0,-2 0,-68 0,-2 c 0,-0.3643 -0.0521,-0.72099 -0.125,-1.0625 -0.0442,-0.20689 -0.0884,-0.39766 -0.15625,-0.59375 -0.008,-0.022 -0.0233,-0.0407 -0.0312,-0.0625 -0.0627,-0.17374 -0.13838,-0.36745 -0.21875,-0.53125 -0.0416,-0.0828 -0.079,-0.16995 -0.125,-0.25 -0.0546,-0.0972 -0.12677,-0.18835 -0.1875,-0.28125 -0.0941,-0.14097 -0.20492,-0.276 -0.3125,-0.40625 -0.14317,-0.17445 -0.30314,-0.347 -0.46875,-0.5 -0.0112,-0.0102 -0.02,-0.0211 -0.0312,-0.0312 -0.13839,-0.12556 -0.28509,-0.23444 -0.4375,-0.34375 -0.10257,-0.0731 -0.20432,-0.15336 -0.3125,-0.21875 -0.007,-0.005 -0.0238,0.004 -0.0312,0 -0.23204,-0.13873 -0.46255,-0.27478 -0.71875,-0.375 0.30153,0.0968 0.59645,0.20414 0.875,0.34375 0.55709,0.27922 1.06005,0.66569 1.5,1.09375 0.21997,0.21403 0.40937,0.44186 0.59375,0.6875 0.18438,0.24563 0.35541,0.50774 0.5,0.78125 0.14012,0.26505 0.27613,0.52473 0.375,0.8125 0.0104,0.0308 0.0213,0.0627 0.0312,0.0937 0.0905,0.27808 0.1388,0.5794 0.1875,0.875 0.0524,0.31805 0.0937,0.63403 0.0937,0.96875 l 0,2 0,68 0,2 c 0,3.324 -2.676,6 -6,6 l -72.000001,0 z" />
    <rect
       style="opacity:0.1;fill:url(#linearGradient18438);fill-opacity:1;fill-rule:nonzero;stroke:#ffffff;stroke-width:0.5;stroke-linecap:round;stroke-linejoin:miter;stroke-miterlimit:4;stroke-opacity:1;stroke-dasharray:none;stroke-dashoffset:0;filter:url(#filter3794)"
       id="rect3171"
       clip-path="url(#clipPath3613)"
       y="15"
       x="15"
       ry="12"
       rx="12"
       height="66"
       width="66"
       transform="translate(42.443049,437.14753)" />
  </g>
</svg>
