<?xml version="1.0" encoding="UTF-8" standalone="no"?>
<!-- Created with Inkscape (http://www.inkscape.org/) -->

<svg
   xmlns:dc="http://purl.org/dc/elements/1.1/"
   xmlns:cc="http://creativecommons.org/ns#"
   xmlns:rdf="http://www.w3.org/1999/02/22-rdf-syntax-ns#"
   xmlns:svg="http://www.w3.org/2000/svg"
   xmlns="http://www.w3.org/2000/svg"
   xmlns:xlink="http://www.w3.org/1999/xlink"
   xmlns:sodipodi="http://sodipodi.sourceforge.net/DTD/sodipodi-0.dtd"
   xmlns:inkscape="http://www.inkscape.org/namespaces/inkscape"
   width="16"
   height="16"
   id="svg2"
   sodipodi:version="0.32"
   inkscape:version="0.91 r13725"
   version="1.0"
   sodipodi:docname="folder-videos-symbolic.svg"
   inkscape:output_extension="org.inkscape.output.svg.inkscape"
   inkscape:export-filename="/home/matt/.icons/Sirocco/scalable/mimetypes/text-plain.png"
   inkscape:export-xdpi="90"
   inkscape:export-ydpi="90"
   sodipodi:modified="true"
   style="display:inline">
  <sodipodi:namedview
     id="base"
     pagecolor="#ffffff"
     bordercolor="#666666"
     borderopacity="1.0"
     inkscape:pageopacity="0.0"
     inkscape:pageshadow="2"
     inkscape:zoom="25.546915"
     inkscape:cx="4.8917837"
     inkscape:cy="8.3045444"
     inkscape:document-units="px"
     inkscape:current-layer="layer1"
     width="128px"
     height="128px"
     inkscape:showpageshadow="false"
     inkscape:window-width="1280"
     inkscape:window-height="751"
     inkscape:window-x="0"
     inkscape:window-y="25"
     showguides="true"
     inkscape:guide-bbox="true"
     showgrid="true"
     inkscape:window-maximized="1">
    <sodipodi:guide
       id="guide2226"
       position="32.637397,117.99844"
       orientation="horizontal" />
    <sodipodi:guide
       id="guide2230"
       position="110,57.402344"
       orientation="vertical" />
    <sodipodi:guide
       id="guide2232"
       position="33.760911"
       orientation="horizontal" />
    <sodipodi:guide
       id="guide2231"
       position="46.774696"
       orientation="horizontal" />
    <inkscape:grid
       enabled="true"
       visible="true"
       id="grid3231"
       type="xygrid" />
    <sodipodi:guide
       orientation="1,0"
       position="100,67.625"
       id="guide2713" />
  </sodipodi:namedview>
  <defs
     id="defs4">
    <linearGradient
       inkscape:collect="always"
       xlink:href="#StandardGradient"
       id="linearGradient2428"
       gradientUnits="userSpaceOnUse"
       gradientTransform="matrix(0.9247229,0,0,1.0872097,10.939944,-2.0023588)"
       x1="11.998966"
       y1="3.6813121"
       x2="11.998966"
       y2="16.529612" />
    <inkscape:perspective
       sodipodi:type="inkscape:persp3d"
       inkscape:vp_x="0 : 11 : 1"
       inkscape:vp_y="0 : 1000 : 0"
       inkscape:vp_z="22 : 11 : 1"
       inkscape:persp3d-origin="11 : 7.3333333 : 1"
       id="perspective19" />
    <linearGradient
       id="StandardGradient"
       gradientTransform="scale(0.9219544,1.0846523)"
       x1="11.998966"
       y1="0.92195445"
       x2="11.998966"
       y2="19.387045"
       gradientUnits="userSpaceOnUse">
      <stop
         style="stop-color:#000000;stop-opacity:0.86274511;"
         offset="0"
         id="stop3283" />
      <stop
         style="stop-color:#000000;stop-opacity:0.47058824;"
         offset="1"
         id="stop2651" />
    </linearGradient>
    <linearGradient
       inkscape:collect="always"
       xlink:href="#StandardGradient"
       id="linearGradient2549"
       gradientUnits="userSpaceOnUse"
       gradientTransform="matrix(0.9247229,0,0,1.0872097,-2.0600562,0.9976422)"
       x1="11.998966"
       y1="0.92195445"
       x2="11.998966"
       y2="17.478098" />
    <linearGradient
       inkscape:collect="always"
       xlink:href="#StandardGradient"
       id="linearGradient2418"
       gradientUnits="userSpaceOnUse"
       gradientTransform="matrix(0.9247229,0,0,1.0872097,-4.0600562,-3.0023583)"
       x1="11.998966"
       y1="0.92195445"
       x2="11.998966"
       y2="17.478098" />
    <linearGradient
       inkscape:collect="always"
       xlink:href="#StandardGradient"
       id="linearGradient2422"
       gradientUnits="userSpaceOnUse"
       gradientTransform="matrix(0.9247229,0,0,1.0872097,-5.0600562,-1.0023583)"
       x1="11.998966"
       y1="0.92195445"
       x2="11.998966"
       y2="17.478098" />
    <linearGradient
       inkscape:collect="always"
       xlink:href="#StandardGradient"
       id="linearGradient2403"
       gradientUnits="userSpaceOnUse"
       gradientTransform="matrix(0.9247229,0,0,1.0872097,-4.0600562,-3.0023583)"
       x1="11.998966"
       y1="0.92195445"
       x2="11.998966"
       y2="17.478098" />
    <linearGradient
       inkscape:collect="always"
       xlink:href="#StandardGradient"
       id="linearGradient2406"
       gradientUnits="userSpaceOnUse"
       gradientTransform="matrix(0.9247229,0,0,1.0872097,-4.0600562,-3.0023583)"
       x1="11.998966"
       y1="0.92195445"
       x2="11.998966"
       y2="17.478098" />
    <linearGradient
       inkscape:collect="always"
       xlink:href="#StandardGradient"
       id="linearGradient2409"
       gradientUnits="userSpaceOnUse"
       gradientTransform="matrix(0.9247229,0,0,1.0872097,-6.0600562,-2.0023583)"
       x1="11.998966"
       y1="3.6800685"
       x2="11.998966"
       y2="15.638639" />
    <linearGradient
       inkscape:collect="always"
       xlink:href="#StandardGradient"
       id="linearGradient2416"
       gradientUnits="userSpaceOnUse"
       gradientTransform="matrix(0.9247229,0,0,1.0872097,-6.0600562,-2.0023583)"
       x1="11.998966"
       y1="2.7615263"
       x2="11.998966"
       y2="15.638639" />
    <linearGradient
       inkscape:collect="always"
       xlink:href="#StandardGradient"
       id="linearGradient2529"
       gradientUnits="userSpaceOnUse"
       gradientTransform="matrix(0.9247229,0,0,1.0872097,-4.0418814,0.9976412)"
       x1="11.998966"
       y1="3.6813121"
       x2="11.998966"
       y2="16.529612" />
    <linearGradient
       inkscape:collect="always"
       xlink:href="#StandardGradient"
       id="linearGradient2539"
       gradientUnits="userSpaceOnUse"
       gradientTransform="matrix(0.9247229,0,0,1.0872097,-6.0600562,-2.0023583)"
       x1="11.998966"
       y1="2.7615263"
       x2="11.998966"
       y2="15.638639" />
    <linearGradient
       inkscape:collect="always"
       xlink:href="#StandardGradient"
       id="linearGradient2542"
       gradientUnits="userSpaceOnUse"
       gradientTransform="matrix(0.9247229,0,0,1.0872097,-6.0600562,-2.0023583)"
       x1="11.998966"
       y1="2.7615263"
       x2="11.998966"
       y2="15.638639" />
    <linearGradient
       inkscape:collect="always"
       xlink:href="#StandardGradient"
       id="linearGradient2412"
       gradientUnits="userSpaceOnUse"
       gradientTransform="matrix(0.9247229,0,0,1.0872097,-6.0600562,-2.0023583)"
       x1="11.998966"
       y1="2.7615263"
       x2="11.998966"
       y2="15.638639" />
    <linearGradient
       inkscape:collect="always"
       xlink:href="#StandardGradient"
       id="linearGradient2423"
       gradientUnits="userSpaceOnUse"
       gradientTransform="matrix(0.9247229,0,0,1.0872097,-6.0600562,-2.0023583)"
       x1="11.998966"
       y1="2.7615263"
       x2="11.998966"
       y2="15.638639" />
    <inkscape:perspective
       id="perspective2892"
       inkscape:persp3d-origin="0.5 : 0.33333333 : 1"
       inkscape:vp_z="1 : 0.5 : 1"
       inkscape:vp_y="0 : 1000 : 0"
       inkscape:vp_x="0 : 0.5 : 1"
       sodipodi:type="inkscape:persp3d" />
    <linearGradient
       inkscape:collect="always"
       xlink:href="#StandardGradient"
       id="linearGradient2942"
       gradientUnits="userSpaceOnUse"
       gradientTransform="matrix(0.9247229,0,0,1.0872097,-26.060056,-2.0023583)"
       x1="11.998966"
       y1="2.7615263"
       x2="11.998966"
       y2="15.638639" />
    <clipPath
       clipPathUnits="userSpaceOnUse"
       id="clipPath2949">
      <path
         style="fill:#ff00ff;fill-opacity:1;stroke:none;display:inline"
         d="m -20,0 0,16 16,0 0,-16 -16,0 z m 3,1 3,0 c 0.554,0 1,0.446 1,1 l 6,0 c 0.554,0 1,0.446 1,1 l -12,0 0,-1 c 0,-0.554 0.446,-1 1,-1 z m -0.5,3 4,0 6,0 1,0 C -5.669,4 -5,4.669 -5,5.5 l 0,4.5 0,1.5 c 0,0.647488 -0.396277,1.195291 -0.96875,1.40625 l 0,0.15625 -0.03125,0 0,0.4375 c 0,0.831 -0.669,1.5 -1.5,1.5 l -6,0 c -0.831,0 -1.5,-0.669 -1.5,-1.5 l 0,-0.5 -2.5,0 c -0.831,0 -1.5,-0.669 -1.5,-1.5 l 0,-1.5 0,-4.5 C -19,4.669 -18.331,4 -17.5,4 z m 5,2 C -12.777,6 -13,6.223 -13,6.5 l 0,6 c 0,0.277 0.223,0.5 0.5,0.5 l 4,0 c 0.277,0 0.5,-0.223 0.5,-0.5 l 0,-6 C -8,6.223 -8.223,6 -8.5,6 l -4,0 z"
         id="path2951" />
    </clipPath>
    <linearGradient
       inkscape:collect="always"
       xlink:href="#StandardGradient"
       id="linearGradient5012"
       gradientUnits="userSpaceOnUse"
       gradientTransform="matrix(0.9247229,0,0,1.0872097,-6.0600562,-2.0023583)"
       x1="11.998966"
       y1="2.7615263"
       x2="11.998966"
       y2="15.638639" />
    <linearGradient
       inkscape:collect="always"
       xlink:href="#StandardGradient"
       id="linearGradient5016"
       gradientUnits="userSpaceOnUse"
       gradientTransform="matrix(0.9247229,0,0,1.0872097,-6.0600562,-2.0023583)"
       x1="11.998966"
       y1="2.7615263"
       x2="11.998966"
       y2="15.638639" />
    <linearGradient
       inkscape:collect="always"
       xlink:href="#StandardGradient"
       id="linearGradient3176"
       gradientUnits="userSpaceOnUse"
       gradientTransform="matrix(0.9247229,0,0,1.0872097,-6.0600562,-2.0023583)"
       x1="11.998966"
       y1="2.7615263"
       x2="11.998966"
       y2="15.638639" />
    <linearGradient
       inkscape:collect="always"
       xlink:href="#StandardGradient"
       id="linearGradient3180"
       gradientUnits="userSpaceOnUse"
       gradientTransform="matrix(0.9247229,0,0,1.0872097,-6.0600562,-2.0023583)"
       x1="11.998966"
       y1="2.7615263"
       x2="11.998966"
       y2="15.638639" />
    <linearGradient
       inkscape:collect="always"
       xlink:href="#StandardGradient"
       id="linearGradient3042"
       gradientUnits="userSpaceOnUse"
       gradientTransform="matrix(0.9247229,0,0,1.0872097,-6.0600562,-2.0023583)"
       x1="11.998966"
       y1="2.7615263"
       x2="11.998966"
       y2="15.638639" />
    <linearGradient
       inkscape:collect="always"
       xlink:href="#StandardGradient"
       id="linearGradient3047"
       gradientUnits="userSpaceOnUse"
       gradientTransform="matrix(0.9247229,0,0,1.0872097,-6.0600562,-2.0023583)"
       x1="11.998966"
       y1="2.7615263"
       x2="11.998966"
       y2="15.638639" />
    <linearGradient
       inkscape:collect="always"
       xlink:href="#StandardGradient"
       id="linearGradient3052"
       gradientUnits="userSpaceOnUse"
       gradientTransform="matrix(0.9247229,0,0,1.0872097,-6.0600562,-2.0023583)"
       x1="11.998966"
       y1="2.7615263"
       x2="11.998966"
       y2="15.638639" />
    <linearGradient
       inkscape:collect="always"
       xlink:href="#StandardGradient"
       id="linearGradient3059"
       gradientUnits="userSpaceOnUse"
       gradientTransform="matrix(0.9247229,0,0,1.0872097,-6.0600562,-2.0023583)"
       x1="11.998966"
       y1="2.7615263"
       x2="11.998966"
       y2="15.638639" />
    <linearGradient
       inkscape:collect="always"
       xlink:href="#StandardGradient"
       id="linearGradient3062"
       gradientUnits="userSpaceOnUse"
       gradientTransform="matrix(-0.9247229,0,0,1.0872097,22.060056,-2.0023583)"
       x1="11.998966"
       y1="2.7615263"
       x2="11.998966"
       y2="15.638639" />
    <linearGradient
       inkscape:collect="always"
       xlink:href="#StandardGradient"
       id="linearGradient3064"
       gradientUnits="userSpaceOnUse"
       gradientTransform="matrix(0.9247229,0,0,1.0872097,-6.0600562,-2.0023583)"
       x1="11.998966"
       y1="2.7615263"
       x2="11.998966"
       y2="15.638639" />
    <linearGradient
       inkscape:collect="always"
       xlink:href="#StandardGradient"
       id="linearGradient3067"
       gradientUnits="userSpaceOnUse"
       gradientTransform="matrix(0.9247229,0,0,1.0872097,-6.0600562,-1.0023583)"
       x1="11.998966"
       y1="2.7615263"
       x2="11.998966"
       y2="15.638639" />
    <linearGradient
       inkscape:collect="always"
       xlink:href="#StandardGradient"
       id="linearGradient3071"
       gradientUnits="userSpaceOnUse"
       gradientTransform="matrix(0.9247229,0,0,1.0872097,-6.0600562,-2.0023583)"
       x1="11.998966"
       y1="2.7615263"
       x2="11.998966"
       y2="15.638639" />
    <linearGradient
       inkscape:collect="always"
       xlink:href="#StandardGradient"
       id="linearGradient3074"
       gradientUnits="userSpaceOnUse"
       gradientTransform="matrix(0.9247229,0,0,1.0872097,-6.0600562,-2.0023583)"
       x1="11.998966"
       y1="2.7615263"
       x2="11.998966"
       y2="15.638639" />
    <linearGradient
       x1="47"
       y1="76"
       x2="47"
       y2="33.086185"
       id="linearGradient3078"
       xlink:href="#linearGradient3699"
       gradientUnits="userSpaceOnUse"
       gradientTransform="translate(0,-2)" />
    <linearGradient
       id="linearGradient3699">
      <stop
         id="stop3701"
         style="stop-color:#aa7932;stop-opacity:0.78431374"
         offset="0" />
      <stop
         id="stop3703"
         style="stop-color:#aa7932;stop-opacity:0.39215687"
         offset="1" />
    </linearGradient>
    <linearGradient
       x1="49"
       y1="72"
       x2="49"
       y2="38.758461"
       id="linearGradient3100"
       xlink:href="#linearGradient3699"
       gradientUnits="userSpaceOnUse"
       gradientTransform="translate(-2,-4)" />
    <linearGradient
       x1="49"
       y1="72"
       x2="49"
       y2="38.758461"
       id="linearGradient3903"
       xlink:href="#linearGradient3699"
       gradientUnits="userSpaceOnUse"
       gradientTransform="translate(-2,-4)" />
    <linearGradient
       x1="49"
       y1="72"
       x2="49"
       y2="38.758461"
       id="linearGradient3890"
       xlink:href="#linearGradient3699"
       gradientUnits="userSpaceOnUse"
       gradientTransform="translate(-2,-4)" />
    <linearGradient
       x1="49"
       y1="72"
       x2="49"
       y2="38.758461"
       id="linearGradient3877"
       xlink:href="#linearGradient3699"
       gradientUnits="userSpaceOnUse"
       gradientTransform="translate(-2,-4)" />
    <linearGradient
       x1="127.99561"
       y1="272.01312"
       x2="127.99561"
       y2="39.990356"
       id="linearGradient4419"
       xlink:href="#linearGradient3699"
       gradientUnits="userSpaceOnUse"
       gradientTransform="matrix(0.20233772,0,0,0.1982564,18.677235,22.071656)" />
    <linearGradient
       x1="127.99561"
       y1="272.01312"
       x2="127.99561"
       y2="39.990356"
       id="linearGradient4387"
       xlink:href="#linearGradient3699"
       gradientUnits="userSpaceOnUse"
       gradientTransform="matrix(0.20233772,0,0,0.1982564,18.677235,22.071656)" />
    <linearGradient
       x1="127.99561"
       y1="272.01312"
       x2="127.99561"
       y2="39.990356"
       id="linearGradient4416"
       xlink:href="#linearGradient3699"
       gradientUnits="userSpaceOnUse"
       gradientTransform="matrix(0.20233772,0,0,0.1982564,18.677235,22.071656)" />
    <linearGradient
       x1="127.99561"
       y1="272.01312"
       x2="127.99561"
       y2="39.990356"
       id="linearGradient4405"
       xlink:href="#linearGradient3699"
       gradientUnits="userSpaceOnUse"
       gradientTransform="matrix(0.20233772,0,0,0.1982564,18.677235,22.071656)" />
    <linearGradient
       x1="56"
       y1="76"
       x2="56"
       y2="32"
       id="linearGradient3117"
       xlink:href="#linearGradient3699"
       gradientUnits="userSpaceOnUse"
       gradientTransform="translate(0,-1.999995)" />
    <linearGradient
       x1="56"
       y1="76"
       x2="56"
       y2="32"
       id="linearGradient4532"
       xlink:href="#linearGradient3699"
       gradientUnits="userSpaceOnUse"
       gradientTransform="translate(0,-1.999995)" />
    <linearGradient
       x1="56"
       y1="76"
       x2="56"
       y2="32"
       id="linearGradient4506"
       xlink:href="#linearGradient3699"
       gradientUnits="userSpaceOnUse"
       gradientTransform="translate(0,-1.999995)" />
    <linearGradient
       x1="56"
       y1="76"
       x2="56"
       y2="32"
       id="linearGradient4519"
       xlink:href="#linearGradient3699"
       gradientUnits="userSpaceOnUse"
       gradientTransform="translate(0,-1.999995)" />
    <linearGradient
       x1="48.071056"
       y1="73.765587"
       x2="48.071056"
       y2="32.397678"
       id="linearGradient3248"
       xlink:href="#linearGradient3699"
       gradientUnits="userSpaceOnUse" />
    <linearGradient
       x1="48.071056"
       y1="73.765587"
       x2="48.071056"
       y2="32.397678"
       id="linearGradient3930"
       xlink:href="#linearGradient3699"
       gradientUnits="userSpaceOnUse" />
    <linearGradient
       x1="48.071056"
       y1="73.765587"
       x2="48.071056"
       y2="32.397678"
       id="linearGradient3917"
       xlink:href="#linearGradient3699"
       gradientUnits="userSpaceOnUse" />
    <linearGradient
       x1="48.071056"
       y1="73.765587"
       x2="48.071056"
       y2="32.397678"
       id="linearGradient3904"
       xlink:href="#linearGradient3699"
       gradientUnits="userSpaceOnUse" />
    <linearGradient
       x1="8.9154778"
       y1="18.868902"
       x2="8.9154778"
       y2="1.8331841"
       id="linearGradient3104"
       xlink:href="#linearGradient3699"
       gradientUnits="userSpaceOnUse"
       gradientTransform="matrix(2.5842336,0,0,2.5842336,18.116293,24.972805)" />
    <linearGradient
       x1="8.9154778"
       y1="18.868902"
       x2="8.9154778"
       y2="1.8331841"
       id="linearGradient4634"
       xlink:href="#linearGradient3699"
       gradientUnits="userSpaceOnUse"
       gradientTransform="matrix(2.5842336,0,0,2.5842336,18.116293,24.972805)" />
    <linearGradient
       x1="8.9154778"
       y1="18.868902"
       x2="8.9154778"
       y2="1.8331841"
       id="linearGradient4608"
       xlink:href="#linearGradient3699"
       gradientUnits="userSpaceOnUse"
       gradientTransform="matrix(2.5842336,0,0,2.5842336,18.116293,24.972805)" />
    <linearGradient
       x1="8.9154778"
       y1="18.868902"
       x2="8.9154778"
       y2="1.8331841"
       id="linearGradient4621"
       xlink:href="#linearGradient3699"
       gradientUnits="userSpaceOnUse"
       gradientTransform="matrix(2.5842336,0,0,2.5842336,18.116293,24.972805)" />
    <linearGradient
       x1="48"
       y1="76"
       x2="48"
       y2="27.531422"
       id="linearGradient3098"
       xlink:href="#linearGradient3699"
       gradientUnits="userSpaceOnUse" />
    <linearGradient
       x1="48"
       y1="76"
       x2="48"
       y2="27.531422"
       id="linearGradient4845"
       xlink:href="#linearGradient3699"
       gradientUnits="userSpaceOnUse" />
    <linearGradient
       x1="48"
       y1="76"
       x2="48"
       y2="27.531422"
       id="linearGradient4830"
       xlink:href="#linearGradient3699"
       gradientUnits="userSpaceOnUse" />
    <linearGradient
       x1="48"
       y1="76"
       x2="48"
       y2="27.531422"
       id="linearGradient4828"
       xlink:href="#linearGradient3699"
       gradientUnits="userSpaceOnUse" />
    <linearGradient
       x1="51.17857"
       y1="76.408951"
       x2="51.17857"
       y2="31.782455"
       id="linearGradient3093"
       xlink:href="#linearGradient3699"
       gradientUnits="userSpaceOnUse"
       gradientTransform="translate(0,-2)" />
    <linearGradient
       x1="51.17857"
       y1="76.408951"
       x2="51.17857"
       y2="31.782455"
       id="linearGradient5048"
       xlink:href="#linearGradient3699"
       gradientUnits="userSpaceOnUse"
       gradientTransform="translate(0,-2)" />
    <linearGradient
       x1="51.17857"
       y1="76.408951"
       x2="51.17857"
       y2="31.782455"
       id="linearGradient5035"
       xlink:href="#linearGradient3699"
       gradientUnits="userSpaceOnUse"
       gradientTransform="translate(0,-2)" />
    <linearGradient
       x1="51.17857"
       y1="76.408951"
       x2="51.17857"
       y2="31.782455"
       id="linearGradient5022"
       xlink:href="#linearGradient3699"
       gradientUnits="userSpaceOnUse"
       gradientTransform="translate(0,-2)" />
  </defs>
  <metadata
     id="metadata7">
    <rdf:RDF>
      <cc:Work
         rdf:about="">
        <dc:format>image/svg+xml</dc:format>
        <dc:type
           rdf:resource="http://purl.org/dc/dcmitype/StillImage" />
        <dc:title></dc:title>
      </cc:Work>
    </rdf:RDF>
  </metadata>
  <g
     style="display:inline"
     inkscape:label="Calque 1"
     id="layer1"
     inkscape:groupmode="layer">
    <g
       transform="matrix(0.30898393,0,0,0.30898393,-6.8506145,-8.250052)"
       id="layer6" />
    <g
       transform="matrix(0.36364387,0,0,0.36363611,-9.4492403,-10.909083)"
       id="layer6-5">
      <path
         d="m 38,30 c -6.627417,0 -12.000001,5.372584 -12.000001,12 0,4.456718 2.45369,8.336505 6.0625,10.40625 -0.03983,0.195645 -0.0625,0.386 -0.0625,0.59375 l 0,2.03125 C 31.836962,55.00469 31.673124,55 31.499999,55 c -1.385,0 -2.5,0.892 -2.5,2 0,1.108 1.115,2 2.5,2 0.173125,0 0.336963,-0.0047 0.5,-0.03125 l 0,6.03125 c 0,1.662 1.338,3 3.000001,3 l 1,0 3.5625,0 -3.1875,4.1875 C 35.812952,72.91735 36.639363,74.00671 37.75,74 l 9,0 9.03125,0 c 1.110637,0.0067 1.937048,-1.08265 1.375,-1.8125 L 53.96875,68 58,68 l 1,0 c 1.662,0 3,-1.338 3,-3 l 0,-3.03125 0.40625,0 5.15625,3.59375 c 0.485527,0.431077 1.109339,0.434113 1.59375,0 0.484411,-0.434083 0.811192,-1.288918 0.8125,-2.15625 l 0,-4.9375 0,-3.9375 c 0.01059,-1.420441 -0.903594,-2.681381 -1.8125,-2.5 -0.20856,0.0426 -0.411574,0.149448 -0.59375,0.3125 l -5.15625,3.625 -0.40625,0 L 62,53 C 62,52.37675 61.82284,51.791152 61.5,51.3125 64.230964,49.11566 66,45.780028 66,42 66,35.372584 60.627416,30 54,30 50.921903,30 48.123486,31.153599 46,33.0625 43.876514,31.153599 41.078097,30 38,30 Z m 0,6 c 1.863961,0 3.524512,0.854017 4.625,2.1875 0.427968,0.518577 0.763242,1.107738 1,1.75 0.100944,0.27569 0.190056,0.550811 0.25,0.84375 0.01086,0.05217 0.02176,0.103585 0.03125,0.15625 0.0054,0.03036 -0.0049,0.06323 0,0.09375 C 43.95811,41.347084 44,41.669296 44,42 c 0,0.330704 -0.04189,0.652916 -0.09375,0.96875 -0.005,0.03031 0.0054,0.0636 0,0.09375 -0.04415,0.24929 -0.113586,0.48111 -0.1875,0.71875 -0.02933,0.09358 -0.06,0.189706 -0.09375,0.28125 -0.236758,0.642262 -0.572032,1.231423 -1,1.75 C 41.524512,47.145983 39.863961,48 38,48 c -3.313709,0 -6.000001,-2.686291 -6.000001,-6 0,-3.313709 2.686292,-6 6.000001,-6 z m 16,0 c 3.313709,0 6,2.686291 6,6 0,3.313709 -2.686291,6 -6,6 -1.863961,0 -3.524512,-0.854017 -4.625,-2.1875 -0.427968,-0.518577 -0.763242,-1.107738 -1,-1.75 -0.111856,-0.305494 -0.219962,-0.611051 -0.28125,-0.9375 -0.0095,-0.04992 0.0083,-0.105896 0,-0.15625 C 48.04189,42.652916 48,42.330704 48,42 c 0,-0.330704 0.04189,-0.652916 0.09375,-0.96875 0.0083,-0.05035 -0.0095,-0.106332 0,-0.15625 0.06129,-0.326449 0.169394,-0.632006 0.28125,-0.9375 0.236758,-0.642262 0.572032,-1.231423 1,-1.75 C 50.475488,36.854017 52.136039,36 54,36 Z m -16,2 c -2.209138,0 -4,1.790862 -4,4 0,2.209138 1.790862,4 4,4 2.209138,0 4,-1.790862 4,-4 0,-2.209138 -1.790862,-4 -4,-4 z m 16,0 c -2.209138,0 -4,1.790862 -4,4 0,2.209138 1.790862,4 4,4 2.209138,0 4,-1.790862 4,-4 0,-2.209138 -1.790862,-4 -4,-4 z"
         inkscape:connector-curvature="0"
         id="path3729"
         style="display:inline;opacity:0.9;fill:#bebebe;fill-opacity:1;stroke:none" />
    </g>
  </g>
</svg>
